<svg id="Layer_1" data-name="Layer 1" xmlns="http://www.w3.org/2000/svg" viewBox="0 0 13213.94 2340.11"><defs><style>.cls-1{fill:#ffb718;}</style></defs><title>navbar_icon</title><path class="cls-1" d="M3119.6,662.15h235.14c12.52,0,18.81,4.74,18.81,14.17v987.48c0,9.46-6.29,14.17-18.81,14.17H3119.6q-18.83,0-18.81-14.17V676.31Q3100.79,662.17,3119.6,662.15Z" transform="translate(0)"/><path class="cls-1" d="M3531.54,1663.79V676.31q0-14.14,18.81-14.17h641.47q107.22,0,185.29,31.17T4506,774.07q50.79,49.61,74.31,113.34t23.51,128.92v340q0,55.25-23.51,112.63T4506,1573.12q-50.79,46.75-127.92,75.8t-184.35,29H3550.36Q3531.53,1678,3531.54,1663.79Zm272.77-184.17q0,14.18,18.81,14.17h336.72q30.07,0,61.14-12a216.29,216.29,0,0,0,55.49-31.17q24.42-19.13,39.5-42.5t15-47.46V983.75q0-25.5-16.93-50.29a179.64,179.64,0,0,0-43.27-43.92,242.09,242.09,0,0,0-59.26-31.17,193.39,193.39,0,0,0-66.78-12H3823.12q-18.83,0-18.81,14.17v619.12Z" transform="translate(0)"/><path class="cls-1" d="M4746.73,878.91q0-96.33,69.6-156.55t201.28-60.21h637.71c16.28,0,24.45,4.74,24.45,14.17V832.16c0,9.45-6.29,14.17-18.81,14.17H5038.31q-18.82,0-18.81,15.58v192.68q0,14.18,18.81,14.17h577.51c12.52,0,18.81,4.74,18.81,14.17v162.93c0,9.46-6.29,14.17-18.81,14.17H5038.31q-18.82,0-18.81,14.17v205.43q0,14.18,18.81,14.17H5661c12.52,0,18.81,4.74,18.81,14.17v155.84c0,9.46-6.29,14.17-18.81,14.17H4933q-33.86,0-67.72-13.46a230.58,230.58,0,0,1-60.2-34.71q-26.36-21.25-42.33-47.46t-16-53.13V878.91Z" transform="translate(0)"/><path class="cls-1" d="M6178.27,745.74q22.57-55.25,82.77-69.42t163.66-14.17q107.22,0,168.36,14.17t83.71,69.42l378.11,923.72c0,5.67-4.41,8.5-13.17,8.5H6795.28q-18.83,0-24.45-12.75l-99.7-245.1q-5.64-14.15-24.45-14.17H6204.61q-18.83,0-24.45,15.59l-99.7,242.26Q6074.81,1678,6056,1678H5811.45c-10.05,0-15.05-2.83-15.05-8.5Zm269,126.09q-5.64-15.58-9.41-20.54c-2.53-3.3-6.91-5-13.17-5s-13.17,8.5-20.69,25.5l-131.68,323a7.77,7.77,0,0,1-.94,4.25,5,5,0,0,0-.94,2.84c0,6.62,5,9.91,15.05,9.91h280.29q15,0,15-9.91a5.23,5.23,0,0,0-.94-2.84,7.52,7.52,0,0,1-.94-4.25Z" transform="translate(0)"/><path class="cls-1" d="M7583.75,676.32q0-14.15,18.81-14.17H7837.7c12.52,0,18.81,4.74,18.81,14.17v385.35q0,14.18,18.81,14.17h445.83c12.52,0,18.81-4.71,18.81-14.17V676.32q0-14.15,18.81-14.17h235.14c12.52,0,18.81,4.74,18.81,14.17v987.47c0,9.46-6.29,14.17-18.81,14.17H8358.78q-18.83,0-18.81-14.17V1274.19c0-9.43-6.29-14.17-18.81-14.17H7875.32q-18.83,0-18.81,14.17v389.61c0,9.46-6.29,14.17-18.81,14.17H7602.56q-18.83,0-18.81-14.17V676.32Z" transform="translate(0)"/><path class="cls-1" d="M9113.09,745.74q22.58-55.26,82.77-69.42t163.66-14.17q107.22,0,168.36,14.17t83.71,69.42l378.11,923.72c0,5.67-4.41,8.5-13.17,8.5H9730.1q-18.82,0-24.45-12.75l-99.71-245.1q-5.64-14.15-24.45-14.17H9139.43q-18.82,0-24.45,15.59l-99.7,242.26q-5.65,14.19-24.46,14.17H8746.27c-10.05,0-15.05-2.83-15.05-8.5Zm269,126.09q-5.65-15.58-9.41-20.54t-13.17-5q-9.43,0-20.69,25.5l-131.68,323a7.72,7.72,0,0,1-.94,4.25,5,5,0,0,0-.94,2.84c0,6.62,5,9.92,15,9.92h280.29q15,0,15-9.92a5.24,5.24,0,0,0-.94-2.84,7.52,7.52,0,0,1-.94-4.25Z" transform="translate(0)"/><path class="cls-1" d="M10031.09,978.08q0-60.9,22.58-114.76,11.28-31.14,31-53.13a515,515,0,0,1,40.45-40.38q58.28-51,139.21-79.34t173.06-28.34h498.5q18.78,0,18.81,14.17V832.16q0,14.18-18.81,14.17H10448.7q-73.37,11.36-109.11,57.38t-35.74,119.72v358.44q5.64,49.61,42.33,78.63t102.52,33.29h487.21q18.78,0,18.81,14.17v155.84q0,14.19-18.81,14.17h-481.57q-56.43,0-99.7-7.79t-75.25-17.71q-71.51-19.83-127.91-64.47a368.87,368.87,0,0,1-92.18-107q-9.44-15.58-18.81-41.8t-9.41-64.46V978.08Z" transform="translate(0)"/><path class="cls-1" d="M11127.76,662.15h235.14q18.78,0,18.81,14.17v987.47q0,14.19-18.81,14.17h-235.14q-18.82,0-18.81-14.17V676.32Q11109,662.17,11127.76,662.15Zm923.64,4.25q3.75,4.25-3.76,14.17l-349.89,451.94c-2.53,1.9-6.59,6.62-12.23,14.17s-8.47,12.29-8.47,14.17c0,2.84,2.18,7.57,6.59,14.17a134.28,134.28,0,0,0,10.35,14.17l364.94,470.37q7.49,9.93,3.76,14.17a12.05,12.05,0,0,1-9.4,4.25h-285.93q-7.54,0-11.29-4.25a62.31,62.31,0,0,1-5.64-7.08l-295.34-396.69q-56.43-73.65-56.43-106.26a42.51,42.51,0,0,1,1.88-12,141.7,141.7,0,0,1,7.53-18.42,236.29,236.29,0,0,1,16.93-29q11.29-17,30.1-43.92l284.05-386.77a64.88,64.88,0,0,1,5.64-7.08q3.75-4.25,11.29-4.25H12042A12.06,12.06,0,0,1,12051.4,666.4Z" transform="translate(0)"/><path class="cls-1" d="M12559.31,1255.77q-58.33,0-125.09-11.34t-121.34-43.92a202.78,202.78,0,0,1-53.61-47.46,279.49,279.49,0,0,1-35.74-59.51,307.43,307.43,0,0,1-20.69-65.17,337.08,337.08,0,0,1-6.58-65.88V935.58a89,89,0,0,1,3.76-25.5q13.14-123.26,122.27-191.26,32-19.83,79-38.25t92.17-18.42h622.66c12.52,0,18.81,4.74,18.81,14.17V832.16c0,9.45-6.29,14.17-18.81,14.17h-543.65q-26.37,0-48,17.71t-31,33.29q-9.43,14.18-11.29,28.33a214.46,214.46,0,0,0-1.88,28.34,300.83,300.83,0,0,0,3.76,46.75q3.75,24.11,26.34,42.5,20.68,15.6,57.38,18.42t79.95,2.83h210.69q58.28,0,122.27,12a342,342,0,0,1,118.51,46,198.37,198.37,0,0,1,53.61,48.17,290.93,290.93,0,0,1,35.75,60.92,282.54,282.54,0,0,1,19.75,68,431.82,431.82,0,0,1,5.65,68v29.75a76.2,76.2,0,0,1-3.76,24.08q-15.08,128.94-120.39,198.35-32,19.86-78.07,39t-87.48,19.13h-684.73q-18.82,0-18.81-14.17V1507.95q0-14.14,18.81-14.17h605.73q28.22,0,48.91-20.54t30.1-37.54q9.39-15.57,11.29-29.76a228.41,228.41,0,0,0,1.88-29.75,318.05,318.05,0,0,0-3.76-47.47q-3.79-24.77-26.34-44.63-18.82-15.57-53.61-22t-81.83-6.37h-212.57Z" transform="translate(0)"/><path class="cls-1" d="M1080.28,1994.25l179.54-.22A105.73,105.73,0,0,1,1080.28,1994.25Z" transform="translate(0)"/><path class="cls-1" d="M972.4,1707.55v120.86c0,66.81,35.82,120.87,80.08,120.87h235.14c44.27,0,80.08-54.06,80.08-120.87V1707.55H972.4Z" transform="translate(0)"/><path class="cls-1" d="M851.89,1243.39q-3.44.68-6.91,1.17l9.18-1.23a100.84,100.84,0,0,1-26.28.1l9.18,1.23a87.9,87.9,0,0,1-21.58-5.9l8.25,3.48a81.88,81.88,0,0,1-16.92-9.85l7,5.4a80.31,80.31,0,0,1-13.8-13.69l5.4,7a83.2,83.2,0,0,1-10.54-18l3.48,8.25a92.17,92.17,0,0,1-6.06-22.39l1.23,9.18c-2-15.24-.9-31.17-0.9-46.5V1101c0-7.79-.06-15.51.9-23.27l-1.23,9.18a123.93,123.93,0,0,1,8.62-31.39l-3.48,8.25a139.44,139.44,0,0,1,17.28-29.5l-5.4,7A143.68,143.68,0,0,1,834.43,1016l-7,5.4A134.07,134.07,0,0,1,856,1004.59l-8.25,3.48c11.18-4.7,22.66-7.07,34.42-9.45l42.11-8.54,65.9-13.37,81.72-16.58,90.43-18.34,91.78-18.62,85.77-17.4L1412.51,891l51.57-10.46q11.73-2.38,23.46-4.76c2.52-.51,5-0.95,7.59-1.31l-9.18,1.23a100.85,100.85,0,0,1,26.28-.1l-9.18-1.23a87.9,87.9,0,0,1,21.58,5.9l-8.25-3.48a81.87,81.87,0,0,1,16.92,9.85l-7-5.4a80.3,80.3,0,0,1,13.8,13.68l-5.4-7a83.2,83.2,0,0,1,10.54,18l-3.48-8.25a92.18,92.18,0,0,1,6.06,22.39l-1.23-9.18c2,15.24.9,31.17,0.9,46.5v60.64c0,7.79.06,15.51-.9,23.27l1.23-9.18a123.94,123.94,0,0,1-8.62,31.39l3.48-8.25a139.44,139.44,0,0,1-17.28,29.5l5.4-7a143.67,143.67,0,0,1-25.12,25.24l7-5.4a134.06,134.06,0,0,1-28.52,16.83l8.25-3.48c-15.88,6.67-33.17,9.2-50,12.6l-62.94,12.77c-6.49,1.32-13,2.8-19.54,3.74l9.18-1.23a100.85,100.85,0,0,1-26.28.1l9.18,1.23a87.9,87.9,0,0,1-21.58-5.9l8.25,3.48a81.87,81.87,0,0,1-16.92-9.85l7,5.4a80.3,80.3,0,0,1-13.8-13.68l5.4,7a83.2,83.2,0,0,1-10.54-18l3.48,8.25a92.17,92.17,0,0,1-6.06-22.39l1.23,9.18c-1.83-14-.9-28.6-0.9-42.69V987.13a35.64,35.64,0,0,0-10.12-24.42c-6-6-15.82-10.5-24.42-10.12-18.71.84-34.54,15.18-34.54,34.54v80c0,10.46-.52,21.12.36,31.56,2.54,30.15,14,60.1,37.29,80.42a119.29,119.29,0,0,0,82.83,29.72c14.52-.53,28.75-3.8,42.93-6.68q42.52-8.62,85-17.25c56.88-11.58,102.94-56.7,121.81-110.63,6.1-17.44,7.8-35.93,7.8-54.29V930c0-4.15,0-8.29-.23-12.43a134.65,134.65,0,0,0-12.47-48.8c-12.46-27.17-37.05-46.44-64.59-56.59-22.24-8.2-46.83-7.65-69.75-3.08-8.93,1.78-17.85,3.62-26.77,5.43l-62.6,12.7L1292.65,845l-101.14,20.52-104.68,21.24-97,19.67-78.09,15.84-49,9.93-10,2a150.53,150.53,0,0,0-51.48,21.32c-46.78,30.57-77.74,82.3-77.74,138.7v88.61c0,16.17.4,32.4,5.06,48.07,8.38,28.15,27.23,53.27,53.16,67.51,27.38,15,58.23,17.53,88.5,11.56,8.14-1.61,16.57-8.92,20.64-15.87,4.33-7.4,6.17-18.32,3.48-26.62s-7.88-16.42-15.87-20.64c-8.56-4.52-17.09-5.36-26.62-3.48h0Z" transform="translate(0)"/><path class="cls-1" d="M1513.16,534.31v87.14a161.75,161.75,0,0,1-.83,20l1.23-9.18a113.61,113.61,0,0,1-7.9,28.78l3.48-8.25a127.82,127.82,0,0,1-15.84,27l5.4-7a131.7,131.7,0,0,1-23,23.13l7-5.4A122.88,122.88,0,0,1,1456.52,706l8.25-3.48c-10.25,4.31-20.77,6.48-31.55,8.66L1394.61,719l-60.4,12.25-74.91,15.2-82.89,16.82-84.13,17.07-78.62,15.95L947,809.81l-47.27,9.59q-10.75,2.18-21.51,4.36c-2.31.46-4.62,0.87-7,1.2l9.18-1.23a92.45,92.45,0,0,1-24.09.09l9.18,1.23a80.58,80.58,0,0,1-19.78-5.41l8.25,3.48a75.06,75.06,0,0,1-15.51-9l7,5.4A73.61,73.61,0,0,1,832.88,807l5.4,7a76.27,76.27,0,0,1-9.67-16.53l3.48,8.25a84.49,84.49,0,0,1-5.55-20.52l1.23,9.18c-1.82-14-.83-28.58-0.83-42.62V696.13a172.46,172.46,0,0,1,.83-21.33L826.55,684a113.6,113.6,0,0,1,7.9-28.78L831,663.46a127.82,127.82,0,0,1,15.84-27l-5.4,7a131.7,131.7,0,0,1,23-23.13l-7,5.4a122.89,122.89,0,0,1,26.15-15.42l-8.25,3.48c14.55-6.11,30.41-8.43,45.8-11.55l57.7-11.71c5.95-1.21,11.9-2.57,17.91-3.43l-9.18,1.23a92.46,92.46,0,0,1,24.09-.09l-9.18-1.23a80.58,80.58,0,0,1,19.78,5.41l-8.25-3.48a75.05,75.05,0,0,1,15.51,9l-7-5.4A73.61,73.61,0,0,1,1035.18,605l-5.4-7a76.26,76.26,0,0,1,9.67,16.53l-3.48-8.25a84.49,84.49,0,0,1,5.55,20.52l-1.23-9.18c1.68,12.84.83,26.22,0.83,39.13v67.68a35.64,35.64,0,0,0,10.12,24.42c6,6,15.82,10.5,24.42,10.12,8.93-.4,18.2-3.33,24.42-10.12s10.12-15.07,10.12-24.42V656.13c0-8.65,0-17.3,0-26a121.41,121.41,0,0,0-5-35.09c-4.57-14.72-11.63-27-21.14-38.88a98.23,98.23,0,0,0-26.68-22.69,101.66,101.66,0,0,0-33.66-12.73,139.87,139.87,0,0,0-23.29-2.45c-8.08,0-16.16,1.15-24.11,2.41-3.06.48-6.1,1.14-9.14,1.76l-77.68,15.76c-10.73,2.18-21.3,4.25-31.5,8.44a162.27,162.27,0,0,0-38.89,22,146.5,146.5,0,0,0-26.52,25.83,185.8,185.8,0,0,0-14.21,20.05,179.47,179.47,0,0,0-10.52,22.23c-5.31,12.79-7.77,25.81-9.33,39.54-1.06,9.32-.64,18.86-0.64,28.22q0,37.92,0,75.84c0,21.19,4.77,42.57,15.66,60.9a107.72,107.72,0,0,0,61.23,47.59c20.07,6.16,41.19,5.55,61.57,1.49L903.4,889l38.4-7.79,63.49-12.88,80.77-16.38,89.47-18.15L1265,815.65l81.84-16.6,65.27-13.24,40.9-8.3c18.22-3.7,35.72-9.14,51.94-18.72,45.36-26.79,77.12-77.16,77.3-130.35,0.08-23.91,0-47.83,0-71.74V534.31a35.64,35.64,0,0,0-10.12-24.42c-6-6-15.82-10.5-24.42-10.12-8.93.4-18.2,3.33-24.42,10.12s-10.12,15.07-10.12,24.42h0Z" transform="translate(0)"/><path class="cls-1" d="M1436.72,1295.1q2.89-.57,5.8-1l-9.18,1.23a84,84,0,0,1,22-.06l-9.18-1.23a73.51,73.51,0,0,1,17.31,4.68l-8.25-3.48a68.09,68.09,0,0,1,14.91,8.66l-7-5.4a66.94,66.94,0,0,1,11.5,11.57l-5.4-7a69.54,69.54,0,0,1,8.4,14.44l-3.48-8.25a76.72,76.72,0,0,1,5.11,18.76l-1.23-9.18c1.67,12.7.76,26,.76,38.74v50.74a155.29,155.29,0,0,1-.76,19.34l1.23-9.18a103.35,103.35,0,0,1-7.28,26.33l3.48-8.25a116.33,116.33,0,0,1-14.59,24.71l5.4-7a119.91,119.91,0,0,1-20.39,20.46l7-5.4a111.82,111.82,0,0,1-23.9,14.17l8.25-3.48c-9.36,3.95-19,5.93-28.82,7.93l-35.19,7.14-54.79,11.11-67.9,13.78-75.48,15.31-76.61,15.54-71.58,14.52-60.39,12.25-42.9,8.7q-9.82,2-19.64,4c-2.11.43-4.23,0.8-6.37,1.1l9.18-1.23a84,84,0,0,1-22,.06l9.18,1.23a73.5,73.5,0,0,1-17.31-4.68l8.25,3.48a68.09,68.09,0,0,1-14.91-8.66l7,5.4a66.94,66.94,0,0,1-11.5-11.57l5.4,7a69.54,69.54,0,0,1-8.4-14.44l3.48,8.25a76.73,76.73,0,0,1-5.11-18.77l1.23,9.18c-1.67-12.7-.76-26-0.76-38.74v-50.74a155.31,155.31,0,0,1,.76-19.34l-1.23,9.18a103.36,103.36,0,0,1,7.28-26.33l-3.48,8.25a116.31,116.31,0,0,1,14.59-24.71l-5.4,7a119.9,119.9,0,0,1,20.39-20.46l-7,5.4a111.82,111.82,0,0,1,23.9-14.17l-8.25,3.48c13.33-5.62,27.86-7.74,42-10.6L997,1384.31c5.45-1.11,10.91-2.36,16.43-3.14l-9.18,1.23a84,84,0,0,1,22-.06l-9.18-1.23a73.49,73.49,0,0,1,17.31,4.68l-8.25-3.48A68.08,68.08,0,0,1,1041,1391l-7-5.4a66.93,66.93,0,0,1,11.5,11.57l-5.4-7a69.54,69.54,0,0,1,8.39,14.44l-3.48-8.25a76.73,76.73,0,0,1,5.11,18.76l-1.23-9.18c1.55,11.77.76,24,.76,35.87v61.3a35.64,35.64,0,0,0,10.12,24.42c6,6,15.82,10.5,24.42,10.12,8.93-.4,18.2-3.33,24.42-10.12s10.12-15.07,10.12-24.42v-66.77c0-8.69.43-17.56-.3-26.24a118.29,118.29,0,0,0-11.7-43.47,89.29,89.29,0,0,0-20.74-27.29,105.12,105.12,0,0,0-73.32-26.74c-12.69.46-25.13,3.29-37.53,5.8q-35.36,7.17-70.72,14.35c-22.77,4.64-42.79,16-60.68,30.43C822.9,1380,807.83,1403.6,799,1428.75c-5.31,15.08-6.78,31.15-6.78,47v74.68c0,3.38,0,6.76.16,10.14a130.52,130.52,0,0,0,3.37,23.25c1.76,7.11,4.73,13.92,7.75,20.57a89.2,89.2,0,0,0,20.56,28c10.94,10.06,22.7,16.73,36.54,21.89a70.41,70.41,0,0,0,13.23,3.5c7.44,1.22,15,2.32,22.61,2.22a141.42,141.42,0,0,0,25.59-3c7.43-1.48,14.86-3,22.29-4.52l52.29-10.61,72.52-14.71,84.79-17.2,87.09-17.67,80.68-16.37,65.22-13.23,40.73-8.26,8.38-1.7a129.62,129.62,0,0,0,44.09-18.22c40.82-26.57,67.84-71.53,67.84-120.7v-74c0-13.85-.4-27.75-4.34-41.17-7.3-24.89-23.91-47.13-46.73-59.82a102.77,102.77,0,0,0-36.87-12c-14.22-1.91-27.44-1.14-41.62,1.66-8.14,1.6-16.57,8.92-20.64,15.87-4.33,7.4-6.17,18.32-3.48,26.62s7.88,16.42,15.87,20.64c8.56,4.52,17.09,5.36,26.62,3.48h0Z" transform="translate(0)"/><path class="cls-1" d="M1289.61,352.77l-41.08,8.33-98.62,20L1031,405.23,928.29,426.07c-16.64,3.38-33.36,6.47-49.94,10.13l-0.71.14c-8.15,1.65-16.55,8.88-20.64,15.87-4.33,7.4-6.17,18.32-3.48,26.62s7.88,16.42,15.87,20.64C877.93,504,886.5,504.88,896,503l41.08-8.33,98.62-20L1154.6,450.5l102.73-20.84c16.64-3.38,33.36-6.47,49.94-10.13l0.71-.14c8.15-1.65,16.55-8.88,20.64-15.87,4.33-7.4,6.17-18.32,3.48-26.62s-7.88-16.42-15.87-20.64c-8.54-4.51-17.11-5.41-26.62-3.48h0Z" transform="translate(0)"/><circle class="cls-1" cx="1401.79" cy="365.18"/><path class="cls-1" d="M1401.79,399.72a35.64,35.64,0,0,0,24.42-10.12c6-6,10.5-15.82,10.12-24.42-0.4-8.93-3.33-18.2-10.12-24.42s-15.07-10.12-24.42-10.12a35.64,35.64,0,0,0-24.42,10.12c-6,6-10.5,15.82-10.12,24.42,0.4,8.93,3.33,18.2,10.12,24.42S1392.43,399.72,1401.79,399.72Z" transform="translate(0)"/><path class="cls-1" d="M2283.53,831h-69.85v5.43q-12.71-39.88-28.4-78.61-18.54-45.72-41.25-89.75l3.7,3.7,49.39-49.4A1043.89,1043.89,0,0,0,1717.68,143l-49.39,49.39,3.7,3.7q-43.95-22.66-89.75-41.25-38.67-15.68-78.62-28.41h5.44V56.58a1043.83,1043.83,0,0,0-678,0v69.85h5.43q-39.89,12.71-78.62,28.4-45.73,18.54-89.76,41.26l3.71-3.71L622.42,143A1043.86,1043.86,0,0,0,143,622.42l49.39,49.39,3.71-3.71q-22.67,43.95-41.26,89.76-15.68,38.67-28.4,78.61V831H56.58a1043.86,1043.86,0,0,0,0,678h69.85v-5.43q12.71,39.89,28.4,78.61Q173.38,1628,196.09,1672l-3.7-3.7L143,1717.69a1043.84,1043.84,0,0,0,479.42,479.42l49.39-49.39-3.7-3.7q43.95,22.66,89.75,41.25,38.67,15.68,78.61,28.4H831v69.85a1043.84,1043.84,0,0,0,678,0v-69.85h-5.44q39.89-12.71,78.61-28.4Q1628,2166.73,1672,2144l-3.71,3.71,49.4,49.39a1043.85,1043.85,0,0,0,479.42-479.43l-49.39-49.39-3.7,3.7q22.66-43.95,41.25-89.75,15.68-38.67,28.4-78.61v5.43h69.85A1043.83,1043.83,0,0,0,2283.53,831Zm-139.82,528.48a991.83,991.83,0,0,1-54.46,183.77c-49.88,123-123.18,233.38-217.88,328.07s-205.07,168-328.07,217.88a994.85,994.85,0,0,1-746.49,0c-123-49.88-233.38-123.18-328.07-217.87s-168-205.07-217.88-328.07a994.86,994.86,0,0,1,0-746.49c49.88-123,123.18-233.38,217.87-328.07s205.07-168,328.07-217.87a994.87,994.87,0,0,1,746.49,0c123,49.88,233.38,123.18,328.07,217.87s168,205.07,217.87,328.07A996.18,996.18,0,0,1,2143.71,1359.53Z" transform="translate(0)"/></svg>