<svg viewBox="0 0 1216.72 332.14" xmlns="http://www.w3.org/2000/svg"><g fill="#fff"><path d="m421.94 93.19c3.77-5.6 7.39-10.98 11.14-16.54-1.67-1.67-3.2-3.2-4.73-4.72-2.35-2.34-4.73-4.65-7.05-7.03-1.54-1.58-1.53-1.95.04-3.58 2.16-2.24 4.38-4.42 6.57-6.63 6.22-6.25 12.44-12.5 18.66-18.75.79-.79 1.63-1.54 2.7-2.53 4.27 4 8.39 7.87 12.66 11.88 5.95-3.76 11.7-7.4 17.63-11.15-3.19-4.78-6.22-9.33-9.44-14.15.9-.73 1.71-1.48 2.6-2.11 9-6.37 19.14-10.26 29.61-13.42 1.49-.45 2.98-.9 4.48-1.28 2.92-.73 3.41-.46 4.16 2.43.96 3.71 1.84 7.44 2.77 11.16.14.58.38 1.13.63 1.88 6.87-2.04 13.78-2.2 20.95-1.62v-16.86c6.05-.56 11.89.42 17.73.53 5.88.11 11.76.57 17.93.9v14.96c6.91.95 13.55 1.87 20.51 2.83.67-3.33 1.3-6.45 1.92-9.56.44-2.24.87-4.47 1.28-6.72.24-1.34.99-1.73 2.23-1.27.68.25 1.35.53 2.02.81 11.2 4.65 22.4 9.3 33.6 13.94.38.16.78.28 1.16.46 2.11.99 2.31 1.45 1.1 3.55-1.86 3.24-3.82 6.41-5.72 9.62-.47.8-.92 1.61-1.56 2.75 2.97 1.74 5.92 3.39 8.79 5.17 2.81 1.75 5.54 3.62 8.55 5.61.84-.89 1.69-1.76 2.5-2.65 2.65-2.92 5.28-5.85 7.92-8.78 1.49-1.65 1.88-1.7 3.49-.16 2.25 2.15 4.44 4.37 6.65 6.55 6.64 6.56 13.29 13.12 19.91 19.7 2.28 2.27 2.3 2.52.08 4.74-2.57 2.57-5.2 5.07-7.83 7.57-.67.63-1.44 1.14-2.24 1.77 3.89 5.83 7.5 11.23 11.32 16.96-.64.6-1.22 1.28-1.92 1.79-4.72 3.39-9.45 6.75-14.2 10.09-2.35 1.65-2.71 1.58-4.43-.91-5.27-7.61-11.12-14.74-17.7-21.24-19.58-19.35-42.63-32.48-69.63-38.29-54.62-11.77-108.92 12.6-135.17 62.51-.19.37-.36.75-.57 1.11-1 1.75-1.36 1.86-3.15.77-1.5-.92-2.95-1.93-4.42-2.9-3.64-2.39-7.29-4.77-10.92-7.17-.84-.56-1.6-1.22-2.61-2z"/><path d="m539.79 316.58c-7.08-1.2-13.89-2.35-21.04-3.56-1.27 5.54-2.56 11.14-3.92 17.02-1.07-.21-1.89-.25-2.6-.54-11.53-4.66-23.05-9.36-34.57-14.06-.64-.26-1.19-.72-1.98-1.19 2.35-4.85 4.63-9.57 6.96-14.4-5.6-3.79-11.08-7.48-16.79-11.35-2.93 2.65-5.83 5.29-8.74 7.93-4.86 4.41-4.33 4.54-8.95-.26-7.48-7.77-15-15.51-22.49-23.28-.76-.79-1.44-1.67-2.25-2.61 4.12-3.91 8.02-7.6 12.08-11.45-.75-1.11-1.47-2.09-2.09-3.12-1.86-3.11-3.71-6.22-5.51-9.37-.8-1.4-.47-2.51.98-3.37 5-2.95 9.98-5.94 14.96-8.94 1.21-.73 2.17-.48 2.96.61.55.76 1.04 1.55 1.57 2.32 19.88 28.94 46.94 47.39 81.29 54.69 50.78 10.79 103.54-11.11 132.23-54.53 1.14-1.73 2.19-3.52 3.31-5.27 1.39-2.17 2.01-2.34 4.27-.94 4.85 3.01 9.68 6.04 14.49 9.1 2.42 1.54 2.56 2.21.95 4.75-1.83 2.89-3.75 5.72-5.63 8.58-.39.6-.75 1.22-1.19 1.95.59.67 1.08 1.31 1.65 1.87 2.74 2.69 5.51 5.35 8.26 8.03q3 2.93.15 5.83c-7.8 7.9-15.61 15.79-23.41 23.68-.36.37-.73.74-1.1 1.1-1.76 1.65-2.29 1.7-4.21.12-2.8-2.31-5.55-4.69-8.32-7.03-.87-.73-1.76-1.44-2.91-2.38-5.55 3.33-11.11 6.67-17.05 10.23 3.34 4.81 6.55 9.45 9.96 14.36-.85.56-1.44 1.1-2.14 1.4-11.78 5.14-23.57 10.27-35.37 15.37-2.52 1.09-2.84.92-3.58-1.9-1.18-4.51-2.29-9.03-3.52-13.92-6.52.76-12.96 1.5-19.77 2.29v8.78c0 1.76.05 3.53.03 5.29-.03 2.35-.51 2.87-2.86 3.16-.51.06-1.04.06-1.55.07-9.44.17-18.88.34-28.33.49-3.08.05-3.28-.19-3.46-3.34-.23-4.12-.51-8.23-.76-12.22z"/><path d="m1020.86 217.61c-1.18.12-1.78.23-2.39.23-9.34.05-18.68.1-28.02.12-3.05 0-3.15-.1-3.18-3.14-.13-11.92-.22-23.85-.34-35.77-.21-21.46-.43-42.92-.62-64.39-.04-4.58 0-4.56 4.66-4.59 7.58-.05 15.15-.12 22.73-.18 5.17-.04 5.29.07 5.29 5.12v35.46 3.58h11.96c.47-4.63.08-9.25.06-14.23 5.05-.6 10.01.04 15.34-.39 0-1.27.01-2.48 0-3.69-.05-3.11-.14-6.22-.15-9.33 0-2.02.28-2.34 2.34-2.39 2.9-.08 5.81-.03 8.72-.03h3.79c0-1.55 0-2.85 0-4.15 0-2.9-.06-5.81.03-8.71.08-2.47.5-2.86 3-2.84 4.46.04 8.92.18 13.38.28 4.88.11 9.75.18 14.63.33 2.78.08 2.97.28 3.03 3.08.08 3.94.12 7.88.12 11.82 0 3.52-.26 3.7-3.68 3.66-3.71-.05-7.41-.01-11.15-.01 0 2.49-.03 4.95.01 7.4.03 1.86.23 3.73.24 5.59 0 2.39-.3 2.75-2.63 2.82-3.01.09-6.02.03-9.03.03-1.13 0-2.26 0-3.75 0-.05 1.39-.14 2.59-.11 3.79.07 2.69.21 5.39.3 8.08.08 2.31-.29 2.82-2.59 2.81-3.53-.01-7.05-.2-10.58-.3-.52-.02-1.03 0-1.99 0-.25 3.73-.13 7.38-.05 11.38h15.04c.89 5.14-.09 9.96 0 15.23h15.35c.69 4.41-.16 8.42.14 12.66.83.1 1.61.26 2.39.27 3.22.02 6.44-.07 9.65 0 2.2.04 2.76.6 2.79 2.81.06 4.98.06 9.95 0 14.93-.02 1.94-.43 2.26-2.42 2.42-.41.03-.83.02-1.25.02-13.8.13-27.61.26-41.41.38-.62 0-1.25-.02-1.87 0-1.54.04-2.24-.67-2.3-2.24-.13-3.42-.35-6.83-.54-10.25-.04-.72-.11-1.43-.18-2.38-2.62 0-5.17.05-7.72 0-6.63-.15-5.78.12-5.86-6.02-.03-2.69-.05-5.39-.09-8.08 0-.19-.14-.37-.29-.71h-11.68c.29 9.93.58 19.59.87 29.54z"/><path d="m183.95 111.34c.22 4.87.42 9.49.64 14.49 1.28.07 2.47.19 3.66.18 2.39 0 4.77-.13 7.16-.11 2.51.03 2.82.31 3.08 2.85.32 3.09.53 6.2.81 9.29.06.6.24 1.19.41 1.99 2.73.18 5.4.37 8.08.54 1.04.07 2.08.05 3.11.15 2.44.24 2.79.62 2.88 3.1.21 5.39.4 10.77.6 16.16.31 8.08.62 16.16.93 24.24.03.83.08 1.66.08 2.49-.01 2.48-.41 2.96-2.83 3.02-3.01.06-6.02-.01-9.03-.03-1.01 0-2.02 0-3.33 0 0 1.09-.04 1.89 0 2.68.22 3.31.49 6.61.7 9.92.12 1.89-.11 2.17-2.04 2.19-3.22.04-6.43-.03-9.65-.05-1.01 0-2.01 0-3.45 0v7.1c0 1.76.02 3.53 0 5.29-.05 3.18-.35 3.47-3.65 3.55-2.08.05-4.15.06-6.23.09-20.96.34-41.92.69-62.89 1.03-1.14.02-2.29.07-3.42-.02-2.43-.17-2.84-.64-2.88-3.04-.14-7.77-.29-15.55-.43-23.32-.47-25.5-.94-51-1.42-76.5-.03-1.55-.2-3.11-.21-4.66-.03-2.73.3-3.08 3-3.08 7.99 0 15.99.03 23.98.09 13.28.1 26.57.25 39.85.37 3.93.03 7.87 0 12.49 0zm-16.36 33.19c-.86-5.13-.05-10.01-.76-14.89-9.71.2-19 .4-28.68.6.69 23.71 1.38 47.17 2.07 71.02 9.05.23 17.81.46 26.76.68v-14.91c4.89-.13 9.59-.26 14.58-.39-.27-13.98-.54-27.68-.8-41.42-4.65-.25-8.86-.47-13.17-.7z"/><path d="m423.89 188.24h-40.73c-.07 1.12-.19 2.12-.17 3.12.14 7.25.3 14.51.46 21.76.02.83.09 1.66.05 2.49-.09 1.95-.38 2.33-2.42 2.44-3 .17-6.01.26-9.02.27-7.56.04-15.13.01-23.06.01-.1-.75-.3-1.61-.33-2.49-.3-12.12-.57-24.25-.87-36.37-.3-12.02-.61-24.04-.94-36.05-.03-1.11-.25-2.21-.43-3.68 2.73-.64 5.39-.19 8.02-.21 2.67-.02 5.35 0 8.14 0 .52-5.08-.31-9.94.48-15.04h14.69v-15.63c4.15-.74 8.05.04 11.92 0 3.94-.04 7.89.05 11.83.13s7.88.2 11.82.31c3.92.1 7.84.2 12.07.31.37 4.53.72 8.83 1.1 13.55h6.88c1.56 0 3.11-.02 4.67 0 3.25.06 3.57.39 3.72 3.55.14 3 .27 6 .43 9 .03.5.13 1 .25 1.87 1.89.04 3.72.1 5.54.12 1.97.02 3.95-.05 5.91.04 1.94.09 2.3.47 2.44 2.45.11 1.55.09 3.11.12 4.66.41 20.21.83 40.41 1.22 60.62.06 3.3 0 6.59 0 10.19-1.1.09-2.1.23-3.1.24-8.61.04-17.23.07-25.84.08-3.41 0-3.77-.27-3.91-3.67-.29-7.04-.47-14.09-.7-21.13-.03-.91-.15-1.82-.25-2.95zm-15.32-60.92c-4.03-.42-7.79-.03-11.74.16v15.44c-4.97-.19-9.74-.37-14.78-.57.48 9.18.26 17.93 1.14 26.61h40.95c-.27-8.98-.53-17.71-.8-26.74-3.22-.09-6.11-.13-8.99-.26-5.37-.24-5.68.95-5.77-5.94-.04-2.79 0-5.58 0-8.71z"/><path d="m698.91 114.4c1.12-.13 2-.32 2.89-.33 9.13-.08 18.26-.14 27.4-.17 3.38-.01 3.73.34 3.79 3.75.33 16.68.62 33.37.97 50.05.35 16.99.76 33.99 1.13 50.98.02 1.11-.1 2.22-.18 3.66-11.08.45-21.9.43-32.91.34-.53-15.09-1.05-29.75-1.58-44.73h-41.54c.24 14.92.49 29.8.74 44.91-1.17.23-2.05.55-2.93.56-9.34.08-18.68.1-28.02.13-.3 0-.6-.14-1.12-.27-.08-.63-.21-1.31-.23-1.99-.56-19.79-1.12-39.58-1.67-59.36-.37-13.16-.71-26.31-1.12-39.47-.06-2.01-.39-4.02-.64-6.46.55-.08 1.4-.31 2.25-.31 9.55-.02 19.09-.03 28.64 0 3 0 3.14.16 3.17 3.18.09 12.13.17 24.26.24 36.39v3.98c14.16.27 28-.42 41.8-.52.64-2.32-.25-39.87-1.09-44.33z"/><path d="m823.65 127.1h8.83c.93 0 1.87-.03 2.8.01 2.71.12 3.06.44 3.15 3.08.09 2.8.1 5.6.17 8.4.02.81.13 1.62.24 2.86h14.24c.15 1.02.3 1.62.32 2.22.27 11.81.51 23.63.78 35.44.27 12.02.57 24.04.85 36.06.01.62.01 1.24.04 1.87.08 1.57-.86 2.24-2.23 2.48-.61.11-1.24.09-1.86.1-8.4.21-16.8.41-25.21.61-1.32.03-2.64 0-4.24 0v-28.17h-41.57c-.06.79-.18 1.67-.18 2.54 0 7.88.02 15.76 0 23.64 0 3.21-.19 3.43-3.28 3.49-8.4.16-16.81.26-25.22.38-.31 0-.62.01-.93 0-2.54-.14-3.12-.63-3.2-3.17-.16-4.97-.23-9.95-.3-14.92-.14-9.02-.25-18.04-.37-27.06-.13-9.74-.27-19.49-.4-29.23 0-.41-.03-.83-.03-1.24.03-2.67.33-2.95 3.14-2.87 2.59.07 5.19.18 7.78.25.92.03 1.84 0 3.05 0v-15.38h14.63v-15.28c1.13-.15 2.11-.38 3.09-.38 14.12-.03 28.23-.04 42.35-.02 3.06 0 3.51.49 3.55 3.69.04 3.31 0 6.62 0 10.6zm-18.14 19.05c-.23-5.2-.46-10.2-.68-15.3h-11.24v15.38c-5.38-.18-10.37-.35-15.63-.52.28 9.09.54 17.73.8 26.32 6.02.74 39.32.18 42.11-.73-.24-8.26-.48-16.59-.73-25.15z"/><path d="m1121.97 156.72c-3.58-.12-7.08-.27-10.58-.34-4.58-.1-4.63-.07-4.74-4.66-.2-8.81-.36-17.62-.47-26.43-.04-3.17.16-3.29 3.35-3.36 2.59-.06 5.19-.1 7.78-.19 1.01-.04 2.01-.19 3.1-.3v-13.84c1.2-.13 2.28-.34 3.37-.36 11.62-.16 23.25-.29 34.87-.44 12.97-.16 25.94-.33 38.92-.48.92-.01 1.83.08 3.12.14.28 4.76.56 9.36.85 14.27 3.01.15 5.87.25 8.73.44 5.44.36 5.58-1.14 5.57 5.65 0 3.73.04 7.47 0 11.2-.03 2.41-.27 2.68-2.71 2.69-9.24.02-18.48 0-27.71-.05-2.72-.02-3.2-.55-3.23-3.35-.04-3.51 0-7.02 0-10.95-14.14-.24-27.89.18-41.59.15-.69 2.26-.17 22.05.66 25.25 19.64-.19 39.33-.38 59.06-.56 1.06 2.51.67 4.92.86 7.25.19 2.26.35 4.52.55 7.17 3.21.16 6.38.33 9.55.47.93.04 1.87.04 2.8.01 1.55-.04 2.27.78 2.38 2.25.02.31.03.62.03.93.09 9.23.18 18.46.25 27.68 0 .81-.12 1.63-.2 2.63-4.83 1.16-9.73.56-14.91 1.13-.03 1.19-.12 2.39-.08 3.58.09 2.59.22 5.18.39 7.76.18 2.86-.11 3.26-3.01 3.33-6.33.14-12.66.23-18.99.32-17.75.27-35.49.53-53.24.8-.62 0-1.25.04-1.87 0-1.87-.13-2.37-.55-2.41-2.48-.06-3.11.03-6.22.03-9.33 0-1.01-.08-2.02-.13-3.12-3.38 0-6.56 0-9.74 0q-5.01 0-5.05-4.96c-.03-3.53-.08-7.05-.08-10.58 0-1.12.15-2.23.25-3.6 1.07-.11 1.95-.29 2.84-.29 8.82-.01 17.65-.01 26.47.01 3.37 0 3.49.14 3.73 3.44.27 3.7.52 7.39.79 11.16h41.86c-.23-8.86-.44-17.4-.67-26.31-1.47 0-2.68-.02-3.9 0-15.98.26-31.96.53-47.94.78-1.97.03-3.94.07-5.92.03-2.3-.05-2.5-.24-2.56-2.49-.09-3.21-.09-6.43-.15-9.64-.01-.71-.14-1.41-.25-2.44z"/><path d="m259.03 174.5c.45 8.78.87 17.21 1.32 26.07 25.61-.19 50.98-.37 76.7-.56.13 3.46.26 6.65.36 9.84.05 1.76.09 3.53.07 5.29-.02 2.35-.28 2.6-2.71 2.73-.93.05-1.87.03-2.8.04-28.43.44-56.87.86-85.3 1.32-5.19.08-10.37.31-15.56.38-2.98.04-3.21-.25-3.25-3.16-.3-20.84-.58-41.68-.89-62.52-.19-12.96-.41-25.92-.64-38.88-.02-1.12-.25-2.24-.44-3.81 1.03-.16 2.07-.43 3.11-.45 6.75-.12 13.49-.18 20.24-.27 14.43-.2 28.85-.42 43.27-.62 12.87-.18 25.74-.35 38.61-.52 3.31-.04 3.69.33 3.71 3.76.02 4.04 0 8.09-.05 12.13-.03 3.43-.08 3.48-3.5 3.48-19.62 0-39.24 0-58.86 0-3.63 0-7.27 0-10.9.02-.5 0-.99.12-1.88.23.26 8.85.51 17.59.78 26.6h59.3c.2 6.03.39 11.87.6 18.08-10.23.7-20.36.44-30.47.56-10.14.12-20.29.17-30.81.25z"/><path d="m961.06 218.31c-4.39.25-8.2.54-12.01.66-16.08.51-32.16.96-48.24 1.43-.42.01-.83 0-1.24.04-1.55.12-2.33-.61-2.41-2.13-.18-3.21-.34-6.42-.55-9.62-.08-1.32-.25-2.64-.38-3.86-3.87 0-7.47 0-11.08 0-3.02 0-3.14-.07-3.25-3.1-.14-3.61-.22-7.23-.34-11.21-2.1-.04-4.02-.09-5.95-.11-1.76-.02-3.53.03-5.29-.02-2.76-.07-3.51-.81-3.6-3.51-.22-6.94-.42-13.89-.62-20.83-.21-7.05-.4-14.1-.6-21.14-.01-.41-.03-.83-.02-1.24.07-2.53.39-2.9 2.89-2.91 3.22-.01 6.44.06 9.65.06.91 0 1.81-.12 2.87-.19.36-4.56-.85-8.96-.13-13.55 5.11-.21 10.05-.41 15.26-.62-.18-5.05-.34-9.85-.52-15.04 20.97-.27 41.47-.54 62.34-.81.25 2.41.53 4.62.7 6.84.18 2.25.26 4.5.41 7.17 3.88 0 7.4-.06 10.92.02 3.04.07 3.21.19 3.37 3.16.24 4.55.35 9.12.39 13.68.02 2.32-.42 2.74-2.72 2.81-8.82.25-17.64.48-26.46.64-2.78.05-3.22-.45-3.36-3.22-.21-4.13-.39-8.26-.6-12.64-9.07-.42-17.92.4-26.94.42v15.33c-4.79.91-9.55-.34-14.65.39.2 13.57.41 27.1.61 41.03 4.92.31 9.71.61 14.54.92.35 4.15.66 7.86 1.01 11.94 8.55.65 17.1.54 25.93.61.09-1.09.23-1.97.23-2.85-.03-3.53-.09-7.05-.19-10.58-.04-1.34.23-2.15 1.86-2.13 8.82.12 17.64.16 26.46.23.83 0 1.66 0 2.49.03 1.52.04 2.23.84 2.29 2.35.2 4.45.48 8.9.64 13.36.09 2.61-.2 2.86-2.77 2.91-2.91.06-5.81.04-8.72.08-1.02.01-2.04.11-3.37.18.38 4.99.74 9.79 1.14 15.03z"/><path d="m92.18 112.29c.17 2.75.36 5.1.44 7.46.1 2.69.05 5.39.15 8.08.06 1.57-.55 2.31-2.15 2.3-1.87-.01-3.73.04-5.6.09-7.15.19-14.3.38-21.4.58-.67 2.13.24 66.92.99 71.94 3.09.65 6.28.22 9.44.29 3.32.07 6.64-.03 9.96-.04h9.78c.13.74.33 1.41.37 2.1.23 4.24.48 8.48.61 12.73.1 3.39-.24 3.66-3.73 3.68-10.17.07-20.34.12-30.51.2-18.47.14-36.94.29-55.41.42-4.07.03-4.08 0-4.27-4.06-.18-4.04-.34-8.07-.49-12.11-.03-.8 0-1.61 0-2.85 10.08-.23 19.87.75 30.08.3-.35-23.84-.69-47.51-1.05-71.47-1.28-.08-2.29-.19-3.29-.2-7.37-.09-14.73-.17-22.1-.25-.83 0-1.7.13-2.47-.09-.58-.17-1.46-.79-1.47-1.23-.09-5.26-.06-10.52-.06-16.21 30.6-.55 61.23-1.1 92.17-1.66z"/><path d="m536.16 212.53c-1.79-4.26-3.37-8.08-5.01-11.88-3.53-8.19-7.48-16.17-12.07-23.84-3.13-5.24-6.19-10.57-8.76-16.1-4.8-10.34-6.69-21.41-5.95-32.71.78-11.82 5.77-21.95 14.51-30.07 7.37-6.85 16.36-10.54 26.06-12.36 13.97-2.62 27.3-.75 39.46 6.99 9.28 5.9 15.53 14.15 18.74 24.73 3.24 10.66 2.28 21.29.1 31.93-.7 3.44-1.76 6.82-2.68 10.22-1.88 6.94-4.7 13.46-8.27 19.72-2.67 4.67-4.83 9.62-7.22 14.45-2.67 5.39-5.34 10.77-7.99 16.16-.59 1.2-1.29 2.01-2.79 2.04-12.65.21-25.3.47-38.14.72zm-1.14-23.33c1.73-.29 3.3-.55 4.93-.82q-.73-1.69-2.73-2.06c-2.74-.51-2.87-.64-2.96-3.34-.02-.6.1-1.21.19-2.1 1.85-.16 3.64-.32 6.03-.54-.68-.91-.94-1.6-1.43-1.84-.62-.3-1.42-.24-2.14-.32-2.89-.32-3.39-.9-3.04-3.72.08-.67.44-1.3.73-2.13h5.05v-2.11c-.83-.09-1.53-.19-2.24-.23-.72-.05-1.46.02-2.18-.06-1.75-.2-2.22-.97-2.15-3.4.06-1.94.48-2.38 2.38-2.42 1.39-.03 2.78 0 4.96 0-.86-1.12-1.14-1.85-1.62-2.01-.76-.25-1.64-.11-2.47-.14-2.79-.08-3.21-.51-3.04-3.32.04-.69.27-1.38.48-2.39 14.25-.3 28.41-.6 42.36-.89 1.14 2.07 1.36 3.8.63 5.51-.65 1.54-2.29 1.11-3.49 1.58-.46.18-.72.86-1.36 1.67 1.51.19 2.41.32 3.32.42 1.65.19 1.92 1.34 1.89 2.69s-.33 2.5-2 2.61c-.83.06-1.69.03-2.47.26-.47.14-.81.71-1.21 1.09.45.45.83 1.06 1.37 1.29.53.23 1.23.05 1.85.08 2.24.13 2.63.44 2.72 2.11.12 2.28-.46 2.97-2.74 3.24-.95.11-1.9.22-3.1.36q1.18 1.45 2.99 1.54c3.28.17 3.47.36 3.48 3.66 0 .68-.19 1.37-.32 2.26-2.14.19-4.15.36-6.07.53-.42 1.88.16 2.69 1.83 2.62.41-.02.83-.04 1.25-.01 2.39.14 2.89.65 2.87 3.03 0 .71-.17 1.41-.3 2.36-3.51.19-6.95.37-10.24.54v11.48c.82.11 1.33.17 1.83.25 2.44.4 4.03-.37 5.07-2.83 2.06-4.86 4.48-9.57 6.61-14.41.91-2.06 2.03-4.26 2.1-6.43.19-5.48-.16-10.97-.28-16.46-.03-1.5-.57-2.62-2.07-3.11-1.52-.5-2.03-1.71-2.13-3.12-.08-1.13-.04-2.28.05-3.41.11-1.38.14-2.59-1.24-3.55-1.29-.89-1.16-2.34-.71-3.69.47-1.43 1.47-2.22 3.01-2.25.7-.01 1.39 0 2.29 0-.22-.55-.33-.94-.52-1.28-2.68-4.81-.41-7.79 3.23-10.21 2.16-1.44 4.91-1.19 6.99.38 4.53 3.41 4.72 8.73.44 12.45-1.91 1.66-1.82 3.99.21 5.36 1 .68 2.01 1.35 3.18 2.13.25-.57.58-1.08.71-1.65 1.07-4.64 2.44-9.24 3.06-13.94 1.45-10.95-1.2-20.97-7.61-30.01-1.12-1.57-2.31-2.47-4.34-2.32-2.27.17-4.57.04-6.85.04-2.83 0-5.55-.42-8.13-1.74-.87-.45-1.98-.54-2.99-.59-1.66-.08-3.33.16-4.98 0-1.19-.12-2.44-.47-3.48-1.04-2.48-1.37-4.26-1.17-6.16.95-2.46 2.75-5.83 3.33-8.97 1.34-1.19-.75-2.15-1.88-3.23-2.86q-4.36.54-6.66 3.66c.83.42 1.69.78 2.48 1.26 5.5 3.36 5.44 10.78-.08 14.1-4.08 2.46-9.27 1.59-12.41-2.08-.47-.55-.84-1.32-1.44-1.58-3.19-1.38-6.44-2.63-9.8-3.97-.55 1.34-1.04 2.37-1.39 3.44-2.74 8.26-3.29 16.62-1.07 25.1 2.12 8.09 5.69 15.55 9.64 22.86 3.05 5.65 6.27 11.22 9.05 17 2.02 4.19 3.39 8.68 5.15 13 1.32 3.24 2.78 6.42 4.1 9.45h5.45v-11c-1.36-.13-2.38-.21-3.41-.32-1.14-.11-2.27-.25-3.4-.35-3.24-.28-3.57-.63-3.51-3.76 0-.51.1-1.02.19-1.93zm10.33-27.17v27.17c6.97-.2 13.54-.4 20.06-.59v-26.59h-20.06zm36.91-59.52.54-.75c-.45-.24-.94-.43-1.35-.73-4.09-3.06-8.5-5.57-13.26-7.41-4.84-1.88-9.73-3.6-15.09-2.62-1.43.26-2.87.39-4.31.61-6.93 1.05-13.59 2.83-19.42 6.97-.56.39-1.22.64-1.83.95.23.36.46.71.69 1.07 1.45-.3 3.17-.2 4.27-.99 1.41-1.02 2.75-1.29 4.33-1.21 1.75.09 3.5.19 5.23.28.38-.51.66-.94.99-1.34 3.22-3.85 7.48-4.32 11.1-.87 1.47 1.4 2.81 1.66 4.68 1.53 1.59-.11 3.67-.11 4.74.79 1.58 1.34 3.15 1.21 4.87 1.39 2.04.2 4.32.15 6.03 1.07 2.57 1.37 5.08 1.53 7.77 1.29zm-29.83 92.83c.11 3.82-.07 7.25.34 10.7h7.32v-10.7h-7.65zm-19.61-74.68c2.01.02 3.82-1.7 3.87-3.68.05-2.07-1.78-3.93-3.94-4.01-1.96-.08-3.73 1.63-3.83 3.7-.1 2.06 1.75 3.96 3.91 3.98zm-3.06-13.05c-2.39 0-4.72.09-7.04-.03-2.13-.11-3.77.51-5.06 2.65 2.15 1.07 4.22 2.1 5.87 2.93 2.27-2.02 4.14-3.69 6.23-5.55zm57.58 38.18c1.92-.04 3.34-1.51 3.26-3.39-.07-1.8-1.63-3.34-3.43-3.37-1.81-.03-3.41 1.5-3.44 3.3-.04 1.9 1.64 3.51 3.61 3.47zm-35.02-44.58c.05-1.84-1.4-3.41-3.2-3.46-1.92-.06-3.53 1.56-3.51 3.5.03 1.84 1.53 3.33 3.34 3.31 1.79-.02 3.31-1.54 3.36-3.34zm30.81 57.33c4.54.89 5.18 4.07 4.97 7.78-.06 1.09.08 2.19.13 3.29l.67-.02c.08-2.45.14-4.89.24-7.33.07-1.74-.41-3.01-2.32-3.43-1.68-.37-2.27-1.58-2.29-3.21 0-.71-.18-1.42-.28-2.13l-.67.05c-.14 1.59-.28 3.17-.44 5.01z"/><path d="m576.14 250.77h-38.62c-.23-1.36-.59-2.55-.62-3.76-.23-9.83-.41-19.66-.59-29.49 0-.18.14-.37.22-.55 2.76-.93 37.63-1.54 40.42-.71.81 3.71.16 32.24-.81 34.51zm-35.04-3.11h32.12v-20.81c-3.46-.63-29.86-.5-32.12.16zm32.37-27.76h-32.73c.09 1.14.15 2 .21 2.75h32.52z"/><path d="m587.02 110.78v13c-.65.09-1.53.31-2.41.31-7.56-.05-15.12-.15-22.68-.24-.62 0-1.24-.04-1.86-.08-1.1-.08-1.68-.66-1.72-1.79-.11-3.1-.3-6.2-.34-9.3-.03-2.04.45-2.51 2.63-2.5 5.49.03 10.98.15 16.46.27 3.1.07 6.19.21 9.92.34zm-25.7 3.51c.2 2.02.39 3.9.59 5.91 7.41.18 14.48.36 21.81.54v-6.45h-22.41z"/><path d="m528.44 146.78c-2.11-.3-2.29-1.88-2.3-3.65-.01-2.8-.05-5.6-.2-8.39-.1-1.91.36-3.27 2.67-3.45v-4.66h4.32c.25 1.04.49 1.93.68 2.83.23 1.14-.17 2.54 1.62 2.95.39.09.74 1.2.76 1.86.14 3.41.17 6.83.21 10.25 0 .5 0 1.27-.29 1.47-1.59 1.04-1.45 2.6-1.51 4.14-.04 1.14-.73 1.73-1.83 1.61-2.2-.24-4.12-.31-3.97-3.55.02-.41-.08-.82-.15-1.41zm3.36-2.1c.09-3.33.2-6.4.24-9.48.02-1.07-.6-1.47-1.93-1.06-.19 3.27-.26 6.63.32 9.98.03.19.67.29 1.37.56z"/><path d="m517.72 126.29h4.29c.21.85.44 1.62.57 2.4.24 1.37-.11 2.97 1.87 3.47.32.08.56 1.04.59 1.61.14 3 .26 6 .26 9 0 1.39.23 2.9-1.22 3.95-.37.27-.33 1.14-.44 1.73-.16.88-.29 1.77-.46 2.8-1.16 0-2.07.05-2.98-.01-1.44-.1-2.24-.92-2.43-2.35-.17-1.29-.06-2.68-1.78-3.26-.4-.13-.62-1.25-.66-1.92-.16-3.41-.18-6.83-.35-10.24-.09-1.87 1.18-2.16 2.73-2.46v-4.73zm1.65 18.23c.93-.33 1.43-.41 1.43-.52.15-3.17.29-6.34.28-9.52 0-.32-.94-.64-1.71-1.13v11.16z"/><path d="m562.38 182.43c-4.69-.25-8.88-.48-13.22-.71-.13-.9-.27-1.58-.32-2.27-.28-4.43-.59-8.86-.8-13.29-.14-2.96.6-3.67 3.57-3.67 2.69 0 5.38 0 8.06.07 2.63.07 2.89.3 2.95 2.8.12 4.34.21 8.67.23 13.01 0 1.2-.27 2.41-.47 4.07zm-11.02-16.03c.21 4.1.4 7.8.6 11.81h6.73v-11.81z"/><path d="m565.21 119.04c-1.13 0-1.73-.7-1.82-1.91-.09-1.31.7-2.35 1.85-2.42 1.14-.07 2.26.96 2.24 2.08-.01 1.19-.96 2.19-2.28 2.25z"/><path d="m582.47 117.25c.05 1.09-.78 1.95-1.91 1.9-1.15-.04-1.97-.6-2.01-1.83-.05-1.15.54-1.96 1.71-2.15.99-.16 2.17 1 2.21 2.08z"/><path d="m572.91 119.09c-1.2-.04-1.96-.63-1.98-1.87-.02-1.16.53-2.01 1.78-2.14 1.06-.11 2.25 1.04 2.24 2.12-.02 1.28-.84 1.78-2.03 1.89z"/></g></svg>