<svg id="Layer_1" data-name="Layer 1" xmlns="http://www.w3.org/2000/svg" width="98.13in" height="41.07in" viewBox="0 0 7065.7 2957.24"><defs><style>.cls-1{fill:#fff;}.cls-2{fill:none;stroke-width:100px;}.cls-2,.cls-4{stroke:#ffb718;stroke-miterlimit:10;}.cls-3,.cls-4{fill:#ffb718;}.cls-5{fill:#2673b9;}</style></defs><title>LogoRedesign-yellow</title><path class="cls-1" d="M11.29,976.8H152.44c7.52,0,11.29,2.84,11.29,8.5v592.76c0,5.68-3.78,8.51-11.29,8.51H11.29q-11.3,0-11.29-8.51V985.3Q0,976.81,11.29,976.8Z"/><path class="cls-1" d="M258.57,1578.06V985.3q0-8.49,11.29-8.5H654.92q64.36,0,111.23,18.71T843.5,1044q30.49,29.78,44.6,68a222.33,222.33,0,0,1,14.12,77.39v204.11q0,33.17-14.12,67.61t-44.6,62.51q-30.49,28.06-76.79,45.5t-110.66,17.43H269.87Q258.56,1586.57,258.57,1578.06ZM422.31,1467.5q0,8.51,11.29,8.5H635.73a100.91,100.91,0,0,0,36.7-7.23,129.84,129.84,0,0,0,33.31-18.71,104.47,104.47,0,0,0,23.71-25.51q9-14,9-28.49V1169.85q0-15.31-10.16-30.19a107.84,107.84,0,0,0-26-26.36,145.32,145.32,0,0,0-35.57-18.71,116.09,116.09,0,0,0-40.09-7.23H433.6q-11.3,0-11.29,8.5Z"/><path class="cls-1" d="M988,1106.92q0-57.82,41.78-94t120.82-36.14h382.8c9.77,0,14.68,2.84,14.68,8.5v93.55c0,5.67-3.78,8.5-11.29,8.5H1163q-11.3,0-11.29,9.35v115.66q0,8.51,11.29,8.5h346.67c7.52,0,11.29,2.84,11.29,8.51v97.8c0,5.68-3.78,8.5-11.29,8.5H1163q-11.3,0-11.29,8.5V1467.5q0,8.51,11.29,8.5h373.77c7.52,0,11.29,2.84,11.29,8.5v93.55c0,5.68-3.78,8.51-11.29,8.51h-437a109.14,109.14,0,0,1-40.65-8.08,138.41,138.41,0,0,1-36.13-20.83,110.32,110.32,0,0,1-25.41-28.49q-9.61-15.73-9.6-31.89Z"/><path class="cls-1" d="M1847.34,1027q13.55-33.17,49.68-41.67t98.24-8.5q64.36,0,101.06,8.5t50.25,41.67l227,554.49c0,3.4-2.65,5.1-7.91,5.1H2217.71q-11.3,0-14.68-7.65l-59.85-147.13q-3.39-8.49-14.68-8.51H1863.15q-11.3,0-14.68,9.36l-59.85,145.42q-3.39,8.52-14.68,8.51H1627.14c-6,0-9-1.7-9-5.1Zm161.48,75.69q-3.39-9.35-5.65-12.33c-1.52-2-4.15-3-7.9-3s-7.91,5.1-12.42,15.31l-79,193.9a4.66,4.66,0,0,1-.56,2.55,3,3,0,0,0-.57,1.7c0,4,3,6,9,6H2080q9,0,9-6a3.14,3.14,0,0,0-.56-1.7,4.52,4.52,0,0,1-.56-2.55Z"/><path class="cls-1" d="M3686,985.3q0-8.49,11.29-8.51h141.15c7.52,0,11.29,2.84,11.29,8.51v231.32q0,8.51,11.29,8.5h267.62c7.52,0,11.29-2.83,11.29-8.5V985.3q0-8.49,11.29-8.51h141.15c7.52,0,11.29,2.84,11.29,8.51v592.75c0,5.68-3.78,8.51-11.29,8.51H4151.27q-11.3,0-11.29-8.51V1344.19c0-5.66-3.78-8.5-11.29-8.5H3861.06q-11.3,0-11.29,8.5v233.87c0,5.68-3.78,8.51-11.29,8.51H3697.33q-11.3,0-11.29-8.51Z"/><path class="cls-1" d="M4604.06,1027q13.55-33.17,49.68-41.67T4752,976.8q64.36,0,101.06,8.51T4903.3,1027l227,554.49c0,3.4-2.65,5.1-7.91,5.1H4974.44q-11.3,0-14.68-7.65l-59.85-147.13q-3.39-8.49-14.68-8.51H4619.87q-11.3,0-14.68,9.36l-59.85,145.42q-3.39,8.52-14.68,8.51h-146.8c-6,0-9-1.7-9-5.1Zm161.48,75.69q-3.39-9.35-5.65-12.33t-7.9-3q-5.66,0-12.42,15.31l-79,193.9a4.64,4.64,0,0,1-.57,2.55,3,3,0,0,0-.56,1.7c0,4,3,6,9,6h168.25q9,0,9-6a3.14,3.14,0,0,0-.56-1.7,4.51,4.51,0,0,1-.56-2.55Z"/><path class="cls-1" d="M5155.11,1166.45a176.39,176.39,0,0,1,13.55-68.89,96,96,0,0,1,18.63-31.89,309.11,309.11,0,0,1,24.28-24.24q35-30.62,83.56-47.62t103.89-17h299.24q11.27,0,11.29,8.51v93.55q0,8.51-11.29,8.5H5405.8q-44,6.82-65.49,34.44t-21.45,71.86v215.16q3.39,29.78,25.41,47.2t61.54,20h292.46q11.27,0,11.29,8.5v93.55q0,8.52-11.29,8.51H5409.18q-33.87,0-59.85-4.67a381.18,381.18,0,0,1-45.17-10.63,215,215,0,0,1-76.78-38.7,221.42,221.42,0,0,1-55.33-64.21q-5.66-9.35-11.29-25.09t-5.65-38.7Z"/><path class="cls-1" d="M5813.42,976.8h141.15q11.27,0,11.29,8.51v592.75q0,8.52-11.29,8.51H5813.42q-11.3,0-11.29-8.51V985.3Q5802.13,976.81,5813.42,976.8Zm554.44,2.55q2.25,2.55-2.26,8.51l-210,271.29c-1.52,1.14-4,4-7.34,8.5s-5.08,7.38-5.08,8.5c0,1.7,1.31,4.54,4,8.5a80.6,80.6,0,0,0,6.21,8.5l219.06,282.35q4.5,6,2.26,8.5a7.23,7.23,0,0,1-5.65,2.55H6197.35q-4.52,0-6.77-2.55a37.41,37.41,0,0,1-3.39-4.25L6009.9,1341.64q-33.87-44.21-33.88-63.78a25.51,25.51,0,0,1,1.13-7.23,85.06,85.06,0,0,1,4.52-11.06,141.84,141.84,0,0,1,10.16-17.43q6.77-10.2,18.07-26.37L6180.41,983.6a39,39,0,0,1,3.39-4.25q2.25-2.55,6.78-2.55h171.64A7.24,7.24,0,0,1,6367.86,979.35Z"/><path class="cls-1" d="M6672.74,1333.14a448.86,448.86,0,0,1-75.09-6.81q-40.1-6.8-72.84-26.36a121.73,121.73,0,0,1-32.18-28.49,167.77,167.77,0,0,1-21.46-35.72,184.54,184.54,0,0,1-12.42-39.12,202.34,202.34,0,0,1-4-39.55v-16.16a53.4,53.4,0,0,1,2.26-15.31q7.89-74,73.4-114.81,19.19-11.9,47.43-23t55.33-11.06H7007c7.51,0,11.29,2.84,11.29,8.51v93.55c0,5.67-3.78,8.5-11.29,8.5H6680.65q-15.83,0-28.8,10.63t-18.63,20a40.18,40.18,0,0,0-6.78,17,128.74,128.74,0,0,0-1.13,17,180.58,180.58,0,0,0,2.26,28.06q2.25,14.47,15.81,25.51,12.41,9.37,34.44,11.06t48,1.7h126.47a397.75,397.75,0,0,1,73.4,7.23,205.28,205.28,0,0,1,71.14,27.64,119.08,119.08,0,0,1,32.18,28.92,174.64,174.64,0,0,1,21.46,36.57,169.6,169.6,0,0,1,11.85,40.82,259.21,259.21,0,0,1,3.39,40.82v17.86a45.74,45.74,0,0,1-2.26,14.46q-9,77.4-72.27,119.06-19.22,11.92-46.86,23.39t-52.51,11.48h-411q-11.3,0-11.29-8.51v-93.55q0-8.49,11.29-8.5h363.6q16.94,0,29.36-12.33t18.07-22.54q5.64-9.35,6.78-17.86a137.11,137.11,0,0,0,1.13-17.86,190.92,190.92,0,0,0-2.26-28.49q-2.28-14.87-15.81-26.79-11.3-9.35-32.18-13.18t-49.12-3.82Z"/><path class="cls-2" d="M4029.36,1703.49a1120.42,1120.42,0,0,1-244.59,366.18c-438.89,438.89-1150.47,438.89-1589.36,0a1120.42,1120.42,0,0,1-244.59-366.19"/><path class="cls-2" d="M1950.82,846.49a1120.44,1120.44,0,0,1,244.59-366.19c438.89-438.89,1150.47-438.89,1589.37,0A1120.45,1120.45,0,0,1,4029.37,846.5"/><path class="cls-3" d="M3355.16,151.14V75.92a1124.08,1124.08,0,0,0-730.13,0v75.22Z"/><path class="cls-3" d="M3370.16,151.14V75.92c0-6.94-4.72-12.3-11-14.46a1139.59,1139.59,0,0,0-581.47-41.53A1119.81,1119.81,0,0,0,2621,61.46c-6.3,2.17-11,7.57-11,14.46v75.22a15.22,15.22,0,0,0,15,15h700.49c9.47,0,19,.21,28.43,0h1.21c7.85,0,15.36-6.9,15-15s-6.59-15-15-15H2654.67c-9.45,0-19-.4-28.43,0-.4,0-.81,0-1.21,0l15,15V75.92l-11,14.46A1109.37,1109.37,0,0,1,3196.33,49.2a1119.84,1119.84,0,0,1,154.83,41.19l-11-14.46v75.22c0,7.85,6.9,15.36,15,15S3370.16,159.55,3370.16,151.14Z"/><path class="cls-3" d="M4042.91,738.45l53.18-53.19A1124.14,1124.14,0,0,0,3579.82,169l-53.19,53.19Z"/><path class="cls-3" d="M4053.52,749.06l53.18-53.19c5-5,5.3-12.13,2.35-18.18a1139.64,1139.64,0,0,0-382-440.57A1119.42,1119.42,0,0,0,3587.39,156c-6.05-3-13.22-2.61-18.18,2.35L3516,211.56a15.23,15.23,0,0,0,0,21.21l13.8,13.8,37.56,37.56,55.56,55.56,67.79,67.79L3765,481.73l75,75,69.89,69.89,59.06,59.06,42.46,42.46c6.7,6.7,13.26,13.56,20.11,20.11.29.28.57.57.86.86a15,15,0,1,0,21.21-21.21l-13.8-13.8-37.56-37.56-55.56-55.56-67.79-67.79-74.25-74.25-75-75L3659.72,334,3600.66,275l-42.46-42.46c-6.68-6.68-13.15-13.71-20.11-20.11-.3-.27-.57-.57-.86-.86v21.21l53.19-53.19-18.18,2.35A1109.48,1109.48,0,0,1,4003,554.58a1120,1120,0,0,1,80.11,138.24l2.35-18.18-53.18,53.19a15,15,0,0,0,21.21,21.21Z"/><path class="cls-3" d="M3526.63,2327.81l53.19,53.18a1124.09,1124.09,0,0,0,516.28-516.28l-53.19-53.19Z"/><path class="cls-3" d="M3516,2338.42l53.19,53.18c5,5,12.13,5.3,18.18,2.35A1139.61,1139.61,0,0,0,4028,2012,1119.5,1119.5,0,0,0,4109,1872.29c3-6.05,2.61-13.22-2.35-18.18l-53.19-53.19a15.23,15.23,0,0,0-21.21,0l-13.8,13.8-37.56,37.56-55.56,55.56-67.79,67.79-74.25,74.25-75,75-69.89,69.89-59.06,59.06L3537,2296.24c-6.7,6.7-13.56,13.26-20.11,20.11-.28.29-.57.57-.86.86a15,15,0,0,0,21.21,21.21l13.8-13.8,37.56-37.56,55.56-55.56,67.79-67.79,74.25-74.25,75-75,69.89-69.89,59.06-59.06,42.46-42.46c6.68-6.68,13.71-13.15,20.11-20.11.27-.3.57-.57.86-.86H4032.3l53.19,53.19-2.35-18.18a1109.39,1109.39,0,0,1-372.65,430.79A1120.06,1120.06,0,0,1,3572.25,2368l18.18,2.35-53.19-53.18a15,15,0,1,0-21.21,21.21Z"/><path class="cls-3" d="M2625,2398.84v75.22a1124.08,1124.08,0,0,0,730.13,0v-75.22Z"/><path class="cls-3" d="M2610,2398.84v75.22c0,6.94,4.72,12.3,11,14.46a1139.59,1139.59,0,0,0,581.46,41.53,1119.77,1119.77,0,0,0,156.64-41.53c6.3-2.17,11-7.57,11-14.46v-75.22a15.22,15.22,0,0,0-15-15H2654.67c-9.47,0-19-.21-28.43,0H2625c-7.85,0-15.36,6.9-15,15s6.59,15,15,15h700.49c9.45,0,19,.4,28.43,0,.4,0,.81,0,1.21,0l-15-15v75.22l11-14.46a1109.33,1109.33,0,0,1-567.32,41.19A1119.74,1119.74,0,0,1,2629,2459.59l11,14.46v-75.22c0-7.85-6.9-15.36-15-15S2610,2390.43,2610,2398.84Z"/><path class="cls-3" d="M1937.27,1811.53l-53.18,53.19A1124.09,1124.09,0,0,0,2400.36,2381l53.19-53.19Z"/><path class="cls-3" d="M1926.66,1800.92l-53.18,53.19c-5,5-5.3,12.13-2.35,18.18a1139.6,1139.6,0,0,0,382,440.58A1119.41,1119.41,0,0,0,2392.79,2394c6.05,3,13.22,2.61,18.18-2.35l53.19-53.19a15.23,15.23,0,0,0,0-21.21l-13.8-13.8-37.56-37.56-55.56-55.56-67.79-67.79-74.25-74.25-75-75-69.89-69.89-59.06-59.06-42.46-42.46c-6.7-6.7-13.26-13.56-20.11-20.11-.29-.28-.57-.57-.86-.86a15,15,0,0,0-21.21,21.21l13.8,13.8L1978,1873.5l55.56,55.56,67.79,67.79,74.25,74.25,75,75,69.89,69.89,59.06,59.06,42.46,42.46c6.68,6.68,13.15,13.71,20.11,20.11.3.27.57.57.86.86v-21.21l-53.19,53.19,18.18-2.35a1109.42,1109.42,0,0,1-430.79-372.65A1120,1120,0,0,1,1897,1857.15l-2.35,18.18,53.18-53.19a15,15,0,0,0-21.21-21.21Z"/><path class="cls-3" d="M2453.55,222.17,2400.36,169a1124.1,1124.1,0,0,0-516.28,516.28l53.19,53.19Z"/><path class="cls-3" d="M2464.16,211.56,2411,158.38c-5-5-12.13-5.3-18.18-2.35a1139.61,1139.61,0,0,0-440.58,382,1119.52,1119.52,0,0,0-81.08,139.68c-3,6.05-2.61,13.22,2.35,18.18l53.19,53.19a15.23,15.23,0,0,0,21.21,0l13.8-13.8,37.56-37.56,55.56-55.56,67.79-67.79,74.25-74.25,75-75,69.89-69.89,59.06-59.06,42.46-42.46c6.7-6.7,13.56-13.26,20.11-20.11.28-.29.57-.57.86-.86a15,15,0,0,0-21.21-21.21l-13.8,13.8-37.56,37.56L2336,318.48l-67.79,67.79L2194,460.52l-75,75-69.89,69.89-59.06,59.06-42.46,42.46c-6.68,6.68-13.71,13.15-20.11,20.11-.27.3-.57.57-.86.86h21.21l-53.19-53.19,2.35,18.18A1109.44,1109.44,0,0,1,2269.69,262a1120.14,1120.14,0,0,1,138.24-80.11l-18.18-2.35,53.19,53.18a15,15,0,0,0,21.21-21.21Z"/><path class="cls-4" d="M2893.33,2158.74l193.53-.24a114,114,0,0,1-193.53.24Z"/><path class="cls-4" d="M2777,1849.72V1980c0,72,38.62,130.29,86.32,130.29h253.45c47.72,0,86.32-58.28,86.32-130.29V1849.72Z"/><path class="cls-3" d="M2647.74,1351.56q-4.16.82-8.35,1.39l9.3-1.25a108.9,108.9,0,0,1-27.76-.05l9.3,1.25a95.43,95.43,0,0,1-22.55-6.15l8.36,3.53a88.78,88.78,0,0,1-18.46-10.66l7.08,5.47a87,87,0,0,1-15-14.88l5.47,7.08a90.16,90.16,0,0,1-11.5-19.76l3.53,8.36a100,100,0,0,1-6.33-23.39l1.25,9.3c-2.21-16.53-1-33.83-1-50.46v-65.48c0-8.52,0-17,1-25.45l-1.25,9.3a134.25,134.25,0,0,1,8.88-32.57l-3.53,8.36a150.56,150.56,0,0,1,19.43-33.22l-5.47,7.08a155.68,155.68,0,0,1,26.37-26.42l-7.08,5.47a145.23,145.23,0,0,1,30.77-18.23l-8.36,3.53c12.13-5.12,24.58-7.7,37.34-10.29l45.56-9.24,70.56-14.31,88.28-17.91,97.73-19.82,99.18-20.12,92.63-18.79,77.76-15.77,55.7-11.3q12.61-2.56,25.21-5.11,4.5-.9,9-1.52l-9.3,1.25a108.92,108.92,0,0,1,27.76.05l-9.3-1.25a95.43,95.43,0,0,1,22.55,6.15l-8.36-3.53a88.78,88.78,0,0,1,18.46,10.66l-7.08-5.47a87,87,0,0,1,15,14.88l-5.47-7.08a90.16,90.16,0,0,1,11.5,19.76l-3.53-8.36a100,100,0,0,1,6.33,23.39l-1.25-9.3c2.21,16.53,1,33.83,1,50.46v65.48c0,8.52,0,17-1,25.45l1.25-9.3a134.26,134.26,0,0,1-8.88,32.57l3.53-8.36a150.55,150.55,0,0,1-19.43,33.22l5.47-7.08a155.67,155.67,0,0,1-26.37,26.42l7.08-5.47a145.23,145.23,0,0,1-30.77,18.23l8.36-3.53c-17.31,7.3-36.17,10.05-54.48,13.77l-67.58,13.71c-7.25,1.47-14.5,3.13-21.84,4.12l9.3-1.25A108.91,108.91,0,0,1,3176,1239l9.3,1.25a95.43,95.43,0,0,1-22.55-6.15l8.36,3.53a88.78,88.78,0,0,1-18.46-10.66l7.08,5.47a87,87,0,0,1-15-14.88l5.47,7.08a90.16,90.16,0,0,1-11.5-19.76l3.53,8.36a100,100,0,0,1-6.33-23.39l1.25,9.3c-2-15.19-1-31-1-46.31v-79.69c0-18.31-16.1-35.85-35-35s-35,15.38-35,35v86.28c0,11.39-.58,23,.42,34.38,2.79,31.66,14.85,62.92,39.17,84.38a126.22,126.22,0,0,0,87.19,31.71c15.63-.45,31-4,46.24-7.09q46-9.33,92-18.65c60.3-12.31,109.1-59.82,129.44-116.9,6.68-18.75,8.61-38.64,8.61-58.42v-97.27c0-4.53.05-9.06-.26-13.59a142.69,142.69,0,0,0-13.11-51.24c-13.08-28.56-38.65-48.74-67.48-59.69-23.77-9-50.2-8.53-74.77-3.64-9.59,1.91-19.17,3.89-28.75,5.83L3217.36,903,3123,922.09,3013.56,944.3l-112.88,22.9-104.51,21.2-84.4,17.12-52.52,10.65c-23.5,4.77-46.18,12-66.42,25.49-49.43,32.86-81.8,87.46-81.8,147.34v95.87c0,17.29.49,34.67,5.64,51.38,9.12,29.59,29,56,56.5,70.83,28.93,15.65,61.29,18.24,93.18,12,8.24-1.62,16.8-9,20.92-16.08,4.39-7.5,6.25-18.56,3.53-27-6.2-19.15-23.77-28.24-43.05-24.45Z"/><path class="cls-3" d="M3362.15,585.1V679a174.41,174.41,0,0,1-.93,21.82l1.25-9.3a123.46,123.46,0,0,1-8.12,29.88l3.53-8.36a138.43,138.43,0,0,1-18,30.77l5.47-7.08a143.07,143.07,0,0,1-24.44,24.33l7.08-5.47a133.27,133.27,0,0,1-28.4,16.65l8.36-3.53c-11,4.57-22.31,6.87-33.88,9.22l-41.76,8.47L3086.55,816l-180,36.52L2750,884.27c-24.61,5-49.22,10-73.84,15q-3.8.76-7.64,1.32l9.3-1.25a100.88,100.88,0,0,1-25.21.17l9.3,1.25a87.94,87.94,0,0,1-21.44-5.7l8.36,3.53a81.63,81.63,0,0,1-17.42-10.1l7.08,5.47a80.31,80.31,0,0,1-13.35-13.26l5.47,7.08a83.06,83.06,0,0,1-10.38-17.63l3.53,8.36a91.79,91.79,0,0,1-6.06-22.13l1.25,9.3c-2-15.06-.93-30.8-.93-45.95V759.23a183.64,183.64,0,0,1,.93-23l-1.25,9.3a123.45,123.45,0,0,1,8.12-29.88l-3.53,8.36a138.42,138.42,0,0,1,18-30.77l-5.47,7.08A143.07,143.07,0,0,1,2659.3,676l-7.08,5.47a133.27,133.27,0,0,1,28.4-16.64l-8.36,3.53c15.62-6.47,32.61-9,49.1-12.31l62.11-12.6c6.43-1.31,12.87-2.77,19.37-3.69l-9.3,1.25a100.89,100.89,0,0,1,25.21-.17l-9.3-1.25a87.94,87.94,0,0,1,21.44,5.7l-8.36-3.53a81.63,81.63,0,0,1,17.42,10.1l-7.08-5.47a80.31,80.31,0,0,1,13.35,13.26l-5.47-7.08a83.06,83.06,0,0,1,10.37,17.63l-3.53-8.36a91.79,91.79,0,0,1,6.06,22.13l-1.25-9.3c1.83,13.87.93,28.31.93,42.26v73.14c0,18.31,16.1,35.85,35,35s35-15.38,35-35V716c0-9.21,0-18.43,0-27.64-.15-27.15-8.27-53.18-24.88-74.68-16.07-20.79-40-36.2-66-40.93-16.9-3.07-32-2.9-48.89-.42-3.8.56-7.55,1.34-11.32,2.1l-83.66,17c-11.42,2.32-22.71,4.49-33.59,8.88-28.73,11.59-53.35,29.48-72.34,54.07-8.13,10.53-15.24,21.39-20.49,33.66-3.34,7.8-6.62,15.54-8.86,23.73s-3.38,16.69-4.4,25.16c-1.24,10.23-.84,20.64-.84,30.93q0,41.18,0,82.37c0,22.27,4.9,44.53,16.13,63.93,14.06,24.29,36.93,41.71,63.38,50.49,24.39,8.09,49.51,5.69,74.14.7l40.78-8.27,68.6-13.92,86.74-17.6,96.69-19.61,97.14-19.71,88.09-17.87L3250.6,854l43.93-8.91c19.54-4,38.35-9.8,55.71-20.13,48-28.57,81.65-81.85,81.92-138.3.12-25.79,0-51.58,0-77.36V585.1c0-18.31-16.1-35.85-35-35s-35,15.38-35,35Z"/><path class="cls-3" d="M3276.93,1403c2.32-.45,4.63-.84,7-1.16l-9.3,1.25a92,92,0,0,1,22.54,0l-9.3-1.25a80.49,80.49,0,0,1,19.07,5.08l-8.36-3.53a74.42,74.42,0,0,1,16.39,9.55l-7.08-5.47a73.66,73.66,0,0,1,11.66,11.65L3314,1412a75.79,75.79,0,0,1,9.73,16.64l-3.53-8.36a84.18,84.18,0,0,1,5.32,19.73l-1.25-9.3c1.77,13.59.83,27.77.83,41.44V1527a171.18,171.18,0,0,1-.83,21.12l1.25-9.3a112.73,112.73,0,0,1-7.92,28.5l3.53-8.36a126.94,126.94,0,0,1-15.19,25.87l5.47-7.08a130.64,130.64,0,0,1-22.24,22.49l7.08-5.47a122,122,0,0,1-25.86,15.38l8.36-3.53c-10.13,4.26-20.5,6.43-31.15,8.59l-38,7.7-132.75,26.93-164.09,33.29-141.48,28.7c-22.51,4.57-45,9.19-67.52,13.7q-3.76.75-7.56,1.27l9.3-1.25a92,92,0,0,1-22.54,0l9.3,1.25a80.48,80.48,0,0,1-19.07-5.08l8.36,3.53a74.41,74.41,0,0,1-16.39-9.55l7.08,5.47a73.65,73.65,0,0,1-11.66-11.65l5.47,7.08a75.79,75.79,0,0,1-9.73-16.64l3.53,8.36a84.2,84.2,0,0,1-5.32-19.74l1.25,9.3c-1.77-13.59-.83-27.77-.83-41.44v-54.86a171.21,171.21,0,0,1,.83-21.12l-1.25,9.3a112.74,112.74,0,0,1,7.92-28.5l-3.53,8.36a126.92,126.92,0,0,1,15.19-25.87l-5.47,7.08a130.63,130.63,0,0,1,22.24-22.49l-7.08,5.47a122,122,0,0,1,25.86-15.38l-8.36,3.53c14.33-6,29.88-8.33,45-11.4l56.64-11.49c6.07-1.23,12.14-2.61,18.27-3.45l-9.3,1.25a92,92,0,0,1,22.54,0l-9.3-1.25a80.48,80.48,0,0,1,19.07,5.08l-8.36-3.53a74.4,74.4,0,0,1,16.39,9.55l-7.08-5.47a73.64,73.64,0,0,1,11.66,11.65l-5.47-7.08a75.78,75.78,0,0,1,9.73,16.64l-3.53-8.36a84.19,84.19,0,0,1,5.32,19.73l-1.25-9.3c1.63,12.55.83,25.59.83,38.21v66.58c0,18.31,16.1,35.85,35,35s35-15.38,35-35v-72.28c0-9.87.54-20-.5-29.86-2.93-27.51-13.16-54.57-34.57-73.18s-48.76-28.88-77.29-27.78c-13.28.51-26.3,3.47-39.28,6.1q-38.31,7.77-76.62,15.54c-52.26,10.7-94.25,52-111.88,101.43-10.3,28.86-7.4,61.4-7.4,91.57v39.56c0,3.58-.05,7.17.17,10.75a125.73,125.73,0,0,0,11.75,46.39c11.39,24.92,33.8,42.44,58.83,52.12,21.08,8.15,44.42,7.71,66.26,3.4,26.58-5.24,53.12-10.78,79.67-16.16L2972,1742.38l181.72-36.86,113.82-23.09c20.2-4.1,39.78-10.51,57.09-22.16,42.56-28.63,70.51-75.57,70.51-127.4v-80.14c0-15.21-.5-30.59-5.23-45.21-8.32-25.69-25.51-48.58-49.54-61.53-25.58-13.78-53.86-16-82-10.51-8.24,1.61-16.8,9.05-20.92,16.08-4.39,7.5-6.25,18.56-3.53,27,6.2,19.17,23.76,28.21,43.05,24.45Z"/><path class="cls-3" d="M3119.56,391.56l-44.32,9L2969.33,422l-128.07,26-111.15,22.55c-17.92,3.64-36,6.78-53.85,10.92l-.77.16c-8.26,1.68-16.77,9-20.92,16.08-4.39,7.5-6.25,18.56-3.53,27,6.17,19.06,23.8,28.35,43.05,24.45l44.32-9,105.9-21.48,128.07-26,111.15-22.55c17.92-3.64,36-6.78,53.85-10.92l.77-.16c8.26-1.68,16.77-9,20.92-16.08,4.39-7.5,6.25-18.56,3.53-27-6.17-19.06-23.8-28.35-43.05-24.45Z"/><circle class="cls-5" cx="3239.88" cy="402.79"/><path class="cls-3" d="M3239.88,437.79c18.31,0,35.85-16.1,35-35s-15.38-35-35-35c-18.31,0-35.85,16.1-35,35S3220.26,437.79,3239.88,437.79Z"/><path class="cls-1" d="M362,2890.25V2744.93H338.58v-25.52h53.76v170.83Zm16.59-235.43a18.51,18.51,0,1,1-13.24,5.42A18.12,18.12,0,0,1,378.62,2654.82Z"/><path class="cls-1" d="M638.29,2890.25V2782.1q0-40.34-34.93-40.36a34.94,34.94,0,0,0-20.57,6.78q-9.57,6.79-13.08,15.4v126.33H539.4V2768.86q0-12.59-9.5-19.85t-25.12-7.27q-9.09,0-19.38,7t-14.59,15.47v126H440.5V2719.41h19.78l10,19.78q17.55-23,43.87-23,36.69,0,51.36,22.82,5.1-9.74,19-16.28a66.35,66.35,0,0,1,28.55-6.54q26.47,0,41,15.71T668.6,2776v114.21Z"/><path class="cls-1" d="M808.16,2870.62q-18.18,22.81-55.67,22.81-20.1,0-34.85-14.6t-14.75-36.29q0-26,22.73-43.94t58-18q9.57,0,21.69,4.15,0-41.47-37-41.47-28.39,0-43.7,15.31l-12.76-25.36q8.61-7,23.85-12a92.81,92.81,0,0,1,29.11-5q37.16,0,54,16.91t16.83,53.76v61.25q0,22.49,13.4,30v15.15q-18.5,0-27.67-5.26T808.16,2870.62Zm-2.87-64.28q-14.36-3.19-20.09-3.19-23,0-37.48,11.81t-14.52,27.91q0,26.65,31.42,26.64,23,0,40.67-21.86Z"/><path class="cls-1" d="M877.07,2937l16.43-24.25q26.48,17.71,48.81,17.71,20.57,0,32.45-7.11t11.88-17.62q0-20.74-30-20.73-5.1,0-18.5,2.55t-20.89,2.55q-36.36,0-36.37-27.44,0-8.46,8.53-15.31a53.14,53.14,0,0,1,21.13-9.9q-36-16.89-36-58.7,0-26.8,18.66-44.66t46.09-17.87q25.2,0,39.4,10.37l15.15-18.18,19.78,18.66-18.19,13.72q11.65,15.16,11.65,39.56,0,25.84-16.11,43.38t-42.26,20.09l-25,2.55a49.37,49.37,0,0,0-12,3.44q-7.5,2.94-7.5,7.73,0,6.54,15.64,6.54,6.85,0,21.37-2.48t21.54-2.48q25.2,0,39.31,12t14.12,33.42q0,23.61-21.14,38.12t-53.51,14.52a114.24,114.24,0,0,1-34.93-5.9Q888.23,2945.43,877.07,2937Zm64.28-196.35q-15.79,0-25.76,11.17t-10,27.11q0,17.86,9.65,29.59t26.08,11.72q16.12,0,25.21-11.4t9.09-29.91q0-16-9.81-27.11A31.25,31.25,0,0,0,941.35,2740.63Z"/><path class="cls-1" d="M1061.94,2890.25V2744.93h-23.45v-25.52h53.75v170.83Zm16.59-235.43a18.13,18.13,0,0,1,13.32,5.5,18,18,0,0,1,5.51,13.15,18.84,18.84,0,1,1-18.83-18.66Z"/><path class="cls-1" d="M1245.53,2890.25v-99.38q0-27.27-8.21-38.2t-27.52-10.93q-10.36,0-21.69,6.23t-17.38,15.31v127h-30.31V2719.41h20.74l9.57,22q15-25.2,49-25.21,56.14,0,56.15,68.27v105.76Z"/><path class="cls-1" d="M1462.78,2807.78H1339.64q0,30,16.43,46.1,14.51,14,37.33,14,26,0,43.39-15.16l12.76,21.86q-7,7-21.54,12.12-18.19,6.7-40.51,6.7-32.22,0-54.71-21.85-25-24.08-25-64.77,0-42.26,25.68-67.78,23-22.82,54.39-22.82,36.53,0,57.27,20.58,20.1,19.78,20.09,52.48A68,68,0,0,1,1462.78,2807.78Zm-73.53-66q-20.25,0-34,13.09a47.45,47.45,0,0,0-14.83,30.94H1435q0-18.34-11.48-30.63Q1410.94,2741.74,1389.24,2741.74Z"/><path class="cls-1" d="M1532,2845.42a24,24,0,0,1,23.93,23.92,23.3,23.3,0,0,1-7,17,23.68,23.68,0,0,1-33.82,0,23.3,23.3,0,0,1-7-17,24,24,0,0,1,23.92-23.92Z"/><path class="cls-1" d="M1823.74,2890.09v-12.6q-15.78,15.78-45.94,15.79-32.05,0-52-23t-19.94-61.25q0-38.43,23-65.64t54.71-27.2q26.48,0,40.2,12.45v-79.28H1854v240.7Zm0-131.12q-11.48-17.22-31.43-17.23-24.4,0-39.47,18.19t-15.07,46.25q0,61.74,56.15,61.73,7.17,0,17.23-4.55t12.6-9.65Z"/><path class="cls-1" d="M2041.3,2807.78H1918.17q0,30,16.43,46.1,14.52,14,37.33,14,26,0,43.39-15.16l12.76,21.86q-7,7-21.53,12.12-18.19,6.7-40.52,6.7-32.22,0-54.71-21.85-25-24.08-25-64.77,0-42.26,25.68-67.78,23-22.82,54.39-22.82,36.52,0,57.26,20.58,20.1,19.78,20.09,52.48A67.64,67.64,0,0,1,2041.3,2807.78Zm-73.53-66q-20.25,0-34,13.09a47.46,47.46,0,0,0-14.84,30.94h94.59q0-18.34-11.48-30.63Q1989.46,2741.74,1967.77,2741.74Z"/><path class="cls-1" d="M2137.17,2893.44h-8L2056,2718.93h33.18l45.14,119.63,46.1-119.63h31.74Z"/><path class="cls-1" d="M2379.46,2807.78H2256.32q0,30,16.43,46.1,14.52,14,37.33,14,26,0,43.39-15.16l12.76,21.86q-7,7-21.53,12.12-18.19,6.7-40.52,6.7-32.22,0-54.71-21.85-25-24.08-25-64.77,0-42.26,25.68-67.78,23-22.82,54.39-22.82,36.52,0,57.26,20.58,20.1,19.78,20.09,52.48A67.64,67.64,0,0,1,2379.46,2807.78Zm-73.53-66q-20.25,0-34,13.09a47.45,47.45,0,0,0-14.84,30.94h94.59q0-18.34-11.48-30.63Q2327.62,2741.74,2305.92,2741.74Z"/><path class="cls-1" d="M2416.15,2841.91V2649.39h30.3v187.42q0,13.73,7.89,21.62t20.65,7.89v27.12Q2416.15,2893.44,2416.15,2841.91Z"/><path class="cls-1" d="M2498.93,2804.43q0-39.56,21.29-63.88t56.07-24.33q36.69,0,56.94,23.37t20.26,64.84q0,41.32-20.74,65.16t-56.46,23.85q-36.54,0-56.95-24.09T2498.93,2804.43Zm31.9,0q0,64.28,45.46,64.28,21.21,0,33.25-17.23t12-47.05q0-63.48-45.3-63.48-20.74,0-33.1,16.9T2530.83,2804.43Z"/><path class="cls-1" d="M2715.7,2880.83v76.41h-30.3V2719.41h30.3v14a56.72,56.72,0,0,1,41.63-17.23q36.37,0,56.62,22.65t20.25,66.35q0,38.92-20.42,63.56t-59,24.65a78.56,78.56,0,0,1-23.21-3.83Q2719.21,2885.78,2715.7,2880.83Zm0-124.57v99.53q2.87,4.3,12.12,8.21a46.08,46.08,0,0,0,18,3.91q56.47,0,56.46-63.8,0-32.39-13.4-47.37t-42.9-15q-6.38,0-15.64,4.47A51.36,51.36,0,0,0,2715.7,2756.26Z"/><path class="cls-1" d="M2902.32,2845.42a24,24,0,0,1,23.92,23.92,23.31,23.31,0,0,1-7,17,23.68,23.68,0,0,1-33.81,0,23.31,23.31,0,0,1-7-17,24,24,0,0,1,23.93-23.92Z"/><path class="cls-1" d="M3229.63,2807.78H3106.49q0,30,16.43,46.1,14.51,14,37.32,14,26,0,43.38-15.16l12.76,21.86q-7,7-21.53,12.12-18.18,6.7-40.51,6.7-32.22,0-54.72-21.85-25-24.08-25-64.77,0-42.26,25.67-67.78,23-22.82,54.39-22.82,36.52,0,57.26,20.58,20.1,19.78,20.1,52.48A68,68,0,0,1,3229.63,2807.78Zm-73.54-66q-20.26,0-34,13.09a47.49,47.49,0,0,0-14.84,30.94h94.59q0-18.34-11.48-30.63Q3177.79,2741.74,3156.1,2741.74Z"/><path class="cls-1" d="M3367.92,2890.25,3321.34,2828l-41.63,62.21H3244.3l62-87.41-56.94-83.43h34.13l38.28,58.7,42.91-58.7h33.49l-62,83.43,67.94,87.41Z"/><path class="cls-1" d="M3571.45,2807.78H3448.31q0,30,16.43,46.1,14.51,14,37.33,14,26,0,43.38-15.16l12.76,21.86q-7,7-21.54,12.12-18.19,6.7-40.51,6.7-32.22,0-54.71-21.85-25-24.08-25-64.77,0-42.26,25.68-67.78,23-22.82,54.39-22.82,36.53,0,57.27,20.58,20.1,19.78,20.09,52.48A68,68,0,0,1,3571.45,2807.78Zm-73.53-66q-20.25,0-34,13.09a47.45,47.45,0,0,0-14.83,30.94h94.58q0-18.34-11.48-30.63Q3519.61,2741.74,3497.92,2741.74Z"/><path class="cls-1" d="M3734.62,2733.29l-15,21.37q-4.63-4.62-16.35-8.77a68.79,68.79,0,0,0-23-4.15q-24.73,0-39.24,17.31t-14.51,47.45q0,30,14.84,45.7t41.15,15.71q20.42,0,41.16-15.79l12,25.52q-24.41,15.8-60.45,15.8-34.94,0-57.74-23.45t-22.81-63.48q0-40.84,23.68-65.56t64.84-24.73q13.25,0,28.71,5.59T3734.62,2733.29Z"/><path class="cls-1" d="M3796.19,2719.41v108.95q0,39.56,34.29,39.55a47.15,47.15,0,0,0,27.43-8.61q12.44-8.62,16.43-19.94V2719.41h30.31v170.83h-30.31v-23.61q-5.1,10-20.49,18.42t-30.06,8.38q-28.09,0-43-16.11t-14.92-45.77V2719.41Z"/><path class="cls-1" d="M3956.82,2743.34H3937v-23.93h19.78v-35.73l30.31-11.64v47.37H4034v23.93h-46.89v84.86q0,21.53,7.26,30.63t23.37,9.09q11.64,0,24.08-5.9l4.47,26.64a167.55,167.55,0,0,1-41.31,4.79q-20.26,0-34.21-15.07t-14-38Z"/><path class="cls-1" d="M4219.37,2807.78H4096.23q0,30,16.43,46.1,14.5,14,37.32,14,26,0,43.39-15.16l12.76,21.86q-7,7-21.53,12.12-18.19,6.7-40.51,6.7-32.22,0-54.72-21.85-25-24.08-25-64.77,0-42.26,25.67-67.78,23-22.82,54.39-22.82,36.52,0,57.26,20.58,20.1,19.78,20.1,52.48A67.94,67.94,0,0,1,4219.37,2807.78Zm-73.54-66q-20.26,0-34,13.09a47.49,47.49,0,0,0-14.84,30.94h94.59q0-18.34-11.48-30.63Q4167.53,2741.74,4145.83,2741.74Z"/><path class="cls-1" d="M4288.59,2845.42a24,24,0,0,1,23.93,23.92,23.31,23.31,0,0,1-7,17,23.68,23.68,0,0,1-33.82,0,23.31,23.31,0,0,1-7-17,24,24,0,0,1,23.92-23.92Z"/><path class="cls-3" d="M4556.3,2864.54q-25.37,22-62.85,22-20.09,0-30.26-14t-3.33-34.93q8.18-25,36.55-42.3T4560,2778a59,59,0,0,1,20.39,4q13-39.91-24-39.92-28.39,0-48.52,14.74l-4.78-24.41q10.82-6.76,27.63-11.6t30.69-4.84q37.17,0,48.68,16.28t-.09,51.74l-19.28,59q-7.07,21.64,4,28.87l-4.77,14.58q-18.5,0-26-5.06T4556.3,2864.54Zm17.34-61.87q-13.34-3.07-19.09-3.07-23,0-41.2,11.36t-23.29,26.87q-8.38,25.64,23,25.64,23,0,47.56-21Z"/><path class="cls-3" d="M4803.51,2732.36l-21.72,20.57q-3.18-4.46-13.59-8.45a60.38,60.38,0,0,0-21.74-4q-24.73,0-44.69,16.66t-29.44,45.67q-9.43,28.86.46,44t36.21,15.12q20.42,0,46.12-15.2l3.94,24.56q-29.37,15.21-65.42,15.2-34.94,0-50.37-22.57t-2.84-61.11q12.84-39.29,44.31-63.1t72.62-23.8a73.53,73.53,0,0,1,27,5.38Q4798,2726.67,4803.51,2732.36Z"/><path class="cls-3" d="M4892.26,2883.43,4926,2780.1q6-18.42.08-29t-23-10.59q-11,0-24.12,6.22a81.16,81.16,0,0,0-21.73,14.51l-40,122.21H4787l75.78-231.83h30.3l-28,85.51q9-9.06,24.48-15.12a81.39,81.39,0,0,1,29.82-6.07q27.12,0,36.89,17.2t0,47l-33.78,103.34Z"/><path class="cls-3" d="M4980.15,2883.43l45.72-139.87h-23.45l8-24.57h53.76l-53.75,164.44Zm90.67-226.62q7.81,0,11.59,5.3t1.36,12.67a25.77,25.77,0,0,1-9.7,12.82,25.17,25.17,0,0,1-15,5.29q-7.66,0-11.42-5.29t-1.31-12.82a25.41,25.41,0,0,1,9.59-12.75A24.92,24.92,0,0,1,5070.81,2656.81Z"/><path class="cls-3" d="M5228.45,2804.05H5105.31q-9.44,28.86,1.93,44.37,10.09,13.5,32.9,13.51a85.84,85.84,0,0,0,48.16-14.59l5.88,21q-9.22,6.75-25.34,11.66a139.75,139.75,0,0,1-42.62,6.45q-32.22,0-47.84-21-17.47-23.17-4.67-62.33,13.3-40.68,47-65.24,30.14-22,61.57-22,36.53,0,50.78,19.81,13.88,19,3.59,50.51A82.06,82.06,0,0,1,5228.45,2804.05Zm-52.76-63.56q-20.25,0-38.08,12.59-17,12-24.58,29.79h94.59q5.77-17.65-1.84-29.48Q5197.39,2740.48,5175.69,2740.49Z"/><path class="cls-3" d="M5297.36,2886.49h-8l-18.32-168h33.18l7.51,115.14,83.73-115.14h31.75Z"/><path class="cls-3" d="M5566.6,2804.05H5443.46q-9.44,28.86,1.92,44.37,10.09,13.5,32.91,13.51a85.85,85.85,0,0,0,48.16-14.59l5.88,21q-9.23,6.75-25.34,11.66a139.77,139.77,0,0,1-42.62,6.45q-32.22,0-47.83-21-17.47-23.17-4.67-62.33,13.29-40.68,47-65.24,30.14-22,61.57-22,36.53,0,50.79,19.81,13.88,19,3.59,50.51A81.93,81.93,0,0,1,5566.6,2804.05Zm-52.76-63.56q-20.25,0-38.09,12.59-17,12-24.58,29.79h94.59q5.77-17.65-1.85-29.48Q5535.54,2740.48,5513.84,2740.49Z"/><path class="cls-3" d="M5624,2840.28q9.89,0,14.7,6.76t1.69,16.27q-3.11,9.53-12.36,16.35t-19.14,6.83q-9.89,0-14.68-6.83t-1.67-16.35q3.11-9.52,12.34-16.27T5624,2840.28Z"/></svg>