<?xml version="1.0" encoding="utf-8"?>
<!-- Generator: Adobe Illustrator 21.1.0, SVG Export Plug-In . SVG Version: 6.00 Build 0)  -->
<svg version="1.1" id="Layer_1" xmlns="http://www.w3.org/2000/svg" xmlns:xlink="http://www.w3.org/1999/xlink" x="0px" y="0px"
	 viewBox="0 0 7707.8 1148.7" style="enable-background:new 0 0 7707.8 1148.7;" xml:space="preserve">
<g>
	<g>
		<g>
			<path d="M1499.8,269.5H1641c7.5,0,11.3,2.8,11.3,8.5v592.8c0,5.7-3.8,8.5-11.3,8.5h-141.2c-7.5,0-11.3-2.8-11.3-8.5V278
				C1488.5,272.3,1492.3,269.5,1499.8,269.5z"/>
			<path d="M1747.1,870.7V278c0-5.7,3.8-8.5,11.3-8.5h385.1c42.9,0,80,6.2,111.2,18.7c31.2,12.5,57,28.6,77.4,48.5
				c20.3,19.9,35.2,42.5,44.6,68c9.4,25.5,14.1,51.3,14.1,77.4v204.1c0,22.1-4.7,44.6-14.1,67.6c-9.4,23-24.3,43.8-44.6,62.5
				c-20.3,18.7-45.9,33.9-76.8,45.5c-30.9,11.6-67.8,17.4-110.7,17.4h-386.2C1750.9,879.2,1747.1,876.4,1747.1,870.7z M1910.9,760.2
				c0,5.7,3.8,8.5,11.3,8.5h202.1c12,0,24.3-2.4,36.7-7.2c12.4-4.8,23.5-11.1,33.3-18.7c9.8-7.7,17.7-16.2,23.7-25.5
				c6-9.4,9-18.8,9-28.5V462.5c0-10.2-3.4-20.3-10.2-30.2c-6.8-9.9-15.4-18.7-26-26.4c-10.5-7.7-22.4-13.9-35.6-18.7
				c-13.2-4.8-26.5-7.2-40.1-7.2h-193.1c-7.5,0-11.3,2.8-11.3,8.5V760.2z"/>
			<path d="M2476.6,399.6c0-38.5,13.9-69.9,41.8-94c27.8-24.1,68.1-36.1,120.8-36.1H3022c9.8,0,14.7,2.8,14.7,8.5v93.6
				c0,5.7-3.8,8.5-11.3,8.5h-373.8c-7.5,0-11.3,3.1-11.3,9.4V505c0,5.7,3.8,8.5,11.3,8.5h346.7c7.5,0,11.3,2.8,11.3,8.5v97.8
				c0,5.7-3.8,8.5-11.3,8.5h-346.7c-7.5,0-11.3,2.8-11.3,8.5v123.3c0,5.7,3.8,8.5,11.3,8.5h373.8c7.5,0,11.3,2.8,11.3,8.5v93.5
				c0,5.7-3.8,8.5-11.3,8.5h-437c-13.5,0-27.1-2.7-40.7-8.1c-13.5-5.4-25.6-12.3-36.1-20.8c-10.6-8.5-19-18-25.4-28.5
				c-6.4-10.5-9.6-21.1-9.6-31.9V399.6z"/>
			<path d="M3335.9,319.6c9-22.1,25.6-36,49.7-41.7c24.1-5.7,56.8-8.5,98.2-8.5c42.9,0,76.6,2.8,101.1,8.5
				c24.5,5.7,41.2,19.6,50.2,41.7l227,554.5c0,3.4-2.6,5.1-7.9,5.1h-147.9c-7.5,0-12.4-2.6-14.7-7.7l-59.8-147.1
				c-2.3-5.7-7.2-8.5-14.7-8.5h-265.4c-7.5,0-12.4,3.1-14.7,9.4l-59.8,145.4c-2.3,5.7-7.2,8.5-14.7,8.5h-146.8c-6,0-9-1.7-9-5.1
				L3335.9,319.6z M3497.4,395.3c-2.3-6.2-4.1-10.3-5.6-12.3c-1.5-2-4.1-3-7.9-3c-3.8,0-7.9,5.1-12.4,15.3l-79,193.9
				c0,1.1-0.2,2-0.6,2.5c-0.4,0.6-0.6,1.1-0.6,1.7c0,4,3,6,9,6h168.2c6,0,9-2,9-6c0-0.6-0.2-1.1-0.6-1.7c-0.4-0.6-0.6-1.4-0.6-2.5
				L3497.4,395.3z"/>
		</g>
		<g>
			<path d="M4328.1,278c0-5.7,3.8-8.5,11.3-8.5h141.1c7.5,0,11.3,2.8,11.3,8.5v231.3c0,5.7,3.8,8.5,11.3,8.5h267.6
				c7.5,0,11.3-2.8,11.3-8.5V278c0-5.7,3.8-8.5,11.3-8.5h141.1c7.5,0,11.3,2.8,11.3,8.5v592.8c0,5.7-3.8,8.5-11.3,8.5h-141.1
				c-7.5,0-11.3-2.8-11.3-8.5V636.9c0-5.7-3.8-8.5-11.3-8.5h-267.6c-7.5,0-11.3,2.8-11.3,8.5v233.9c0,5.7-3.8,8.5-11.3,8.5h-141.1
				c-7.5,0-11.3-2.8-11.3-8.5V278z"/>
			<path d="M5246.1,319.6c9-22.1,25.6-36,49.7-41.7c24.1-5.7,56.8-8.5,98.2-8.5c42.9,0,76.6,2.8,101.1,8.5
				c24.5,5.7,41.2,19.6,50.2,41.7l227,554.5c0,3.4-2.6,5.1-7.9,5.1h-147.9c-7.5,0-12.4-2.6-14.7-7.7L5542,724.4
				c-2.3-5.7-7.2-8.5-14.7-8.5h-265.4c-7.5,0-12.4,3.1-14.7,9.4l-59.8,145.4c-2.3,5.7-7.2,8.5-14.7,8.5h-146.8c-6,0-9-1.7-9-5.1
				L5246.1,319.6z M5407.6,395.3c-2.3-6.2-4.1-10.3-5.6-12.3c-1.5-2-4.1-3-7.9-3c-3.8,0-7.9,5.1-12.4,15.3l-79,193.9
				c0,1.1-0.2,2-0.6,2.5c-0.4,0.6-0.6,1.1-0.6,1.7c0,4,3,6,9,6h168.3c6,0,9-2,9-6c0-0.6-0.2-1.1-0.6-1.7c-0.4-0.6-0.6-1.4-0.6-2.5
				L5407.6,395.3z"/>
			<path d="M5797.2,459.1c0-24.4,4.5-47.3,13.6-68.9c4.5-12.5,10.7-23.1,18.6-31.9c7.9-8.8,16-16.9,24.3-24.2
				c23.3-20.4,51.2-36.3,83.6-47.6c32.4-11.3,67-17,103.9-17h299.2c7.5,0,11.3,2.8,11.3,8.5v93.5c0,5.7-3.8,8.5-11.3,8.5h-292.5
				c-29.4,4.5-51.2,16-65.5,34.4c-14.3,18.4-21.5,42.4-21.5,71.9v215.2c2.3,19.9,10.7,35.6,25.4,47.2c14.7,11.6,35.2,18.3,61.5,20
				h292.5c7.5,0,11.3,2.8,11.3,8.5v93.5c0,5.7-3.8,8.5-11.3,8.5h-289.1c-22.6,0-42.5-1.6-59.8-4.7c-17.3-3.1-32.4-6.7-45.2-10.6
				c-28.6-7.9-54.2-20.8-76.8-38.7c-22.6-17.9-41-39.3-55.3-64.2c-3.8-6.2-7.5-14.6-11.3-25.1c-3.8-10.5-5.6-23.4-5.6-38.7V459.1z"
				/>
			<path d="M6455.5,269.5h141.2c7.5,0,11.3,2.8,11.3,8.5v592.8c0,5.7-3.8,8.5-11.3,8.5h-141.2c-7.5,0-11.3-2.8-11.3-8.5V278
				C6444.2,272.3,6447.9,269.5,6455.5,269.5z M7009.9,272c1.5,1.7,0.7,4.5-2.3,8.5l-210,271.3c-1.5,1.1-4,4-7.3,8.5
				c-3.4,4.5-5.1,7.4-5.1,8.5c0,1.7,1.3,4.5,4,8.5c2.6,4,4.7,6.8,6.2,8.5l219.1,282.3c3,4,3.8,6.8,2.3,8.5c-1.5,1.7-3.4,2.6-5.6,2.6
				h-171.6c-3,0-5.3-0.8-6.8-2.6c-1.5-1.7-2.6-3.1-3.4-4.3L6652,634.3c-22.6-29.5-33.9-50.7-33.9-63.8c0-2.3,0.4-4.7,1.1-7.2
				c0.7-2.6,2.3-6.2,4.5-11.1c2.3-4.8,5.6-10.6,10.2-17.4c4.5-6.8,10.5-15.6,18.1-26.4l170.5-232.2c0.7-1.1,1.9-2.6,3.4-4.3
				c1.5-1.7,3.8-2.6,6.8-2.6h171.6C7006.5,269.5,7008.4,270.3,7009.9,272z"/>
			<path d="M7314.8,625.8c-23.3,0-48.4-2.3-75.1-6.8c-26.7-4.5-51-13.3-72.8-26.4c-12.8-7.9-23.5-17.4-32.2-28.5
				c-8.7-11.1-15.8-23-21.5-35.7c-5.6-12.8-9.8-25.8-12.4-39.1c-2.6-13.3-4-26.5-4-39.5c0-5.7,0-11.1,0-16.2
				c0-5.1,0.7-10.2,2.3-15.3c5.3-49.3,29.7-87.6,73.4-114.8c12.8-7.9,28.6-15.6,47.4-23c18.8-7.4,37.3-11.1,55.3-11.1H7649
				c7.5,0,11.3,2.8,11.3,8.5v93.5c0,5.7-3.8,8.5-11.3,8.5h-326.3c-10.6,0-20.2,3.5-28.8,10.6c-8.7,7.1-14.9,13.8-18.6,20
				c-3.8,5.7-6,11.3-6.8,17c-0.8,5.7-1.1,11.3-1.1,17c0,9.1,0.7,18.4,2.3,28.1c1.5,9.6,6.8,18.2,15.8,25.5
				c8.3,6.2,19.8,9.9,34.4,11.1c14.7,1.1,30.7,1.7,48,1.7h126.5c23.3,0,47.8,2.4,73.4,7.2c25.6,4.8,49.3,14,71.1,27.6
				c12.8,7.9,23.5,17.6,32.2,28.9c8.6,11.3,15.8,23.5,21.5,36.6c5.6,13.1,9.6,26.7,11.9,40.8c2.3,14.2,3.4,27.8,3.4,40.8
				c0,6.2,0,12.2,0,17.9c0,5.1-0.8,9.9-2.3,14.5c-6,51.6-30.1,91.3-72.3,119.1c-12.8,7.9-28.4,15.7-46.9,23.4
				c-18.5,7.7-36,11.5-52.5,11.5h-411c-7.5,0-11.3-2.8-11.3-8.5v-93.5c0-5.7,3.8-8.5,11.3-8.5h363.6c11.3,0,21.1-4.1,29.4-12.3
				c8.3-8.2,14.3-15.7,18.1-22.5c3.8-6.2,6-12.2,6.8-17.9c0.7-5.7,1.1-11.6,1.1-17.9c0-9.1-0.8-18.6-2.3-28.5
				c-1.5-9.9-6.8-18.8-15.8-26.8c-7.5-6.2-18.3-10.6-32.2-13.2c-13.9-2.5-30.3-3.8-49.1-3.8H7314.8z"/>
		</g>
	</g>
	<g>
		<g>
			<path d="M530.3,978.9l88.1-0.1c-9,14.5-24.9,24.2-43.2,24.5C556.3,1003.7,539.6,993.9,530.3,978.9z"/>
			<path d="M477.3,838.2v59.3c0,32.8,17.6,59.3,39.3,59.3h115.4c21.7,0,39.3-26.5,39.3-59.3v-59.3H477.3z"/>
			<path d="M418.2,610.3c-1.1,0.2-2.3,0.4-3.4,0.6c1.5-0.2,3-0.4,4.5-0.6c-4.3,0.6-8.6,0.6-12.9,0.1c1.5,0.2,3,0.4,4.5,0.6
				c-3.6-0.5-7.2-1.5-10.6-2.9c1.4,0.6,2.7,1.1,4.1,1.7c-3-1.3-5.7-2.9-8.3-4.8c1.1,0.9,2.3,1.8,3.4,2.7c-2.5-2-4.8-4.2-6.8-6.7
				c0.9,1.1,1.8,2.3,2.7,3.4c-2.1-2.7-3.8-5.7-5.2-8.9c0.6,1.4,1.1,2.7,1.7,4.1c-1.5-3.5-2.4-7.2-3-11c0.2,1.5,0.4,3,0.6,4.5
				c-1-7.5-0.4-15.3-0.4-22.8c0-9.9,0-19.8,0-29.8c0-3.8,0-7.6,0.4-11.4c-0.2,1.5-0.4,3-0.6,4.5c0.7-5.3,2.2-10.5,4.2-15.4
				c-0.6,1.4-1.1,2.7-1.7,4.1c2.2-5.2,5.1-10,8.5-14.5c-0.9,1.1-1.8,2.3-2.7,3.4c3.6-4.6,7.7-8.8,12.3-12.4
				c-1.1,0.9-2.3,1.8-3.4,2.7c4.3-3.3,9-6.1,14-8.3c-1.4,0.6-2.7,1.1-4.1,1.7c5.5-2.3,11.1-3.5,16.9-4.6c6.9-1.4,13.8-2.8,20.7-4.2
				c10.8-2.2,21.6-4.4,32.3-6.6c13.4-2.7,26.7-5.4,40.1-8.1c14.8-3,29.6-6,44.4-9c15-3,30-6.1,45.1-9.1c14-2.8,28.1-5.7,42.1-8.5
				c11.9-2.4,23.8-4.8,35.7-7.2c8.4-1.7,16.9-3.4,25.3-5.1c3.8-0.8,7.7-1.6,11.5-2.3c1.2-0.2,2.5-0.5,3.7-0.6
				c-1.5,0.2-3,0.4-4.5,0.6c4.3-0.6,8.6-0.6,12.9-0.1c-1.5-0.2-3-0.4-4.5-0.6c3.6,0.5,7.2,1.5,10.6,2.9c-1.4-0.6-2.7-1.1-4.1-1.7
				c3,1.3,5.7,2.9,8.3,4.8c-1.1-0.9-2.3-1.8-3.4-2.7c2.5,2,4.8,4.2,6.8,6.7c-0.9-1.1-1.8-2.3-2.7-3.4c2.1,2.7,3.8,5.7,5.2,8.9
				c-0.6-1.4-1.1-2.7-1.7-4.1c1.5,3.5,2.4,7.2,3,11c-0.2-1.5-0.4-3-0.6-4.5c1,7.5,0.4,15.3,0.4,22.8c0,9.9,0,19.8,0,29.8
				c0,3.8,0,7.6-0.4,11.4c0.2-1.5,0.4-3,0.6-4.5c-0.7,5.3-2.2,10.5-4.2,15.4c0.6-1.4,1.1-2.7,1.7-4.1c-2.2,5.2-5.1,10-8.5,14.5
				c0.9-1.1,1.8-2.3,2.7-3.4c-3.6,4.6-7.7,8.8-12.3,12.4c1.1-0.9,2.3-1.8,3.4-2.7c-4.3,3.3-9,6.1-14,8.3c1.4-0.6,2.7-1.1,4.1-1.7
				c-7.8,3.3-16.3,4.5-24.5,6.2c-10.3,2.1-20.6,4.2-30.9,6.3c-3.2,0.6-6.4,1.4-9.6,1.8c1.5-0.2,3-0.4,4.5-0.6
				c-4.3,0.6-8.6,0.6-12.9,0.1c1.5,0.2,3,0.4,4.5,0.6c-3.6-0.5-7.2-1.5-10.6-2.9c1.4,0.6,2.7,1.1,4.1,1.7c-3-1.3-5.7-2.9-8.3-4.8
				c1.1,0.9,2.3,1.8,3.4,2.7c-2.5-2-4.8-4.2-6.8-6.7c0.9,1.1,1.8,2.3,2.7,3.4c-2.1-2.7-3.8-5.7-5.2-8.9c0.6,1.4,1.1,2.7,1.7,4.1
				c-1.5-3.5-2.4-7.2-3-11c0.2,1.5,0.4,3,0.6,4.5c-0.9-6.9-0.4-14-0.4-21c0-9.7,0-19.5,0-29.2c0-2.3,0-4.7,0-7c0-4.3-1.9-8.9-5-12
				c-2.9-2.9-7.8-5.2-12-5c-9.2,0.4-17,7.4-17,17c0,13.1,0,26.2,0,39.3c0,5.1-0.3,10.4,0.2,15.5c1.2,14.8,6.9,29.5,18.3,39.5
				c11.2,9.8,25.7,15.1,40.7,14.6c7.1-0.3,14.1-1.9,21.1-3.3c13.9-2.8,27.8-5.6,41.7-8.5c27.9-5.7,50.5-27.8,59.8-54.3
				c3-8.6,3.8-17.6,3.8-26.7c0-7.5,0-14.9,0-22.4c0-7.2,0-14.5,0-21.7c0-2,0-4.1-0.1-6.1c-0.6-8.6-2.5-16.2-6.1-24
				c-6.1-13.3-18.2-22.8-31.7-27.8c-10.9-4-23-3.8-34.2-1.5c-4.4,0.9-8.8,1.8-13.1,2.7c-10.2,2.1-20.5,4.2-30.7,6.2
				c-14.3,2.9-28.6,5.8-43,8.7c-16.5,3.4-33.1,6.7-49.6,10.1c-17.1,3.5-34.3,6.9-51.4,10.4c-15.9,3.2-31.7,6.4-47.6,9.7
				c-12.8,2.6-25.6,5.2-38.3,7.8c-8,1.6-16,3.3-24,4.9c-1.6,0.3-3.3,0.7-4.9,1c-8.9,1.8-17.7,5.5-25.3,10.5
				c-23,15-38.2,40.4-38.2,68.1c0,14.5,0,29,0,43.5c0,7.9,0.2,15.9,2.5,23.6c4.1,13.8,13.4,26.1,26.1,33.1
				c13.4,7.4,28.6,8.6,43.4,5.7c4-0.8,8.1-4.4,10.1-7.8c2.1-3.6,3-9,1.7-13.1c-1.3-4.1-3.9-8.1-7.8-10.1
				C427,609.8,422.8,609.4,418.2,610.3L418.2,610.3z"/>
			<path d="M742.8,262.3c0,14.3,0,28.5,0,42.8c0,3.3,0,6.5-0.4,9.8c0.2-1.5,0.4-3,0.6-4.5c-0.7,4.9-2,9.6-3.9,14.1
				c0.6-1.4,1.1-2.7,1.7-4.1c-2,4.7-4.7,9.2-7.8,13.3c0.9-1.1,1.8-2.3,2.7-3.4c-3.3,4.2-7.1,8-11.3,11.4c1.1-0.9,2.3-1.8,3.4-2.7
				c-4,3-8.2,5.6-12.8,7.6c1.4-0.6,2.7-1.1,4.1-1.7c-5,2.1-10.2,3.2-15.5,4.3c-6.3,1.3-12.6,2.6-19,3.8c-9.9,2-19.8,4-29.7,6
				c-12.3,2.5-24.5,5-36.8,7.5c-13.6,2.8-27.1,5.5-40.7,8.3c-13.8,2.8-27.5,5.6-41.3,8.4c-12.9,2.6-25.7,5.2-38.6,7.8
				c-10.9,2.2-21.8,4.4-32.7,6.6c-7.7,1.6-15.5,3.1-23.2,4.7c-3.5,0.7-7,1.4-10.6,2.1c-1.1,0.2-2.3,0.4-3.4,0.6
				c1.5-0.2,3-0.4,4.5-0.6c-3.9,0.5-7.9,0.6-11.8,0c1.5,0.2,3,0.4,4.5,0.6c-3.3-0.5-6.6-1.4-9.7-2.7c1.4,0.6,2.7,1.1,4.1,1.7
				c-2.7-1.2-5.3-2.6-7.6-4.4c1.1,0.9,2.3,1.8,3.4,2.7c-2.3-1.8-4.4-3.9-6.2-6.2c0.9,1.1,1.8,2.3,2.7,3.4c-1.9-2.5-3.5-5.2-4.7-8.1
				c0.6,1.4,1.1,2.7,1.7,4.1c-1.3-3.2-2.2-6.6-2.7-10.1c0.2,1.5,0.4,3,0.6,4.5c-0.9-6.9-0.4-14-0.4-20.9c0-9.1,0-18.2,0-27.3
				c0-3.5,0-7,0.4-10.5c-0.2,1.5-0.4,3-0.6,4.5c0.7-4.9,2-9.6,3.9-14.1c-0.6,1.4-1.1,2.7-1.7,4.1c2-4.7,4.7-9.2,7.8-13.3
				c-0.9,1.1-1.8,2.3-2.7,3.4c3.3-4.2,7.1-8,11.3-11.4c-1.1,0.9-2.3,1.8-3.4,2.7c4-3,8.2-5.6,12.8-7.6c-1.4,0.6-2.7,1.1-4.1,1.7
				c7.1-3,14.9-4.1,22.5-5.7c9.4-1.9,18.9-3.8,28.3-5.7c2.9-0.6,5.8-1.3,8.8-1.7c-1.5,0.2-3,0.4-4.5,0.6c3.9-0.5,7.9-0.6,11.8,0
				c-1.5-0.2-3-0.4-4.5-0.6c3.3,0.5,6.6,1.3,9.7,2.7c-1.4-0.6-2.7-1.1-4.1-1.7c2.7,1.2,5.3,2.6,7.6,4.4c-1.1-0.9-2.3-1.8-3.4-2.7
				c2.3,1.8,4.4,3.9,6.2,6.2c-0.9-1.1-1.8-2.3-2.7-3.4c1.9,2.5,3.5,5.2,4.7,8.1c-0.6-1.4-1.1-2.7-1.7-4.1c1.3,3.2,2.2,6.6,2.7,10.1
				c-0.2-1.5-0.4-3-0.6-4.5c0.8,6.3,0.4,12.9,0.4,19.2c0,8.9,0,17.9,0,26.8c0,2.1,0,4.3,0,6.4c0,4.3,1.9,8.9,5,12
				c2.9,2.9,7.8,5.2,12,5c4.4-0.2,8.9-1.6,12-5c3-3.3,5-7.4,5-12c0-11.2,0-22.4,0-33.6c0-4.2,0-8.5,0-12.7c0-5.8-0.8-11.7-2.5-17.2
				c-2.2-7.2-5.7-13.2-10.4-19.1c-3.6-4.5-8.2-8.2-13.1-11.1c-5-3-10.8-5.3-16.5-6.2c-3.8-0.7-7.6-1.2-11.4-1.2
				c-4,0-7.9,0.6-11.8,1.2c-1.5,0.2-3,0.6-4.5,0.9c-12.7,2.6-25.4,5.2-38.1,7.7c-5.3,1.1-10.5,2.1-15.5,4.1
				c-7,2.9-13.1,6.2-19.1,10.8c-4.9,3.8-9.2,7.8-13,12.7c-2.5,3.2-4.9,6.4-7,9.8c-2,3.5-3.6,7.2-5.2,10.9
				c-2.6,6.3-3.8,12.7-4.6,19.4c-0.5,4.6-0.3,9.3-0.3,13.9c0,12.4,0,24.8,0,37.2c0,10.4,2.3,20.9,7.7,29.9
				c6.7,11.3,17.5,19.5,30.1,23.4c9.9,3,20.2,2.7,30.2,0.7c1.2-0.2,2.3-0.5,3.5-0.7c6.3-1.3,12.6-2.5,18.9-3.8
				c10.4-2.1,20.8-4.2,31.2-6.3c13.2-2.7,26.4-5.4,39.6-8c14.6-3,29.3-5.9,43.9-8.9c14.6-3,29.3-5.9,43.9-8.9
				c13.4-2.7,26.8-5.4,40.2-8.1c10.7-2.2,21.4-4.3,32-6.5c6.7-1.4,13.4-2.7,20.1-4.1c8.9-1.8,17.5-4.5,25.5-9.2
				c22.3-13.2,37.9-37.9,37.9-64c0-11.7,0-23.5,0-35.2c0-3.7,0-7.3,0-11c0-4.3-1.9-8.9-5-12c-2.9-2.9-7.8-5.2-12-5
				c-4.4,0.2-8.9,1.6-12,5C744.7,253.6,742.8,257.7,742.8,262.3L742.8,262.3z"/>
			<path d="M705.2,635.7c0.9-0.2,1.9-0.3,2.8-0.5c-1.5,0.2-3,0.4-4.5,0.6c3.6-0.5,7.2-0.5,10.8,0c-1.5-0.2-3-0.4-4.5-0.6
				c2.9,0.4,5.8,1.2,8.5,2.3c-1.4-0.6-2.7-1.1-4.1-1.7c2.6,1.1,5.1,2.5,7.3,4.3c-1.1-0.9-2.3-1.8-3.4-2.7c2.1,1.7,4,3.6,5.6,5.7
				c-0.9-1.1-1.8-2.3-2.7-3.4c1.7,2.2,3,4.6,4.1,7.1c-0.6-1.4-1.1-2.7-1.7-4.1c1.2,3,2.1,6,2.5,9.2c-0.2-1.5-0.4-3-0.6-4.5
				c0.8,6.2,0.4,12.8,0.4,19c0,8.3,0,16.6,0,24.9c0,3.2,0,6.3-0.4,9.5c0.2-1.5,0.4-3,0.6-4.5c-0.6,4.5-1.8,8.8-3.6,12.9
				c0.6-1.4,1.1-2.7,1.7-4.1c-1.9,4.3-4.3,8.4-7.2,12.1c0.9-1.1,1.8-2.3,2.7-3.4c-2.9,3.7-6.3,7.1-10,10c1.1-0.9,2.3-1.8,3.4-2.7
				c-3.6,2.8-7.5,5.1-11.7,7c1.4-0.6,2.7-1.1,4.1-1.7c-4.6,1.9-9.3,2.9-14.1,3.9c-5.8,1.2-11.5,2.3-17.3,3.5
				c-9,1.8-17.9,3.6-26.9,5.5c-11.1,2.3-22.2,4.5-33.3,6.8c-12.3,2.5-24.7,5-37,7.5c-12.5,2.5-25.1,5.1-37.6,7.6
				c-11.7,2.4-23.4,4.8-35.1,7.1c-9.9,2-19.8,4-29.6,6c-7,1.4-14,2.8-21.1,4.3c-3.2,0.7-6.4,1.3-9.6,2c-1,0.2-2.1,0.4-3.1,0.5
				c1.5-0.2,3-0.4,4.5-0.6c-3.6,0.5-7.2,0.5-10.8,0c1.5,0.2,3,0.4,4.5,0.6c-2.9-0.4-5.8-1.2-8.5-2.3c1.4,0.6,2.7,1.1,4.1,1.7
				c-2.6-1.1-5.1-2.5-7.3-4.3c1.1,0.9,2.3,1.8,3.4,2.7c-2.1-1.7-4-3.6-5.6-5.7c0.9,1.1,1.8,2.3,2.7,3.4c-1.7-2.2-3-4.6-4.1-7.1
				c0.6,1.4,1.1,2.7,1.7,4.1c-1.2-3-2.1-6-2.5-9.2c0.2,1.5,0.4,3,0.6,4.5c-0.8-6.2-0.4-12.8-0.4-19c0-8.3,0-16.6,0-24.9
				c0-3.2,0-6.3,0.4-9.5c-0.2,1.5-0.4,3-0.6,4.5c0.6-4.5,1.8-8.8,3.6-12.9c-0.6,1.4-1.1,2.7-1.7,4.1c1.9-4.3,4.3-8.4,7.2-12.1
				c-0.9,1.1-1.8,2.3-2.7,3.4c2.9-3.7,6.3-7.1,10-10c-1.1,0.9-2.3,1.8-3.4,2.7c3.6-2.8,7.5-5.1,11.7-7c-1.4,0.6-2.7,1.1-4.1,1.7
				c6.5-2.8,13.7-3.8,20.6-5.2c8.5-1.7,17.1-3.5,25.6-5.2c2.7-0.5,5.4-1.2,8.1-1.5c-1.5,0.2-3,0.4-4.5,0.6c3.6-0.5,7.2-0.5,10.8,0
				c-1.5-0.2-3-0.4-4.5-0.6c2.9,0.4,5.8,1.2,8.5,2.3c-1.4-0.6-2.7-1.1-4.1-1.7c2.6,1.1,5.1,2.5,7.3,4.3c-1.1-0.9-2.3-1.8-3.4-2.7
				c2.1,1.7,4,3.6,5.6,5.7c-0.9-1.1-1.8-2.3-2.7-3.4c1.7,2.2,3,4.6,4.1,7.1c-0.6-1.4-1.1-2.7-1.7-4.1c1.2,3,2.1,6,2.5,9.2
				c-0.2-1.5-0.4-3-0.6-4.5c0.8,5.8,0.4,11.8,0.4,17.6c0,8.1,0,16.1,0,24.2c0,2,0,3.9,0,5.9c0,4.3,1.9,8.9,5,12
				c2.9,2.9,7.8,5.2,12,5c4.4-0.2,8.9-1.6,12-5c3-3.3,5-7.4,5-12c0-10.9,0-21.8,0-32.8c0-4.3,0.2-8.6-0.1-12.9
				c-0.7-7.7-2.4-14.4-5.7-21.3c-2.4-5-6-9.7-10.2-13.4c-9.9-8.8-22.7-13.6-36-13.1c-6.2,0.2-12.3,1.6-18.4,2.8
				c-11.6,2.3-23.1,4.7-34.7,7c-11.2,2.3-21,7.8-29.8,14.9c-10.2,8.3-17.6,19.9-22,32.2c-2.6,7.4-3.3,15.3-3.3,23.1
				c0,6.2,0,12.4,0,18.7c0,6,0,12,0,18c0,1.7,0,3.3,0.1,5c0.2,3.8,0.7,7.7,1.7,11.4c0.9,3.5,2.3,6.8,3.8,10.1
				c2.3,5.1,6,10,10.1,13.7c5.4,4.9,11.1,8.2,17.9,10.7c2.1,0.8,4.3,1.4,6.5,1.7c3.7,0.6,7.4,1.1,11.1,1.1c4.2-0.1,8.4-0.7,12.6-1.5
				c3.6-0.7,7.3-1.5,10.9-2.2c8.6-1.7,17.1-3.5,25.7-5.2c11.9-2.4,23.7-4.8,35.6-7.2c13.9-2.8,27.7-5.6,41.6-8.4
				c14.3-2.9,28.5-5.8,42.8-8.7c13.2-2.7,26.4-5.4,39.6-8c10.7-2.2,21.3-4.3,32-6.5c6.7-1.4,13.3-2.7,20-4.1
				c1.4-0.3,2.7-0.6,4.1-0.8c7.6-1.6,15.1-4.7,21.6-8.9c20-13,33.3-35.1,33.3-59.2c0-12.1,0-24.2,0-36.3c0-6.8-0.2-13.6-2.1-20.2
				c-3.6-12.2-11.7-23.1-22.9-29.4c-5.7-3.2-11.7-5-18.1-5.9c-7-0.9-13.5-0.6-20.4,0.8c-4,0.8-8.1,4.4-10.1,7.8
				c-2.1,3.6-3,9-1.7,13.1c1.3,4.1,3.9,8.1,7.8,10.1C696.4,636.2,700.6,636.6,705.2,635.7L705.2,635.7z"/>
			<g>
				<path d="M633,173.2c-6.7,1.4-13.4,2.7-20.2,4.1c-16.1,3.3-32.3,6.5-48.4,9.8c-19.5,3.9-38.9,7.9-58.4,11.8
					c-16.8,3.4-33.6,6.8-50.4,10.2c-8.2,1.7-16.4,3.2-24.5,5c-0.1,0-0.2,0-0.3,0.1c-4,0.8-8.1,4.4-10.1,7.8c-2.1,3.6-3,9-1.7,13.1
					c1.3,4.1,3.9,8.1,7.8,10.1c4.2,2.2,8.4,2.7,13.1,1.7c6.7-1.4,13.4-2.7,20.2-4.1c16.1-3.3,32.3-6.5,48.4-9.8
					c19.5-3.9,38.9-7.9,58.4-11.8c16.8-3.4,33.6-6.8,50.4-10.2c8.2-1.7,16.4-3.2,24.5-5c0.1,0,0.2,0,0.3-0.1c4-0.8,8.1-4.4,10.1-7.8
					c2.1-3.6,3-9,1.7-13.1c-1.3-4.1-3.9-8.1-7.8-10.1C641.9,172.7,637.7,172.2,633,173.2L633,173.2z"/>
				<g>
					<circle cx="688.1" cy="179.3" r="0"/>
					<path d="M688.1,196.2c4.3,0,8.9-1.9,12-5c2.9-2.9,5.2-7.8,5-12c-0.2-4.4-1.6-8.9-5-12c-3.3-3-7.4-5-12-5c-4.3,0-8.9,1.9-12,5
						c-2.9,2.9-5.2,7.8-5,12c0.2,4.4,1.6,8.9,5,12C679.4,194.3,683.5,196.2,688.1,196.2z"/>
				</g>
			</g>
		</g>
		<g>
			<g>
				<path d="M1120.9,407.9l-34.3,0v2.7c-4.2-13.1-8.8-25.9-13.9-38.6c-6.1-15-12.8-29.7-20.3-44.1l1.8,1.8l24.2-24.2
					c-24.2-49.6-56.8-96.1-98-137.3c-41.2-41.2-87.7-73.9-137.3-98l-24.2,24.2l1.8,1.8c-14.4-7.4-29.1-14.2-44.1-20.2
					c-12.7-5.1-25.5-9.8-38.6-13.9l2.7,0l0-34.3C688.6,9.8,632.6,0,574.3,0c-58.3,0-114.2,9.8-166.4,27.8v34.3l2.7,0
					c-13.1,4.2-25.9,8.8-38.6,13.9c-15,6.1-29.7,12.8-44.1,20.3l1.8-1.8l-24.2-24.2c-49.6,24.2-96.1,56.8-137.3,98
					c-41.2,41.2-73.9,87.7-98,137.3l24.2,24.2l1.8-1.8C88.8,342.3,82.1,357.1,76,372c-5.1,12.7-9.8,25.5-13.9,38.6v-2.7l-34.3,0
					C9.8,460.1,0,516.1,0,574.3c0,58.3,9.8,114.2,27.8,166.4l34.3,0v-2.7c4.2,13.1,8.8,25.9,13.9,38.6c6.1,15,12.8,29.7,20.3,44.1
					l-1.8-1.8l-24.2,24.2c24.2,49.6,56.8,96.1,98,137.3c41.2,41.2,87.7,73.9,137.3,98l24.2-24.2l-1.8-1.8
					c14.4,7.4,29.1,14.2,44.1,20.3c12.7,5.1,25.5,9.8,38.6,13.9h-2.7l0,34.3c52.2,18,108.1,27.8,166.4,27.8
					c58.3,0,114.2-9.8,166.4-27.8v-34.3h-2.7c13.1-4.2,25.9-8.8,38.6-13.9c15-6.1,29.7-12.8,44.1-20.3l-1.8,1.8l24.2,24.2
					c49.6-24.2,96.1-56.8,137.3-98c41.2-41.2,73.9-87.7,98-137.3l-24.2-24.2l-1.8,1.8c7.4-14.4,14.2-29.1,20.3-44.1
					c5.1-12.7,9.8-25.5,13.9-38.6v2.7l34.3,0c18-52.2,27.8-108.1,27.8-166.4C1148.7,516.1,1138.9,460.1,1120.9,407.9z M1052.3,667.4
					c-6,30.8-15,61.2-26.7,90.2c-24.5,60.4-60.5,114.6-106.9,161c-46.5,46.5-100.7,82.5-161,106.9c-29,11.8-59.4,20.8-90.2,26.7
					c-30.6,5.9-61.8,8.9-93,8.9c-31.2,0-62.5-3-93-8.9c-30.8-6-61.2-15-90.2-26.7c-60.4-24.5-114.6-60.5-161-106.9
					c-46.5-46.5-82.5-100.7-106.9-161c-11.8-29-20.8-59.4-26.7-90.2c-5.9-30.6-8.9-61.8-8.9-93c0-31.2,3-62.5,8.9-93
					c6-30.8,15-61.2,26.7-90.2c24.5-60.4,60.5-114.6,106.9-161c46.5-46.5,100.7-82.5,161-106.9c29-11.8,59.4-20.8,90.2-26.7
					c30.6-5.9,61.8-8.9,93-8.9c31.2,0,62.5,3,93,8.9c30.8,6,61.2,15,90.2,26.7c60.4,24.5,114.6,60.5,161,106.9
					c46.5,46.5,82.5,100.7,106.9,161c11.8,29,20.8,59.4,26.7,90.2c5.9,30.6,8.9,61.8,8.9,93C1061.2,605.5,1058.2,636.8,1052.3,667.4
					z"/>
			</g>
		</g>
	</g>
</g>
</svg>
