<svg id="Layer_1" data-name="Layer 1" xmlns="http://www.w3.org/2000/svg" width="47.05in" height="47.05in" viewBox="0 0 3387.49 3387.49"><defs><style>.cls-1{fill:#ffb718;}</style></defs><title>PlainLogo-yellow</title><path class="cls-1" d="M1563.79,2886.82l259.9-.33a153.05,153.05,0,0,1-259.9.33Z"/><path class="cls-1" d="M1407.62,2471.81v175c0,96.71,51.86,175,115.93,175h340.38c64.08,0,115.93-78.26,115.93-175v-175Z"/><path class="cls-1" d="M1233.18,1799.91q-5,1-10,1.7l13.29-1.79a146,146,0,0,1-38,.15l13.29,1.79a127.24,127.24,0,0,1-31.24-8.54l11.94,5a118.53,118.53,0,0,1-24.49-14.26l10.12,7.82a116.25,116.25,0,0,1-20-19.81l7.82,10.12a120.44,120.44,0,0,1-15.26-26.1l5,11.94a133.42,133.42,0,0,1-8.77-32.41l1.79,13.29c-2.88-22.06-1.31-45.13-1.31-67.31v-87.78c0-11.28-.09-22.45,1.31-33.68l-1.79,13.29a179.39,179.39,0,0,1,12.48-45.44l-5,11.94a201.86,201.86,0,0,1,25-42.7l-7.82,10.12a208,208,0,0,1,36.36-36.53l-10.12,7.82a194.07,194.07,0,0,1,41.29-24.36l-11.94,5c16.19-6.8,32.8-10.23,49.82-13.68l61-12.37,95.39-19.35,118.3-24,130.9-26.55,132.85-27,124.16-25.19,105.21-21.34,74.66-15.14q17-3.44,34-6.89c3.64-.73,7.3-1.37,11-1.9l-13.29,1.79a146,146,0,0,1,38-.15l-13.29-1.79a127.24,127.24,0,0,1,31.24,8.54l-11.94-5a118.52,118.52,0,0,1,24.49,14.26l-10.12-7.82a116.24,116.24,0,0,1,20,19.81l-7.82-10.12a120.43,120.43,0,0,1,15.26,26.1l-5-11.94a133.43,133.43,0,0,1,8.77,32.41l-1.79-13.29c2.88,22.06,1.31,45.13,1.31,67.31v87.78c0,11.28.09,22.45-1.31,33.68l1.79-13.29a179.41,179.41,0,0,1-12.48,45.44l5-11.94a201.84,201.84,0,0,1-25,42.7l7.82-10.12a208,208,0,0,1-36.36,36.53l10.12-7.82a194.07,194.07,0,0,1-41.29,24.36l11.94-5c-23,9.65-48,13.32-72.33,18.25L1996.92,1645c-9.39,1.91-18.79,4.06-28.29,5.41l13.29-1.79a146,146,0,0,1-38,.15l13.29,1.79a127.24,127.24,0,0,1-31.24-8.54l11.94,5a118.52,118.52,0,0,1-24.49-14.26l10.12,7.82a116.24,116.24,0,0,1-20-19.81l7.82,10.12a120.44,120.44,0,0,1-15.26-26.1l5,11.94a133.43,133.43,0,0,1-8.77-32.41l1.79,13.29c-2.65-20.28-1.31-41.41-1.31-61.8V1429a51.58,51.58,0,0,0-14.64-35.36c-8.67-8.67-22.9-15.2-35.36-14.64-27.09,1.21-50,22-50,50v115.79c0,15.14-.76,30.58.52,45.69,3.67,43.64,20.28,87,54,116.42,33.14,28.92,75.72,44.64,119.9,43,21-.77,41.62-5.5,62.15-9.67q61.55-12.48,123.1-25c82.34-16.77,149-82.07,176.32-160.15,8.83-25.24,11.29-52,11.29-78.59V1346.28c0-6,.07-12-.33-18a194.92,194.92,0,0,0-18.05-70.65c-18-39.33-53.63-67.22-93.49-81.91-32.19-11.86-67.79-11.08-101-4.47-12.93,2.58-25.84,5.24-38.75,7.86l-90.62,18.38-126.69,25.7-146.41,29.7-151.53,30.74-140.35,28.47-113,22.93L1249,1349.43l-14.55,3a217.9,217.9,0,0,0-74.51,30.86c-67.72,44.25-112.54,119.13-112.54,200.77v128.27c0,23.41.57,46.9,7.32,69.58,12.13,40.75,39.42,77.11,76.95,97.73,39.63,21.78,84.29,25.38,128.11,16.73,11.78-2.32,24-12.91,29.88-23,6.27-10.72,8.93-26.51,5-38.53s-11.41-23.77-23-29.88c-12.39-6.55-24.74-7.76-38.53-5Z"/><path class="cls-1" d="M2190.41,773.46V899.59c0,9.7,0,19.3-1.2,29l1.79-13.29a164.45,164.45,0,0,1-11.44,41.66l5-11.94a185,185,0,0,1-22.93,39.14l7.82-10.12a190.64,190.64,0,0,1-33.33,33.49l10.12-7.82a177.88,177.88,0,0,1-37.85,22.33l11.94-5c-14.84,6.23-30.07,9.38-45.67,12.54l-55.88,11.34-87.44,17.74-108.44,22-120,24.34-121.78,24.7-113.81,23.09-96.44,19.56-68.43,13.88q-15.57,3.16-31.13,6.32c-3.34.67-6.69,1.26-10.07,1.74l13.29-1.79a133.82,133.82,0,0,1-34.88.14l13.29,1.79a116.64,116.64,0,0,1-28.64-7.83l11.94,5a108.65,108.65,0,0,1-22.45-13.07l10.12,7.82a106.56,106.56,0,0,1-18.31-18.16l7.82,10.12a110.4,110.4,0,0,1-14-23.93l5,11.94a122.3,122.3,0,0,1-8-29.71l1.79,13.29c-2.64-20.23-1.2-41.37-1.2-61.7V1007.7c0-10.34-.08-20.58,1.2-30.88l-1.79,13.29a164.45,164.45,0,0,1,11.44-41.66l-5,11.94a185,185,0,0,1,22.93-39.14L1218,931.38a190.65,190.65,0,0,1,33.33-33.49l-10.12,7.82a177.89,177.89,0,0,1,37.85-22.33l-11.94,5c21.07-8.85,44-12.21,66.3-16.73l83.52-16.94c8.61-1.75,17.23-3.72,25.93-5l-13.29,1.79a133.84,133.84,0,0,1,34.88-.14l-13.29-1.79a116.65,116.65,0,0,1,28.64,7.83l-11.94-5a108.64,108.64,0,0,1,22.45,13.07l-10.12-7.82a106.55,106.55,0,0,1,18.31,18.16l-7.82-10.12a110.39,110.39,0,0,1,14,23.93l-5-11.94a122.3,122.3,0,0,1,8,29.71l-1.79-13.29c2.42,18.59,1.2,38,1.2,56.65v98a51.58,51.58,0,0,0,14.64,35.36c8.67,8.67,22.9,15.2,35.36,14.64,12.93-.58,26.34-4.83,35.36-14.64s14.64-21.81,14.64-35.36v-99c0-12.52.06-25,0-37.57-.08-17-2.22-34.56-7.26-50.79-6.62-21.31-16.84-39-30.6-56.28-10.49-13.16-24.18-24.31-38.62-32.85-14.76-8.73-31.76-15.49-48.72-18.43-11.07-1.92-22.44-3.51-33.72-3.54-11.69,0-23.39,1.67-34.9,3.49-4.43.7-8.83,1.66-13.23,2.55l-112.44,22.81c-15.53,3.15-30.83,6.15-45.59,12.21-20.65,8.48-38.65,18.25-56.3,31.88-14.33,11.07-27.23,23.09-38.39,37.4-7.33,9.4-14.53,18.74-20.56,29s-10.65,21.16-15.23,32.18c-7.69,18.51-11.25,37.36-13.5,57.24-1.53,13.49-.92,27.3-.92,40.85q0,54.9,0,109.79c0,30.67,6.9,61.62,22.67,88.16,19.79,33.31,51.72,57.57,88.64,68.89,29.06,8.91,59.63,8,89.12,2.16,3.41-.68,6.82-1.38,10.23-2.08l55.59-11.28,91.91-18.65,116.92-23.72L1701.68,1207l129.49-26.27,118.46-24,94.48-19.17,59.2-12c26.37-5.35,51.71-13.23,75.19-27.1,65.66-38.79,111.64-111.69,111.9-188.69.12-34.62,0-69.24,0-103.85v-32.4a51.58,51.58,0,0,0-14.64-35.36c-8.67-8.67-22.9-15.2-35.36-14.64-12.93.58-26.34,4.83-35.36,14.64s-14.64,21.81-14.64,35.36Z"/><path class="cls-1" d="M2079.76,1874.75q4.18-.83,8.4-1.42l-13.29,1.79a121.57,121.57,0,0,1,31.91-.08l-13.29-1.79a106.41,106.41,0,0,1,25.06,6.78l-11.94-5a98.57,98.57,0,0,1,21.59,12.54l-10.12-7.82a96.9,96.9,0,0,1,16.64,16.74l-7.82-10.12a100.66,100.66,0,0,1,12.15,20.9l-5-11.94a111.06,111.06,0,0,1,7.4,27.16l-1.79-13.29c2.42,18.38,1.1,37.6,1.1,56.08v73.46c0,9.37.06,18.66-1.1,28l1.79-13.29a149.61,149.61,0,0,1-10.54,38.11l5-11.94a168.39,168.39,0,0,1-21.11,35.77l7.82-10.12a173.58,173.58,0,0,1-29.52,29.62l10.12-7.82a161.86,161.86,0,0,1-34.6,20.51l11.94-5c-13.56,5.71-27.46,8.59-41.72,11.48l-50.94,10.33-79.31,16.09-98.3,19.94L1701,2222.49l-110.9,22.5-103.62,21-87.42,17.73-62.1,12.6q-14.21,2.88-28.43,5.77c-3.06.62-6.13,1.15-9.22,1.59l13.29-1.79a121.55,121.55,0,0,1-31.91.08l13.29,1.79a106.39,106.39,0,0,1-25.06-6.78l11.94,5a98.56,98.56,0,0,1-21.59-12.54l10.12,7.82a96.9,96.9,0,0,1-16.64-16.74l7.82,10.12a100.67,100.67,0,0,1-12.15-20.9l5,11.94a111.08,111.08,0,0,1-7.4-27.16l1.79,13.29c-2.42-18.38-1.1-37.6-1.1-56.08v-73.45c0-9.37-.06-18.66,1.1-28l-1.79,13.29a149.62,149.62,0,0,1,10.54-38.11l-5,11.94a168.37,168.37,0,0,1,21.11-35.76l-7.82,10.12a173.56,173.56,0,0,1,29.52-29.62l-10.12,7.82a161.87,161.87,0,0,1,34.6-20.51l-11.94,5c19.29-8.13,40.34-11.2,60.75-15.34l75.49-15.31c7.9-1.6,15.8-3.41,23.78-4.55l-13.29,1.79a121.55,121.55,0,0,1,31.91-.08l-13.29-1.79a106.39,106.39,0,0,1,25.05,6.78l-11.94-5a98.55,98.55,0,0,1,21.59,12.54l-10.12-7.82a96.89,96.89,0,0,1,16.64,16.74l-7.82-10.12a100.66,100.66,0,0,1,12.15,20.9l-5-11.94a111.07,111.07,0,0,1,7.4,27.16l-1.79-13.29c2.24,17,1.1,34.79,1.1,51.92v88.74a51.58,51.58,0,0,0,14.64,35.36c8.67,8.67,22.9,15.2,35.36,14.64,12.93-.58,26.34-4.83,35.36-14.64s14.64-21.81,14.64-35.36v-96.65c0-12.58.63-25.42-.44-38-1.93-22.76-7-42.37-16.93-62.92a129.26,129.26,0,0,0-30-39.51c-29.19-25.82-67-40.12-106.14-38.71-18.37.66-36.38,4.76-54.33,8.4q-51.19,10.38-102.37,20.77c-33,6.72-61.94,23.12-87.83,44-30.22,24.41-52,58.54-64.84,94.93-7.69,21.82-9.81,45.1-9.81,68.1v108.11c0,4.89-.07,9.79.24,14.68a188.94,188.94,0,0,0,4.87,33.66c2.55,10.3,6.84,20.15,11.22,29.77a129.12,129.12,0,0,0,29.76,40.55c15.84,14.56,32.86,24.21,52.9,31.69a101.92,101.92,0,0,0,19.16,5.06c10.77,1.76,21.77,3.36,32.72,3.21a204.72,204.72,0,0,0,37-4.41c10.76-2.14,21.51-4.36,32.26-6.55l75.69-15.36,105-21.3,122.74-24.9L1796.41,2305l116.78-23.69,94.41-19.15,59-12,12.12-2.46a187.63,187.63,0,0,0,63.82-26.38c59.08-38.46,98.2-103.55,98.2-174.73V1939.53c0-20-.59-40.17-6.28-59.6-10.56-36-34.62-68.22-67.65-86.59a148.77,148.77,0,0,0-53.37-17.42c-20.58-2.77-39.73-1.65-60.25,2.4-11.78,2.32-24,12.91-29.88,23-6.27,10.72-8.93,26.51-5,38.53s11.41,23.77,23,29.88c12.39,6.55,24.74,7.76,38.53,5Z"/><path class="cls-1" d="M1866.81,510.66l-59.47,12.06-142.76,29-172.1,34.91-148.71,30.17c-24.08,4.89-48.29,9.36-72.29,14.66l-1,.21c-11.8,2.39-24,12.86-29.88,23-6.27,10.72-8.93,26.51-5,38.53s11.41,23.77,23,29.88c12.36,6.53,24.77,7.83,38.53,5L1356.51,716l142.76-29,172.1-34.91L1820.08,622c24.08-4.89,48.29-9.36,72.29-14.66l1-.21c11.8-2.39,24-12.86,29.88-23,6.27-10.72,8.93-26.51,5-38.53s-11.41-23.77-23-29.88c-12.36-6.53-24.77-7.83-38.53-5Z"/><circle class="cls-1" cx="2029.2" cy="528.63"/><path class="cls-1" d="M2029.2,578.63A51.58,51.58,0,0,0,2064.55,564c8.67-8.67,15.2-22.9,14.64-35.36-.58-12.93-4.83-26.34-14.64-35.36s-21.81-14.64-35.36-14.64a51.58,51.58,0,0,0-35.36,14.64c-8.67,8.67-15.2,22.9-14.64,35.36.58,12.93,4.83,26.34,14.64,35.36S2015.65,578.63,2029.2,578.63Z"/><path class="cls-1" d="M3305.58,1203H3204.46v7.86q-18.4-57.73-41.11-113.79-26.84-66.19-59.72-129.93l5.36,5.36,71.49-71.5a1511.11,1511.11,0,0,0-694-694L2415,278.5l5.36,5.36q-63.61-32.81-129.92-59.72-56-22.7-113.81-41.12h7.88V81.91a1511,1511,0,0,0-981.46,0V183h7.87q-57.74,18.4-113.8,41.12Q1030.88,251,967.14,283.86l5.37-5.37L901,207A1511.06,1511.06,0,0,0,207,901l71.5,71.5,5.36-5.36q-32.81,63.62-59.72,129.93-22.7,56-41.12,113.8V1203H81.91a1511.06,1511.06,0,0,0,0,981.47H183v-7.86q18.4,57.74,41.12,113.8,26.84,66.19,59.72,129.92l-5.36-5.36L207,2486.48a1511,1511,0,0,0,694,694l71.5-71.5-5.36-5.36q63.62,32.81,129.93,59.72,56,22.7,113.79,41.11H1203v101.12a1511,1511,0,0,0,981.47,0V3204.46h-7.87q57.74-18.4,113.8-41.12,66.19-26.84,129.93-59.72L2415,3109l71.51,71.49a1511.06,1511.06,0,0,0,694-694L3109,2415l-5.36,5.36q32.81-63.62,59.72-129.93,22.7-56,41.12-113.8v7.87h101.12a1511,1511,0,0,0,0-981.47Zm-202.4,765a1435.75,1435.75,0,0,1-78.84,266c-72.2,178-178.32,337.83-315.39,474.91S2412.09,2952.14,2234,3024.34a1440.13,1440.13,0,0,1-1080.6,0c-178-72.2-337.83-178.31-474.91-315.39S435.34,2412.1,363.14,2234a1440.14,1440.14,0,0,1,0-1080.61c72.2-178,178.32-337.83,315.39-474.91s296.86-243.19,474.91-315.39a1440.15,1440.15,0,0,1,1080.61,0c178,72.2,337.83,178.31,474.91,315.39s243.19,296.86,315.39,474.91A1442,1442,0,0,1,3103.18,1968Z"/></svg>