<svg viewBox="0 0 1501.22 576.05" xmlns="http://www.w3.org/2000/svg"><path d="m943.87 223.01c0-50.77-.02-101.55.01-152.32 0-12.61.42-13.05 12.77-13.05 75.85-.03 151.7-.04 227.55 0 12.68 0 12.72.11 12.8 12.73.09 12.94.13 25.88.1 38.83-.03 13.01-.07 13.03-13.59 13.03-44.24 0-88.49-.02-132.73-.02-13.75 0-14.06.29-14.05 13.82.01 13.94.05 27.88.11 41.81.05 10.76 1.16 11.97 12.05 11.99 40.25.06 80.51.02 120.76.02 14.55 0 14.92.29 15.03 15.24.09 12.28-.06 24.56-.1 36.84-.03 11.71-1.12 12.95-13.31 12.98-39.92.11-79.84.1-119.76.11q-14.73 0-14.67 14.9c.03 13.94-.03 27.88.01 41.82.03 10.87.97 11.91 12.01 11.93 44.91.06 89.82.02 134.73.04 13.37 0 13.48.13 13.5 13.22.02 13.61-.26 27.22.1 40.82.22 8.02-2.61 11.15-10.99 11.12-77.18-.24-154.36-.24-231.54-.06-9.27.02-11.05-4.57-11.03-12.47.17-51.11.09-102.21.09-153.32h.14z"/><path d="m1247.83 222.12c0-50.76-.04-101.53.03-152.29.02-11.8.51-12.19 12.55-12.2 74.84-.03 149.67-.04 224.51-.01 15.97 0 16 .1 16.06 15.54.05 12.94-.28 25.89.13 38.82.24 7.64-2.32 10.49-10.31 10.43-45.9-.32-91.8-.16-137.69-.21-12.11-.01-12.47.2-12.49 11.99-.03 13.94.06 27.87.04 41.81-.02 13.93.13 14.09 13.7 14.08 39.58-.03 79.16-.06 118.74-.02 14.9.02 15.33.52 15.33 14.92 0 12.28.06 24.55-.06 36.83-.11 11.29-1.42 12.8-12.6 12.84-40.58.14-81.15.09-121.73.1q-13.39 0-13.35 13.11c.03 14.6.46 29.22-.15 43.79-.38 9.14 2.81 12.25 12 12.18 44.9-.33 89.8-.16 134.7-.13 13.84 0 13.84.06 13.83 13.81 0 13.27-.38 26.56.13 39.81.32 8.43-2.22 11.66-11.25 11.62-76.83-.29-153.66-.13-230.49-.15-10.49 0-11.72-1.3-11.73-12.38-.04-51.43-.02-102.86-.02-154.28h.13z"/><path d="m767.64 57.72c37.91 0 75.83.2 113.74-.15 8.65-.08 11.94 2.74 11.63 11.43-.49 13.92-.45 27.87-.06 41.79.24 8.56-2.97 11.56-11.67 11.5-44.9-.33-89.79-.13-134.69-.17-14.08-.01-14.27.12-14.22 14.6.05 13.27.08 26.54.06 39.81-.01 13.2.34 13.61 13.23 13.62 40.24.03 80.48 0 120.73.09 14.29.03 14.53.33 14.61 14.52.07 12.61-.4 25.23.14 37.82.37 8.69-3.28 12.1-11.58 12.08-20.29-.05-40.57.12-60.86.14-21.62.02-43.24.18-64.85-.16-8.33-.13-12 2.32-11.58 11.41.71 15.23.24 30.51.24 45.77 0 11.28.94 12.26 12.67 12.27 44.57.03 89.13 0 133.7.02 13.83 0 13.97.15 14.01 13.91.04 12.61.07 25.21-.01 37.82-.08 11.85-.93 12.69-13.43 12.71-29.93.05-59.86 0-89.8-.02-44.9-.02-89.8.02-134.69-.07-13.49-.03-14.09-.72-14.09-14.18-.03-100.19-.04-200.39 0-300.58 0-15.94.12-15.98 16.04-16 36.92-.03 73.83 0 110.75 0v.04z"/><path d="m592.41 222.92c0 50.73.02 101.45-.01 152.18 0 12.65-.62 13.4-13.62 13.46-22.27.11-44.54-.31-66.8 0-8.77.12-11.55-3.52-11.53-11.91.15-102.45.13-204.89-.05-307.34-.01-8.36 2.58-11.96 11.45-11.79 22.92.43 45.87.54 68.79 0 9.46-.23 11.9 3.44 11.85 12.24-.29 51.06-.14 102.12-.14 153.17h.06z"/><path d="m220.7 436c-5.8-.14-9.94-2.92-13.18-7.66-52.28-76.48-117.92-139.7-193.19-193.33-.81-.58-1.52-1.29-2.32-1.88-15.96-11.7-16.06-20.2-.05-31.22 44.79-30.81 85.37-66.47 122.73-105.82 24.24-25.53 46.78-52.51 67.71-80.83 15.19-20.55 23.67-20.2 38.33.15 45.68 63.43 99.81 118.74 161.88 166.31 10.52 8.06 21.68 15.27 32.28 23.22 11.48 8.62 11.07 19.29-.84 27.36-76.65 51.96-141.23 116.26-196.01 190.59-8.49 11.52-10.84 13.32-17.34 13.11zm.57-378.92c-6.69-1.29-12.45 3-18.17 6.97-18.87 13.08-36.35 27.89-53.12 43.51-30.16 28.08-59.31 57.13-83.56 90.6-11.69 16.13-11.43 23.47-.22 39.51 30.49 43.66 69.52 79.19 109.33 113.94 11.27 9.83 23.22 18.74 36.44 25.92 7.09 3.85 13.92 4.16 20.84.28 5.19-2.91 10.38-5.93 15.19-9.42 19.93-14.45 38.65-30.39 56.14-47.68 27.62-27.29 55.44-54.43 76.22-87.67 6.38-10.2 6.03-19.9-.84-29.65-37.78-53.62-83.44-99.57-136-138.75-6.15-4.59-13.2-7.75-22.26-7.57z"/><path d="m450.84 463.92c2.73 3.9.89 7.54.84 11.08-.12 8.22 3.19 11.33 11.58 9.88 6.53-1.13 9.08 1.03 9.47 7.6.62 10.41 2.05 20.76 5.98 31.89 10.74-12.74 11.59-29.52 23.62-39.48 1.4-1.16 3.89-.46 6.23 2.27-1.08 8.22-6.49 15.51-10.19 23.35-8.44 17.9-17.26 35.63-26.22 53.29-3.07 6.05-7.46 11.08-15.1 11.39-3.56.15-6.81-.65-7.62-4.74-.73-3.65 1.64-5.58 4.74-6.53 11.35-3.47 14.49-11.89 13.24-22.49-1.89-16.07-4.23-32.09-6.43-48.51-8.78.54-14.04 3.3-14.98 13.11-.76 7.8-3.7 15.42-3.78 23.46-.03 3.36-.08 6.74 2.78 9.15 3.53 2.98 5.57 7.17 1.49 9.96-4.37 3-10.24 3.25-14.34-1.65-2.13-2.54-3.34-5.78-2.8-9.28 1.5-9.81 2.77-19.66 4.71-29.38 1.05-5.24 3.16-10.21-1.06-15-.6-.68-.79-1.83-.91-2.79s-.31-2.42.22-2.88c6.54-5.73 7.47-14.5 11.9-21.31 1.06-1.63 3.5-3.06 6.63-2.39z"/><path d="m356.06 497.53c-12.78-2.12-14.67-.36-19.16 10.27-4.88 11.55-4.04 24.11-7.94 35.79-1.9 5.68-4.47 7.6-9.72 5.81-2.73-3.43-1.37-6.71-.79-9.89 2.9-15.94 5.96-31.85 8.73-47.82.7-4.04 1.92-7.66 6.49-7.04 4.76.65 8.91.07 13.42-1.48 5.86-2.01 9.44 3.36 14.2 6.15 8.98-5.04 18.09-9.86 28.97-5.18 3.95 1.7 6.76 3.96 8.09 8.07 1.16 3.6 2.36 7.31-1.84 9.64-3.75 2.09-6.37-.36-8.28-3.24-2.6-3.9-6.21-4.7-10.42-3.97-3.05.53-5.78 1.69-6.6 5.14-.83 3.53 1.35 5.74 3.85 7.38 1.88 1.23 4.21 1.85 6.41 2.52 11.28 3.43 15.76 8.27 16.02 17.47.25 9-6.72 19.48-15.41 22.28-6.75 2.17-13.89 2.45-20.64.32-6.82-2.15-9.43-7.81-9.7-14.69-.24-6.02 3.84-6.85 8.62-7.38 2.04 3.05 3.86 6.18 6.08 8.99 2.93 3.69 7.06 3.22 11 2.25 3.66-.91 5.27-3.96 5.92-7.31.89-4.64-2.63-6.29-5.99-7.92-.6-.29-1.13-.71-1.72-1.01q-14.95-7.55-19.58-25.16z"/><path d="m83.22 460.96c-.08 15.69-5.65 30.19-6.9 45.27-.3 3.6-1.62 7.1-2.21 10.69-1.81 10.92 2.53 19.05 11.16 21.2 8.88 2.22 19.28-4.26 22.33-13.82 5.56-17.41 7.42-35.53 10.22-53.45 1.62-10.36 3.84-12.28 13.79-9.22-1.34 8.58-2.18 17.42-4.18 25.99-3.22 13.79-3.78 28.13-9.15 41.48-8.76 21.78-25.86 24.87-44.69 20.08-6.23-1.58-10.52-6.94-10.91-14.05-.61-11.25-.93-22.47 2.26-33.51 3.4-11.78 3.16-24.23 6.75-36.06 1.87-6.17 4.69-7.28 11.54-4.62z"/><path d="m535.53 547.68c1.35-18.59 5.59-36.91 9.07-55.28 1.48-7.8 2.09-15.69 3.63-23.46 1.3-6.59 4.13-10.02 11.21-9.74 8.61.34 17.27-.21 25.85.37 12.12.82 17.67 7.17 17.9 19.33.42 22.41-11.37 35.13-33.12 35.74-17.11.48-17.17.47-20.99 16.93-.82 3.53-.99 7.21-1.58 10.79-1.33 7.95-2.73 8.61-11.95 5.32zm21.57-48.56c8.21 2.49 16.57 2.67 24.33.13 6.67-2.18 9.94-8.19 10.28-15.53.27-5.76-2.29-10.12-7.39-11.61-6.35-1.85-13.18-1.29-19.72-.23-3.51.57-5.82 3.48-6.19 6.99-.69 6.48-2.47 12.94-1.31 20.23z"/><path d="m1455.72 549.39c2.27-13.93 4.28-26.29 6.31-38.65.9-5.48 3.45-12.39-3.28-14.89-7.66-2.85-13.1 2.8-14.91 9.57-3.16 11.77-5.16 23.88-7.26 35.91-1.06 6.09-2.7 10.36-10.75 7.2-1.02-8.37.58-16.43 2.6-24.41 1.72-6.8 2.9-13.65 2.88-20.64-.02-7.74-4.99-10.6-11.76-6.61-4.42 2.6-7.06 6.56-8.29 11.82-2.5 10.67-4.77 21.33-5.87 32.26-.66 6.52-3.35 10.87-11.82 7.04 1-8.14 1.38-16.4 3.14-24.35 2.16-9.73 4.04-19.45 5.09-29.37.67-6.33 3.04-10.9 11.04-8.68 2.36.65 5.39.11 7.78-.78 8.73-3.24 16.25-1.43 22.79 4.91 4.25-1.77 7.55-4.53 11.81-5.68 13.06-3.52 21.96 2.67 19.9 16.06-2.31 14.99-3.99 30.18-8.19 44.89-1.81 6.35-5.6 4.97-11.2 4.4z"/><path d="m1275.19 549.77c-.26-.21-.53-.62-.77-.6-8.47.56-17.09 2.71-23.4-6.09-7.15-9.97-6.66-21.3-3.61-31.46 4.06-13.5 9.93-27.39 27.76-28.26 7.14-.35 13.91 3.24 21.4 1.67 3.56-.74 4.77 3.36 3.92 6.47-5.91 21.67-6.07 44.54-13.68 65.84-5.01 14.03-21.61 22-35.58 17.43-4.19-1.37-6.7-4.48-8.44-7.94-1.89-3.78-3.62-8.73 1.03-11.55 4.12-2.5 7.47.27 9.71 4.14 3.31 5.72 8.49 5.94 13.87 4.06 5.63-1.97 8.27-7.07 7.79-13.69zm10.81-38.81c.62-6.52-.61-12.24-7.12-15.06-6.32-2.74-11.39.6-14.64 5.38-5.5 8.08-8.6 17.25-6.67 27.21 1.42 7.3 9.44 10.58 16.17 6.89 9.69-5.32 10.98-14.93 12.26-24.42z"/><path d="m634.23 545.95c-3.72 1.74-6.78 3.64-10.53 4.25-11.76 1.92-19-.48-21.43-7.53-3.12-9.07 2.13-22.49 11.15-27.62 5.22-2.96 10.83-4.87 17.01-5.17 4.85-.23 10.51 0 11.43-6.92.41-3.08.25-6.25-3.38-7.36-5.68-1.73-11.62-2.09-15.41 3.26-3.54 5-6.98 7.68-12.94 4.6 2.38-17.36 24.86-27.77 38.71-18.17 5.79 4.01 6.75 10.49 5.87 16.96-1.91 14.08-4.2 28.1-6.32 42.15-1 6.6-4.06 7.02-14.17 1.53zm5.11-23.68c-7.63-2.3-17.09-.67-21.78 4.16-2.47 2.54-5.14 5.4-3.14 9.55 1.74 3.6 5.06 3.77 8.43 3.74 8.63-.08 13.46-5.21 16.49-17.45z"/><path d="m945.69 483.22c1.72.21 3.03.59 4.31.48 21.14-1.82 23.66.92 22.79 21.79-.54 13.02-5.27 25.24-6.07 38.14-.23 3.78-2.36 6.36-6.38 6.15-4.81-.26-4.3-3.99-4.34-7.37-.14-11.73 4.91-22.63 5.41-34.23.2-4.69 2.3-10.53-4.55-12.47-6.2-1.76-11.12 1.06-14.65 5.99-2.7 3.77-4.39 7.98-5.06 12.77-1.42 10.14-3.47 20.19-5.2 30.29-1.09 6.39-4.96 5.91-9.47 4.15-2.25-3.24-1.18-6.64-.64-9.76 4.07-23.43 8.32-46.83 12.56-70.23.35-1.95.94-3.87 1.62-5.73 1.24-3.41 3.9-4.41 7.19-3.53 3.3.88 3.4 3.61 3.24 6.4-.32 5.44-4.08 10.68-.76 17.17z"/><path d="m309.8 531.01c-6.21 16.32-19.08 23.12-34.36 19.17-3.41-.88-5.88-2.75-8.02-5.46-12.65-16.04-2.55-52.19 16.38-60.17 16.79-7.08 31.8 1.86 31.02 23.81-.13 3.52-1.7 6.99-2.96 11.81h-36.91c-4.11 9.11 0 14.07 5.89 17.84 6.48 4.15 11.51.52 15.4-4.48 3.8-4.89 7.57-7.07 13.58-2.52zm-31.94-22.27c8.59 1.47 16.27 1.66 24.22-.07 1.77-7.57-.72-12.12-8.01-13.44-7.84-1.42-13.4 3.07-16.21 13.51z"/><path d="m1086.85 548.46c1.99-12.72 3.72-25.1 5.9-37.4 2.54-14.32 5.95-28.5 8.06-42.88 1-6.84 3.99-9.08 10.37-8.88 7.97.25 15.96-.12 23.92.2 14.5.58 22.76 10.53 21.08 25.01-1.88 16.21-14.3 28.19-31.05 29.84-2.64.26-5.31.18-7.97.21-12.68.17-14.23 1.47-15.39 13.96-.49 5.3-1.09 10.47-2.91 15.56-2.02 5.64-5.37 7.08-12.01 4.38zm21.07-49.02c8.23 1.82 15.53 1.68 22.7.66 7.74-1.11 13.32-9.33 12.65-17.68-.71-8.94-6.37-11.55-14.45-11.12-3.64.19-7.29.06-10.94.1-2.48.02-5.04.66-5.54 3.25-1.56 7.96-5.4 15.56-4.41 24.8z"/><path d="m997.74 573.83c-2.24-3.49-1.41-6.87-.82-10.04 4.46-24.05 9.24-48.05 13.49-72.14 1.06-5.99 3.65-8.41 9.34-6.7 4.19 1.26 7.81-.37 11.67-1.14 11.28-2.24 19.86 2.43 21.93 13.22 3.12 16.33-.36 31.59-10.64 44.89-7.54 9.76-17.82 10.28-28.94 7.07-4.48 5.71-5.48 12.24-6.25 18.74-.79 6.68-3.95 8.51-9.78 6.1zm45.59-65.17c-.29-4.71-.4-10.29-6.19-12.88-6.33-2.82-10.87.87-14.64 5.3-6.92 8.13-7.97 18.2-6.83 28.01 1.15 9.88 9.25 12.19 17.42 6.07 8.77-6.57 8.52-16.56 10.24-26.5z"/><path d="m162.98 547.46c3.87-11.61 4.01-23.88 6.92-35.71 1.55-6.32 3.38-12.84-4.52-16.1-6.23-2.57-15.25 3.4-16.91 11.63-2.09 10.36-5.41 20.51-5.87 31.19-.13 2.97-.34 6.03-2.21 8.53-1.73 2.32-4.1 3.35-6.99 2.42-2.63-.85-3.52-2.74-3.07-5.42 2.99-17.94 5.9-35.89 8.98-53.81.65-3.8 3.47-6.1 7.16-5.28 5.87 1.31 11.07-.42 16.55-1.82 10.6-2.7 19.87 3.99 19.67 14.85-.28 15.59-4.72 30.65-7.36 45.93-1.13 6.56-5.57 7.36-12.34 3.57z"/><path d="m1381.16 548.43c-5.28 3.82-8.68-1.23-13.02-2.5-4.24 2.46-8.73 4.42-13.85 4.64-6.42.28-13.17.8-16.79-5.81-3.39-6.18-2.75-12.96.37-19.12 4.74-9.34 13.14-13.63 23.13-15.25 3.27-.53 6.61-.68 9.87-1.26 4.59-.81 5.38-4.34 5.46-8.23.09-4.33-2.91-5.78-6.4-6.14-5.36-.56-10.68-.62-13.87 5.13-2.12 3.83-5.43 6.68-9.71 4.05-4.9-3.02-1.57-7.28.21-10.45 5.73-10.18 27.29-14.83 36.64-7.92 5.01 3.7 6.2 9.65 5.45 15.23-2.13 15.97-4.96 31.84-7.5 47.63zm-9.24-26.93c-7.99-1.8-14.27 1.07-20.12 4.66-2.81 1.72-4.6 4.87-3.5 8.56 1.27 4.3 4.78 5 8.65 4.98 8.83-.05 14.25-6.23 14.97-18.2z"/><path d="m700.9 495.93c-19.72.17-19.8.56-24.66 18.17-2.49 9.03-3.58 18.18-4.98 27.35-.61 3.98-1.84 8.56-7.12 7.81-5.96-.85-4.14-5.72-3.57-9.5 2.3-15.06 4.74-30.09 7.06-45.14.96-6.25 2.99-10.31 10.86-9.7 7.13.55 14.28-1.92 21.68-.64 5.39.93 6.13-3.58 6.86-7.74.99-5.64 2.78-10.85 10.41-11.51 4.26 7.12-5.24 18.71 7.41 21.79 0 1.31.24 2.37-.03 2.53-16.1 9.2-11.31 26.69-16.05 40.36-1.18 3.4.02 6.63 3.21 8.67 3.46 2.21 5.86 5.19 3.46 9.02-2.5 3.97-7.16 3.28-10.94 2.38-6.18-1.48-8.46-6.24-7.62-12.17 1.53-10.81 3.48-21.55 5.18-32.34.5-3.2 1.54-6.55-1.14-9.33z"/><path d="m829.07 520.5h-35.93c-3.06 7.81-1.61 13.33 4.67 17.18 6.64 4.08 11.98 1.66 16.48-3.9 1.04-1.29 2.07-2.63 3.33-3.68 2.28-1.91 4.95-2.09 7.35-.39 2.77 1.96 1.91 4.58.73 7.12-4.62 9.91-17.74 15.76-30.58 13.6-8.96-1.5-13.86-7.16-14.74-19.57-.97-13.79 1.22-27.17 10.73-38.14 7.95-9.17 19.82-12.64 29.49-8.57 10.76 4.54 12 13.97 11.49 24.04-.18 3.57.68 7.33-3.01 12.31zm-33.99-12.12c8.91 2.2 17.13 1.61 25.52.65 2.01-7.94-1.63-12.3-8.12-13.61-8.85-1.79-14.22 2.97-17.4 12.96z"/><path d="m1242.24 509.14c-.32 11.92-3.47 22.83-11.3 32.13-6 7.12-13.5 10.26-22.9 9.53-10.75-.84-15.74-4.58-17.5-15.41-2.6-15.95-.86-31.16 10.8-43.59 8.36-8.91 20.34-11.68 29.87-7.19 10.56 4.98 11.35 14.56 11.02 24.53zm-41.19 15.42c-1.24 6.12 1.44 11.87 8.31 13.8 7.26 2.03 12.69-2.71 16.3-8.42 4.29-6.79 6.03-14.47 5.39-22.67-.83-10.73-9.82-15.61-18.82-9.75-9.38 6.11-11.21 15.7-11.18 27.04z"/><path d="m234.14 522.43c9.03-10.28 11.69-22.18 17.43-32.41 3.18-5.67 6.5-6.64 12.4-4.09-1.42 10.27-7.81 17.81-11.54 26.43-4.46 10.3-9.87 20.18-14.52 30.4-1.99 4.36-4.49 7.53-9.58 7.02-6.11-.61-5.68-5.63-5.87-9.85-.72-15.26-5.57-29.99-5.8-45.32-.06-4.12-2.67-9.48 4.13-10.01 6.56-.51 6.67 4.87 7.13 9.68.88 9.08.34 18.5 6.22 28.14z"/><path d="m876.06 493.25c8.91-7.23 17.98-13.61 30.57-9.41 5.52 1.84 9.52 4.73 10.43 10.66.46 3.02.22 6.24-3.26 7.53-3.37 1.24-5.54-.5-7.31-3.43-3.48-5.76-8.66-5.13-14.04-3.27-2.28.79-4.32 1.77-4.72 4.51-.44 3.03.84 5.19 3.52 6.46s5.39 2.54 8.2 3.48c11.43 3.84 15.61 9.1 14.99 19.17-.66 10.71-8.57 19.72-18.85 21.46-15.83 2.68-24.49-2.14-25.74-14.11-.35-3.35.03-6.05 3.54-7.2s6.9-.84 8.13 3.25c1.96 6.51 6.56 7.8 12.43 6.89 4.46-.69 7.08-3.44 7.84-7.85.71-4.13-1.84-6.02-5.25-7.26-.62-.22-1.15-.77-1.77-.9-17.1-3.47-21.05-14.88-18.43-30.28l-.27.29z"/><path d="m756.82 549.12c-2.05-18.62 9.49-35.13 3.84-52.47-14.33-5.6-21.09 6.59-22.75 19.03-1.27 9.55-3.97 18.76-5.23 28.27-.87 6.51-4.5 7.33-10.79 4.22.61-14.67 4.83-29 7.04-43.56.87-5.75 1.01-12.09 3.61-17.32 3.64-7.34 10.25 1.58 15.16-1.73 1.57-1.06 3.73-1.32 5.66-1.76 14.06-3.2 22.77 4.62 20.64 18.92-2.04 13.72-4.75 27.34-6.81 41.06-1.02 6.8-4.76 6.72-10.37 5.35z"/><path d="m876.33 492.96c-11.82 2.25-21.81 6.5-23.97 20.28-1.53 9.77-3.53 19.47-5.25 29.22-1.3 7.38-1.26 7.39-11.07 5.93 1.92-21.15 6.09-41.9 10.92-62.76 6.78-1.41 13.02-.56 19.16-1.95 6.26-1.42 10.97 1.89 9.94 9.59l.27-.29z"/><path d="m424.03 485.78c-2.2 20.6-6.25 39.86-10.16 59.15-.8 3.95-3.39 5.69-7.22 4.88-4.41-.93-4.46-4.48-3.63-7.84 4.21-16.95 6.46-34.25 9.45-51.41 1.1-6.34 4.94-6.85 11.56-4.78z"/><path d="m187.08 542.16c3.32-17.49 6.65-34.97 9.95-52.46.7-3.73 2.46-6.28 6.67-5.52 3.84.69 4.43 3.83 3.94 6.9-2.2 13.67-4.56 27.3-6.96 40.94-.68 3.89-1.92 7.68-2.46 11.58-.58 4.23-2.15 7.07-6.91 6.31-4.62-.73-4.22-4.31-4.23-7.75z"/><path d="m1301.86 547.6c2.04-12.04 3.98-23.67 6.01-35.3.51-2.93 1.4-5.79 1.97-8.71 3.78-19.26 3.77-19.36 22.77-20.21 3.98-.18 8.46.41 8.88 5.71.39 4.89-2.42 7.19-7.38 6.98-7.79-.32-10.39 4.91-13.03 11.15-4.87 11.5-4.01 24.06-7.59 35.76-1.78 5.83-4.31 8.91-11.63 4.62z"/><path d="m1194.41 487.56c-1.57 5.76-3.95 8.66-10.4 8.93-8.52.36-10.63 8.16-12.11 14.9-2.26 10.3-5.24 20.47-5.94 31.13-.46 6.95-4.52 8.97-10.99 5.58.2-17.91 5.49-34.78 7.74-52.1 1.6-12.25 19.17-16.7 31.7-8.44z"/><path d="m295.62 420.29c-8.38-.1-15.89-7.77-15.58-15.9.3-7.85 7.61-14.56 15.87-14.56 8.91 0 16.01 6.83 15.98 15.37-.03 8.12-7.65 15.2-16.27 15.1z"/><path d="m977.68 548.2c1.58-10.63 2.62-20.77 4.7-30.68 1.77-8.41 3.79-16.74 4.51-25.32.38-4.55 2.21-7.9 7.33-7.18 4.72.67 3.97 4.49 3.45 7.78-2.45 15.63-4.64 31.32-7.62 46.85-1.01 5.26-2.06 12.75-12.37 8.55z"/><path d="m206.4 472.76c-3.86.03-4.94-2.48-4.93-5.77 0-3.89.89-7.33 5.72-7.53 2.95-.12 5.18 1.02 5.26 4.39.1 4.31-1.3 7.71-6.05 8.91z"/><path d="m1002.44 465.18c-.48 3.44-.64 7.44-5.42 7.91-3.78.37-5.23-2.36-5.37-5.6-.17-3.87.83-7.32 5.5-7.84 3.88-.43 5.22 1.9 5.29 5.53z"/><path d="m422.7 459.78c3.6.07 5.42 1.88 5.08 5.5-.35 3.69-1.02 7.46-5.89 7.33-3.8-.1-4.57-3.08-4.58-6.22-.02-3.62 1.13-6.4 5.39-6.61z"/><path d="m222.28 66.88c7.41-.48 13.15 3.17 18.42 7.14 47.97 36.22 91.01 77.42 126.35 126.21 11.36 15.67 11.56 23.08-.36 38.54-36.67 47.55-78.72 89.76-127.64 124.89-13.07 9.38-20.52 9.28-33.49-.34-49.09-36.44-92.35-78.85-129.65-127.24-10.22-13.26-10.25-22.04-.3-35.12 37.21-48.95 80.72-91.51 130.7-127.44 4.82-3.47 9.58-7.42 15.97-6.63zm-35.15 127.63c-5.73-4.15-11.12-10.62-19.46-8.88-14.2 2.97-27.09 9.1-36.87 20.26-6.82 7.79-6.11 16.8 1.4 23.77 6.22 5.77 13.91 9.02 21.74 11.71 38.48 13.22 77.54 14.09 116.89 4.48 10.32-2.52 20.57-5.82 28.8-13 9.82-8.56 10.01-16.47.9-25.32-3.08-3-6.9-5.32-9.63-8.58-8.72-10.43-21.2-7.45-32.44-11.37 1.33 13.33 2.39 14.35 13 14.28 9.69-.06 20.88 6.85 21.88 14.03 1.48 10.61-6.53 14.24-14.14 17.85-2.67 1.27-5.58 2.08-8.41 2.99-25.97 8.4-52.48 7.56-78.98 3.86-9.13-1.28-18.34-3.61-26.35-8.67-9.66-6.1-10.49-13-2.59-21.13 4.46-4.58 10.05-7.49 16.2-9.3 3.44-1.01 7.41-1.43 8.04-6.97zm44.41 39.58c-.87-15.67-1.91-31.83-2.64-48.01-.62-13.74-.46-13.74 13.04-16.18.56-.1 1.01-.8 2.83-2.34-6.21-20.36-13.15-41.03-24.03-60.51-8.52 20.56-16.55 40.54-22.2 61.29q14.76 4.93 14.04 20.44c-.6 12.92-.99 25.85-1.85 38.76-.48 7.29 2.2 10.65 9.69 9.89 3.27-.33 6.69.19 11.12-3.34zm2 58.57h-.72c0-8.58-.2-17.17.06-25.74.26-8.45-4.19-10.6-11.79-10.56-7.72.04-11.74 2.73-11.93 10.85-.38 15.84-.91 31.69-1.83 47.51-.42 7.21 2.21 10.61 9.48 10.39 2.98-.09 5.96 0 8.94.05 6.67.11 9.73-3.09 9.25-9.77-.55-7.57-.98-15.16-1.46-22.74z"/></svg>