<svg viewBox="0 0 1795.33 347.12" xmlns="http://www.w3.org/2000/svg"><path d="m1045.38 162.64c-.04 9.5-6.24 8.08-11.48 8.09-21 .04-41.99-.09-62.99.05-4.87.03-7.71-1.25-7.45-6.69.16-3.36-1.65-3.96-4.53-2.71-4.88 2.12-9.75 4.28-14.71 6.19-12.93 4.99-26.23 8.74-40.2 7.95-7.92-.45-15.71-2.83-23.63-3.53-11.99-1.05-21.56-7.69-32.47-12.97-.33 1.69-.77 3.22-.91 4.77-.59 6.38-1.1 6.93-7.66 6.95-14.16.05-28.33.05-42.49.05-35.62-.01-71.24-.02-106.86-.08-7.88-.01-8.15-.34-8.53-8.07-.28-5.78-1.45-6.18-6.74-3.48-8.82 4.52-17.46 9.97-26.86 12.65-12.2 3.48-24.91 5.3-37.93 2.89-10.55-1.95-21.31-3.53-32.01-3.79-22.98-.56-45.99-.42-68.98 0-6.36.11-9.96-2.3-12.39-7.63-1.62-3.55-3.24-6.91-8.16-6.79-4.78.12-7.28 2.62-8.69 6.82-2.06 6.13-6.32 7.97-12.7 7.64-9.8-.52-19.68.32-29.48-.24-8.75-.5-14.53 5.02-21.11 8.93-7.7 4.58-14.94 9.93-22.66 14.48-6.59 3.88-8.4 2.81-13.38-3.1-8.65-10.27-17.77-20.15-26.76-30.14-1.07-1.19-2.54-2.01-4.68-3.67-.54 2.83-1.2 4.8-1.25 6.78-.13 4.83-2.48 6.77-7.24 6.74-22.66-.11-45.33-.12-67.99-.05-5.14.02-6.67-2.85-6.69-7.28-.05-11.5-.09-23-.11-34.49-.02-9.62 0-19.24 0-28.86-.49-.03-.98-.06-1.47-.09-.1 1.83-.28 3.67-.29 5.5-.03 18.83-.02 37.66-.06 56.49-.02 8.15-.67 8.8-8.85 8.81-21.16.04-42.33.05-63.49.02-8.61-.01-9.61-1.09-9.61-9.94 0-19.5.03-38.99 0-58.49 0-7.27-1.82-9.2-9.05-9.42-5.49-.17-11-.17-16.5-.05-4.51.1-6.85-1.68-6.87-6.4-.07-12.15-.35-24.3-.4-36.45-.02-6.33.43-12.66.36-18.99-.05-4.68 1.93-6.6 6.59-6.57 12.33.08 24.66-.1 36.99-.11 54.66-.02 109.32-.1 163.98.03 25.34.06 45.61 10.53 59.95 31.45 4.14 6.03 6.64 13.19 10.31 20.67 2.67-6.28 5.09-11.99 7.51-17.69 1.03-2.43 2.07-4.87 3.11-7.3 3.2-7.45 6.57-14.84 9.52-22.39 1.22-3.13 3.1-4.53 6.28-4.63 18.78-.58 37.57-1.26 56.35-1.68 4.59-.1 9.29.23 13.77 1.19 1.96.42 4.18 2.61 5.05 4.55 2.64 5.86 4.58 12.04 7.01 18.01 1.11 2.72 2.71 5.24 4.67 8.94 4.78-4.23 8.87-8.55 13.64-11.91 8.06-5.68 16.2-11.44 24.97-15.87 6.72-3.4 14.33-6.16 21.75-6.79 11.79-1 23.76-.33 35.62.31 6.56.35 13.05 2.96 19.58 3.01 38.33.28 76.66.26 114.98.03 14.96-.09 29.9-1.28 44.86-1.38 8.61-.05 17.23 1.09 25.85 1.67 3.79.26 4.96 2.49 5.13 6.01.27 5.57 1 6.08 5.76 2.99 10.8-7.03 22.87-11.45 35.22-13.09 11.65-1.54 23.84-.4 35.63.97 12.45 1.45 24.12 6.04 34.77 12.93 2.93 1.89 4.59.48 5.17-2.77 1.27-7.11 1.31-7.12 8.44-7.14 18.16-.05 36.33 0 54.49-.2 5.09-.06 9.55.54 12.76 5.07.77 1.09 2.35 1.61 3.82 2.57.63-1.09 1.37-1.77 1.36-2.43-.12-5.67 3.09-6.92 8.06-6.76 21.44.67 42.89 1.18 64.34 1.71 8.51.21 9.05.55 9.07 9.2.09 43.16.09 86.32.09 129.48 0 6.39-1.18 7.58-7.63 7.62-14 .08-28-.21-41.99.2-4.66.14-9.49 1.44-13.84 3.21-3.51 1.42-5.58.84-7.72-1.87-2.43-3.06-5.01-5.99-7.52-8.98-.6-.22-1.2-.44-1.8-.67zm-623.6-11.97c-8.6-9.12-17.17-18.27-25.81-27.35-3.07-3.22-2.06-5.97.36-9 5.42-6.81 8.1-14.85 8.87-23.34 1.43-15.78-7.13-27.3-18.1-36.8-8.68-7.53-19.87-10.8-31.26-11.14-20.14-.6-40.32-.21-60.48-.37-4.5-.03-6.24 1.88-6.23 6.3.05 31.99.03 63.98-.06 95.97-.01 4.02 1.61 5.8 5.64 5.73 7.5-.11 15-.04 22.49-.09 6.97-.04 7.24-.17 7.51-7.29.18-4.87 2.3-7.41 7.24-7.6 7.32-.28 14.65-.57 21.96-1.04 4.49-.29 7.39 1.81 10.16 5.12 7.63 9.15 15.51 18.08 23.35 27.05 3.05 3.49 6.28 4.59 10.11.78 1.48-1.48 3.73-2.15 5.48-3.4 6.27-4.49 12.47-9.07 18.7-13.61 11.49.04 22.98.05 34.46.15 4.37.04 6.78-1.77 7.35-6.3.74-5.89 2.9-7.8 8.81-7.91 9.49-.17 18.98-.19 28.47-.2 8.34-.01 10 1 12.4 9.13 1.18 4.01 3.42 5.25 7.23 5.21 9.66-.11 19.31-.05 28.97-.14 1.34-.01 2.68-.49 4.53-.85-6.53-15.99-12.83-31.22-18.95-46.52-2.75-6.88-4.91-13.99-7.7-20.85-4.79-11.79-10.03-23.4-14.68-35.24-1.19-3.04-2.73-4.33-5.74-4.33-12.32 0-24.64-.08-36.96.12-1.71.03-4.14 1.06-4.96 2.41-2.49 4.08-4.65 8.43-6.41 12.89-4.33 11.01-8.24 22.19-12.55 33.21-2.04 5.21-4.78 10.14-6.88 15.34-2.83 7.01-5.26 14.18-8.03 21.22-3 7.62-6.19 15.17-9.29 22.76zm562.31-54.04h.05v46.48c0 6.9.6 7.54 7.28 7.57 7.33.03 14.66.03 21.99 0 7.81-.04 8.1-.36 8.13-8.26.05-11.49.02-22.99.24-34.48.03-1.56 1.04-4.03 2.15-4.39 1.22-.4 3.61.72 4.58 1.92 11.24 13.86 22.2 27.94 33.54 41.71 1.54 1.87 4.75 3.2 7.25 3.3 9.15.38 18.32.06 27.48.15 3.92.04 5.79-1.44 5.78-5.58-.06-32.15-.05-64.31.06-96.46.01-4.34-1.84-5.95-6.02-5.88-7.49.14-15 .19-22.49-.02-4.72-.13-6.64 1.81-6.57 6.49.15 10.15.11 20.31.05 30.47-.01 2.32-.07 4.72-.69 6.92-1.13 4.02-3.93 4.63-6.67 1.48-6.37-7.33-12.65-14.74-18.88-22.2-5.09-6.1-10.19-12.2-15-18.51-2.59-3.39-5.64-4.78-9.83-4.69-8.49.18-16.99.04-25.49.11-6.26.05-6.93.71-6.95 6.87-.03 15.66-.01 31.32-.01 46.98zm-147.37.65c1.68 7.35 2.34 15.12 5.27 21.93 4.1 9.53 11.42 17.05 19.9 23.12 8.86 6.34 18.75 10.03 29.54 12.14 15.65 3.07 30.86 1 44.75-5.34 12.03-5.49 22.99-13.58 29.27-26.48 4.38-8.98 7.53-18.07 6.94-28.07-.21-3.57-1.27-7.23-2.62-10.57-2.63-6.51-4.63-13.71-8.89-19.02-7.35-9.13-16.5-16.61-27.97-20.63-25.24-8.83-49.29-7.27-71.42 8.6-14.96 10.73-23.78 25.1-24.78 44.31zm-172.27 43.86c-7.19-7.33-13.38-13.98-20.03-20.14-1.34-1.24-4.5-1.14-6.65-.75-10.63 1.94-20.97 3.98-32 1-17.21-4.66-23.89-23.82-13.41-38.04 9.22-12.52 29.42-13.61 41.78-8.46 3.96 1.65 6.29 1.65 8.82-1.92 4.01-5.66 8.27-11.14 12.59-16.57 2.99-3.76 3.12-5.93-1.14-7.79-7.42-3.23-14.98-7.22-22.81-8.18-19.58-2.41-38.56-.77-55.51 11.67-15.11 11.1-24.88 24.49-24.25 43.96.08 2.5.12 5-.02 7.5-.52 9.52 3.65 17.35 9.04 24.64 13.99 18.94 33.55 26.94 56.39 27.49 7.73.18 15.52-1.3 23.26-2.26 8.92-1.11 15.54-6.78 23.96-12.15zm-440.2-98.41c-15 0-30 .09-45-.05-4.63-.04-6.75 1.69-6.61 6.45.19 6.49.17 13 .03 19.5-.09 4.34 1.94 5.96 6.09 5.87 5.83-.13 11.67-.05 17.5 0 8.26.06 8.89.68 8.9 8.78 0 20.16-.01 40.33 0 60.49 0 6.21.62 6.84 6.93 6.89 7.17.06 14.33.04 21.5.01 8.72-.03 9.01-.4 8.99-9-.04-19.66-.04-39.33 0-58.99.01-7.67.53-8.14 8.3-8.18 6.17-.03 12.34-.19 18.5.03 4.59.17 6.27-1.74 6.11-6.22-.22-6.32-.01-12.66-.05-19-.04-5.92-.63-6.55-6.68-6.56-14.83-.04-29.66-.01-44.5 0zm497.65.02v.03c-15.31 0-30.63.06-45.94-.04-4.42-.03-6.41 1.79-6.32 6.26.13 6.31.14 12.63 0 18.95-.1 4.63 1.85 6.68 6.56 6.56 6.65-.17 13.32-.1 19.97 0 6.78.1 8.3 2.01 8.23 8.85-.22 20.47-.23 40.94-.43 61.42-.04 4.29 1.83 5.98 6.03 5.91 7.49-.13 14.98.03 22.47-.04 6.59-.05 7.1-.58 7.12-7.18.04-19.64.03-39.29.05-58.93 0-8.97.92-9.9 10.1-10.01 5.99-.07 11.99-.14 17.98-.01 4.62.09 6.76-1.96 6.72-6.57-.06-5.83.06-11.65 0-17.48-.06-6.41-1.22-7.65-7.59-7.68-14.98-.07-29.96-.02-44.95-.02zm64.26 53.38h-.05c0 16.16.08 32.33-.06 48.49-.04 4.25 1.56 6.11 5.84 6.05 8.66-.13 17.33-.13 25.99-.05 3.91.03 5.8-1.49 5.79-5.6-.05-32.16-.04-64.32.04-96.48.01-4.37-1.98-5.89-6.11-5.82-8.16.12-16.33-.03-24.49.04-6.28.06-6.94.72-6.95 6.88-.03 15.5-.01 30.99-.01 46.49zm-106.42 28.47c.59-.14 1.19-.28 1.78-.42 0-6.05.09-12.09-.02-18.14-.18-10.06 1.45-11.6-10.55-11.66-.99 0-1.98-.42-2.95-.38-4.06.2-8.18.17-12.17.87-2.97.52-3.77 2.9-1.59 5.17 7.18 7.5 14.51 14.86 21.86 22.19 1 1 2.42 1.58 3.64 2.36zm-60.94-20.76c2.53-.72 5.18-1.17 7.56-2.23 2.81-1.25 3.67-3.45 1.19-5.89-1.77-1.75-3.6-3.52-5.7-4.8-3.1-1.9-10.26 1.29-11.22 4.75-1.35 4.84 1.71 7.79 8.17 8.18zm146.03-3.76c-2.92 9.34-2.19 51.62 0 54.36z"/><path d="m1158.65 97.21c0-21.83-.02-43.66 0-65.49 0-7.86 2.55-9.77 10.25-8.13 2.42.51 4.95.69 7.43.71 12.5.1 25 .29 37.49.06 6.12-.11 12.21-1.32 18.34-1.58 6.23-.27 7.65 1.28 7.66 7.61.05 20.66-.02 41.33 0 61.99 0 7.28.72 7.92 8.06 7.99h2c13.11.05 14.1-.87 18.47-13.11 3.39-9.49 7.38-18.77 11.05-28.16 3.92-10.01 8.01-19.96 11.56-30.11 1.72-4.91 5.32-4.93 9.17-4.92 9.83.04 19.66.46 29.49.27 10.29-.21 20.57-.84 30.84-1.51 9.62-.63 11.98 2.58 15.34 11.49 2.38 6.31 4.77 12.63 7.34 18.87.3.74 1.8.98 2.74 1.45.53-1.14 1.48-2.26 1.53-3.43.27-6.11.28-12.22.45-18.34.21-7.29 2.58-9.5 9.74-9.38 17.14.3 34.28.6 51.42.81 9.16.11 18.33 0 27.49.07 15.14.13 28.09 5.86 39.22 15.84 2.69 2.41 4.59 2.56 7.08-.18 9.91-10.89 23.13-15.8 36.74-19.88 1.87-.56 3.95-.59 5.94-.6 11.33-.09 22.69-.66 33.98.01 10.75.64 21.45 2.44 32.11 4.07 5.53.84 10.94 2.39 16.4 3.68 3.82.9 3.78 3.4 2.9 6.57-1.99 7.17-3.74 14.4-5.62 21.6-1.75 6.69-3.17 13.5-5.42 20.02-1.49 4.32.41 7.11 2.72 9.96 9.26 11.46 14.98 24.34 11.9 39.11-2.49 11.95-7.13 23.09-16.53 32.13-10.99 10.57-23.5 16.39-38.52 17.26-10.76.62-21.56 1.98-32.28 1.53-11.22-.47-22.36-2.67-33.53-4.2-8.21-1.12-16.36-2.8-24.6-3.41-4.34-.33-8.81 1.07-13.22 1.72-2.29.33-4.57 1.03-6.86 1.03-46.16.09-92.32-.03-138.48.27-6.6.04-8.23-4.27-9.91-8.57-1.68-4.31-4.32-5.93-8.7-5.81-4.23.11-6.61 2.05-8.1 6.04-2.97 8-3.54 8.23-12.01 8.23-47.99.01-95.98.02-143.98 0-8.55 0-9.05-.53-9.05-9.1-.01-21.5 0-42.99 0-64.49h-.06zm250.49-.06h-.07v45.96c0 6.89.47 7.52 7.32 7.53 23.48.02 46.96-.19 70.44-.09 6.84.03 12.6-2.68 18.11-6.06 19.92-12.18 21.95-39.19 1.03-52.03-1.12-.69-1.51-3.33-1.46-5.04.18-6.79.88-13.57.98-20.36.1-6.61-3.31-11.57-8.27-15.7-7.7-6.4-17.17-7.96-26.46-8.32-18.12-.7-36.29-.26-54.44-.21-6.29.02-7.14.93-7.16 7.37-.05 15.65-.02 31.31-.02 46.96zm-12.11 52.84c-2.51-7.39-4.46-14.02-7.01-20.42-4.62-11.63-9.73-23.06-14.37-34.67-3.84-9.63-7.13-19.48-10.99-29.1-2.52-6.29-5.97-12.21-8.35-18.54-1.31-3.49-3.22-4.64-6.61-4.61-11.99.11-23.98.16-35.97.16-3.04 0-4.8 1.1-5.92 4.15-2.45 6.66-5.39 13.15-8.06 19.74-5.02 12.38-9.97 24.78-14.97 37.17-2.65 6.58-5.38 13.12-8 19.71-3.39 8.52-6.7 17.07-10.37 26.41 2.85.29 4.74.65 6.64.66 8.83.01 17.66-.27 26.48-.03 4.42.12 6.59-1.34 7.78-5.71 1.98-7.27 3.83-8.37 11.32-8.41 8.99-.05 17.99-.09 26.98-.05 7.33.03 9.01 1.21 11.29 8.04 1.38 4.16 4 6.25 8.47 6.21 8.83-.08 17.65.02 26.48-.02 1.44 0 2.87-.36 5.17-.66zm179.47 6.96c.04-.44.08-.87.12-1.31 5 0 10.05.46 14.97-.12 6.05-.71 12.3-1.52 17.92-3.68 10.99-4.23 18.53-12.69 21-24.03 1.53-7.03 1.03-14.94-.46-22.06-1.77-8.46-9.41-12.88-16.79-15.71-7.32-2.81-15.33-3.81-23.06-5.51-5.51-1.22-11.27-1.71-16.49-3.68-2.26-.85-4.54-4.49-4.8-7.06-.28-2.79 2.5-4.81 5.91-4.61 12.38.72 24.96-1.76 37.14 2.54 3.87 1.37 5.95.03 6.84-4.49 1.17-5.95 3.25-11.76 5.39-17.47 1.88-5 .97-7.03-4.47-7.79-7.9-1.11-16.08-1.22-23.64-3.46-11.95-3.54-23.12.44-34.49 2-4.73.65-9.65 3.06-13.57 5.92-10.09 7.34-16.08 17.25-16.92 30.1-.84 12.84 7.57 25.78 19.99 28.6 7.87 1.79 16.05 2.21 24.07 3.4 4.74.7 9.59 1.23 14.08 2.75 1.96.66 4.29 3.55 4.39 5.54.12 2.27-1.52 6.03-3.33 6.72-3.84 1.48-8.33 2.09-12.47 1.8-10.76-.74-21.48-2.22-32.23-3.22-1.1-.1-3.1.86-3.35 1.72-1.55 5.37-2.71 10.86-4.03 16.3-.43 1.76-.68 3.62-1.46 5.21-2.25 4.59-1.02 7.14 4.18 7.73 3.63.42 7.32.37 10.95.79 8.21.94 16.41 2.03 24.61 3.07zm-394.92-59.92h-.02c0 15.99.07 31.99-.05 47.98-.03 3.59.68 5.69 4.86 5.67 22.32-.13 44.64-.14 66.97-.15 3.53 0 5.17-1.55 5.12-5.15-.09-6.16-.22-12.34.07-18.49.23-4.9-1.97-6.52-6.53-6.45-8.49.14-16.99.1-25.49.07-7.79-.03-9.82-1.94-9.86-9.74-.09-19.99-.05-39.98-.08-59.97-.01-7.73-.39-8.08-8.3-8.09-6.5 0-12.99 0-19.49.06-6.39.06-7.15.78-7.17 7.28-.06 15.66-.02 31.32-.02 46.98z"/><path d="m906.36 221.05c-243.63 0-487.26 0-730.89-.01-2.5 0-5.29.55-7.4-.39-1.93-.86-3.12-3.38-4.64-5.17 1.52-1.25 2.86-3.02 4.6-3.61 1.96-.67 4.28-.36 6.44-.36 485.93 0 971.86.02 1457.79.04 3.83 0 7.67-.05 11.49.19 2.66.16 4.95 1.1 4.77 4.5-.18 3.34-2.17 4.65-5.25 4.75-1.5.05-3 .07-4.5.07-244.13 0-488.26 0-732.39 0z"/><path d="m112.22 347.12c-3.97-1.67-8.32-2.76-11.83-5.1-15.77-10.53-29.47-23.45-42.07-37.58-4.95-5.55-10.4-10.65-15.16-16.35-4.87-5.83-9.38-12-13.66-18.27-7.36-10.77-14.77-21.54-21.46-32.73-3.42-5.73-5.66-12.25-7.79-18.63-1.38-4.14 3.28-9.4 7.43-8.37 7.17 1.79 15.1 2.89 19.63 9.68 5.65 8.46 10.68 17.34 15.94 26.05 5.38 8.92 10.4 18.09 16.16 26.76 10.35 15.58 20.88 31.06 31.85 46.2 5.11 7.06 11.45 13.23 17.18 19.85 1.79 2.07 3.38 4.32 5.06 6.49l-1.27 2.01z"/><path d="m1682.45.1c3.72 1.52 7.99 2.32 11.07 4.68 10.39 7.97 21.04 15.79 30.31 24.96 12.92 12.77 25.39 26.14 36.75 40.3 9.15 11.4 16.53 24.26 24.4 36.66 3.35 5.29 6.55 10.85 8.61 16.71 1.16 3.29 1.01 8.11-.66 11.06-2.17 3.85-6.54 2.86-10.76 1.55-8.76-2.73-14.72-7.81-19.12-16-7.59-14.11-15.96-27.83-24.42-41.45-6.1-9.83-12.66-19.38-19.39-28.79-8.3-11.6-16.89-23-25.55-34.34-2.61-3.42-5.94-6.28-8.82-9.49-1.25-1.4-2.22-3.05-3.32-4.58.3-.43.6-.85.91-1.28z"/><path d="m1681.1 346.57c1.42-2.24 1.92-3.26 2.62-4.11 8.05-9.66 16.68-18.9 24.08-29.03 10.75-14.72 20.96-29.86 30.77-45.22 10.39-16.27 19.73-33.22 30.29-49.37 2.2-3.36 7.54-5.02 11.76-6.58 3.19-1.18 7.14-1.88 10.34-1.1 4.14 1.02 5.52 6.2 3.21 10.84-4.91 9.86-9.29 20.15-15.49 29.16-10.66 15.48-21.8 30.77-34.12 44.93-11.61 13.35-24.62 25.56-37.76 37.45-5.78 5.23-13.34 8.51-20.2 12.48-1.11.64-2.78.31-5.5.54z"/><path d="m113.51 1.66c-.77 1.26-1.27 2.84-2.35 3.74-11.85 9.99-19.66 23.31-28.86 35.42-8.88 11.7-16.83 24.15-24.6 36.63-6.39 10.26-11.65 21.21-17.91 31.55-4.36 7.19-8.65 14.86-14.69 20.45-4.52 4.18-11.59 6.26-17.89 7.64-5.12 1.12-8.39-5.44-6.56-10.64 5.37-15.32 14.55-28.58 23.41-41.82 7.88-11.77 17.8-22.17 26.68-33.28 13.75-17.21 30.04-31.7 47.81-44.55 4.03-2.91 8.97-4.57 13.49-6.8.49.55.98 1.1 1.47 1.66z"/><path d="m566.71 302.02c3.58-4.66 6.97-8.41 9.61-12.64 5-8.03 7.91-7.33 16.49-6.77 3.31.22 4.97 2.58 4.98 5.84.04 14.15.03 28.31 0 42.46 0 3.4-1.65 5.28-5.17 5.3-2 .01-3.99.13-5.98.04-4.02-.17-6.06-2.25-6.02-6.36.05-4.5.03-8.99-.04-13.49-.03-1.73-.27-3.45-.41-5.18l-1.26-.35c-2.1 2.65-4.2 5.31-6.31 7.95-5.23 6.54-6.96 6.53-11.88.06-2.11-2.78-4.27-5.52-6.44-8.25-.16-.21-.59-.2-1.55-.48-.26 1.8-.67 3.5-.71 5.21-.09 3.99.02 7.99 0 11.99-.04 7.69-1.3 8.89-9.14 8.74-5.83-.11-7.35-1.53-7.4-7.5-.1-11.82-.02-23.65-.1-35.47-.03-4.3-.04-8.49 4.93-10.32 5.74-2.11 11.57-.48 15.18 4.26 3.48 4.58 6.91 9.21 11.22 14.96z"/><path d="m954.85 337.03c-13.52 1.05-22.76-6.34-29.2-16.65-3.99-6.39-3.02-14.63.41-21.59 8.68-17.61 33.96-21.51 48.81-12.25 9.59 5.98 16.46 13.64 14.71 25.36-1.84 12.27-10.12 21.63-24.31 24.19-3.42.62-6.94.64-10.42.94zm1.7-13.48c7.69.08 15.6-6.46 15.78-13.06.2-7.29-7.85-15.39-15.31-15.42-8.76-.04-15.99 6.42-16.04 14.32-.05 8.72 5.81 14.05 15.57 14.16z"/><path d="m661.45 309.08c0-6.66.1-13.33-.04-19.99-.08-4.03 1.53-6.36 5.64-6.71 11.86-1.01 23.77-1.14 34.97 3.26 7.54 2.96 13.8 8.14 15.89 16.58 2.66 10.76.46 20.03-9.07 26.82-6.64 4.73-13.65 7.97-22.08 7.54-6.65-.34-13.32-.26-19.98-.36-3.71-.06-5.37-1.92-5.33-5.65.09-7.16.03-14.33.03-21.49h-.04zm17.23.13h.09c0 2.82.08 5.64-.02 8.46-.15 4.32 2.02 6.19 6.12 5.65 3.08-.41 6.14-1.13 9.14-1.97 4.77-1.33 7.76-6.64 7.35-12.64-.45-6.54-4.01-11.08-9.24-11.8q-13.53-1.86-13.44 11.8z"/><path d="m1209.64 309.63c0-6.48-.13-12.97.05-19.45.17-5.92 1.71-7.47 7.42-7.7 10.79-.44 21.52-.56 32.09 2.6 8.14 2.44 16.47 11.99 16.92 20.44 1.03 19.39-9.4 30.37-29.01 30.59-6.81.08-13.63.39-20.44.26-5.73-.11-6.94-1.5-7.02-7.28-.09-6.48-.02-12.97-.01-19.46zm17.35.13h.14c0 3-.31 6.04.13 8.97.23 1.53 1.44 3.51 2.77 4.18 3.86 1.95 14.06-1.17 17.41-4.91 3.74-4.17 4.13-8.34 1.31-14.07-3.01-6.12-10.16-9.16-17.97-7.12-6.31 1.65-2.8 7.19-3.76 10.96-.16.63-.02 1.33-.02 1.99z"/><path d="m1131.67 333.98c-6.56 4.07-15.93 2.64-20.24-2.55-2.54-3.06-5-6.26-7.99-8.82-1.63-1.4-4.39-2.34-6.43-2.03-1.15.17-1.9 3.27-2.75 5.08-.19.41-.03.99-.04 1.49-.12 8.67-3.22 11.25-11.65 8.6-1.99-.63-4.3-4.09-4.38-6.32-.46-13.47-.47-26.96-.28-40.44.06-3.94 2.77-6.49 6.87-6.49 11.57 0 23.22-1.41 34.58 2.48 5.36 1.84 10.19 7.33 10.74 13 .68 7.08-.62 13.24-6.91 17.48-3.18 2.14-2.83 4.1-.4 6.83 3.23 3.64 5.93 7.76 8.89 11.7zm-29.74-26.96c2.46-.35 5.24-.12 7.27-1.25 1.63-.91 3.16-3.46 3.17-5.29 0-1.26-2.49-3.24-4.17-3.65-2.68-.64-5.61-.17-8.43-.3-4.08-.18-5.53 1.66-5.49 5.72.07 6.09 4.01 4.87 7.66 4.76z"/><path d="m726.55 309.62c0-6.66-.03-13.32 0-19.98.03-5.17 1.71-7.19 6.71-7.25 11.82-.14 23.64-.05 35.46 0 3.76.01 6.46 1.52 6.91 5.64.46 4.21-1.8 7.57-6.23 8.1-3.75.45-7.62-.15-11.44-.08-3.63.07-7.29.23-10.88.71-.97.13-1.75 1.6-2.62 2.46.97.76 1.9 2.11 2.91 2.17 5.14.32 10.31.22 15.46.43 4.1.16 7.01 1.7 7.24 6.46.3 6.32-1.12 8.05-7.47 8.26-4.66.15-9.36-.09-13.96.46-1.59.19-2.96 2.24-4.43 3.44 1.47 1.02 2.9 2.84 4.43 2.93 6.64.39 13.31.28 19.97.33 4.08.03 7.29.96 7.34 6.01.05 4.83-1.45 6.58-7.13 6.67-11.82.19-23.64.22-35.46.07-5.75-.07-6.81-1.42-6.84-7.35-.04-6.49 0-12.98 0-19.48h.02z"/><path d="m1170.12 336.82c-16.55.34-27.06-6.14-32.86-20.34-3.69-9.04.12-16.63 5.1-23.01 9.12-11.66 24.75-14.73 38.93-9.8 8.24 2.87 14.44 7.39 18.23 15.43 3.96 8.41 1.86 22.01-5.05 28.16-7.33 6.52-15.67 10.56-24.35 9.56zm-1.84-13.23c9.25.19 15.93-5.29 16.08-13.2.14-7.46-7.14-16.06-13.62-16.1-7.96-.04-18.31 8.28-18.37 14.78-.06 6.45 8.62 14.37 15.92 14.52z"/><path d="m494.91 281.55c12.75.61 23.74 4.49 30.01 16.72 4.28 8.36 1.96 26.77-9.16 33.1-12.87 7.33-25.47 7.56-38.1 1.8-8.05-3.68-14.29-9.9-14.41-20.21-.1-8.49-.11-16.46 7.42-22.52 7.17-5.76 14.95-9.11 24.24-8.88zm14.87 27.61c-.07-8.12-6.97-14.72-15.58-14.9-6.39-.13-16.17 9.3-15.95 15.38.25 6.89 8.57 14.15 16.31 13.85 7.69-.3 16.09-3.91 15.21-14.32z"/><path d="m445.59 317.9c4.06 5.5 7.84 10.63 11.59 15.72-5.16 4.35-16.41 3.42-19.96-1.26-2-2.64-3.67-5.72-6.2-7.7-2.1-1.64-5.27-2.7-7.88-2.55-1.19.07-2.91 3.58-3.14 5.67-.85 7.81-4.32 10.5-11.87 7.85-1.51-.53-3-3.46-3.07-5.34-.35-9.64-.27-19.29-.26-28.94 0-4.66.14-9.31.29-13.96.11-3.44 1.93-5.16 5.42-5.02 10.89.44 21.79-1.05 32.65 2.05 7.75 2.21 12.25 7.14 13.68 14.11 1.13 5.51-1.78 10.88-6.08 14.95-1.43 1.36-3 2.56-5.19 4.41zm-15.82-10.59c.5-.04 2.51 0 4.43-.39 3.36-.66 5.05-3.2 3.94-6.16-.66-1.77-3.3-3.84-5.13-3.91-4.26-.18-9.21-3.26-12.76 1.8-.26.37-.22.95-.29 1.44-.88 5.89.66 7.23 9.81 7.23z"/><path d="m1274.43 302.52c0-4.33-.05-8.66.01-12.99.08-5.89 1.17-7.06 6.4-7.21 7.69-.22 10.52 1.51 10.7 7.21.25 8.15.12 16.32.14 24.48 0 3.92.99 7.54 4.98 8.94 4.21 1.48 9.16 1.9 12.11-1.79 2.42-3.04 4-7.35 4.41-11.26.71-6.75.33-13.64.21-20.46-.08-4.48 1.63-6.8 6.36-6.96 6.15-.22 9.63 1.26 9.76 5.93.3 11.4 2.57 23.2-2.23 34.02-2.05 4.62-6.24 9.52-10.71 11.61-10.72 5.02-22.12 4.5-32.62-1.37-5.83-3.26-8.61-9.17-9.32-15.66-.52-4.77-.1-9.65-.1-14.48h-.09z"/><path d="m1021.76 309.13c0-6.32-.1-12.65.03-18.97.11-5.86 2.43-7.99 8.38-7.93 7.32.06 14.7-.3 21.95.45 6.75.7 13.31 2.4 17.08 9.38 5.59 10.32.46 24.13-10.76 27.33-4.4 1.26-9.04 1.95-13.62 2.26-3.87.26-5.73 1.44-5.82 5.6-.18 8.26-6.28 12.01-13.86 8.31-1.7-.83-3.13-3.86-3.25-5.97-.41-6.8-.15-13.64-.15-20.46zm24.67-.5c2.55-1.21 6.06-1.81 7.33-3.83 1.01-1.59-.27-6.88-1.33-7.14-4.14-.98-8.6-.6-12.94-.71-.07 0-.14.28-.22.43-2.6 5.34.7 10.41 7.16 11.24z"/><path d="m834.7 336.54c-5.03.65-8.35-1.71-10.41-6.02-1.96-4.11-5.07-5.95-9.59-5.58-1.49.12-3.02.22-4.48 0-7.14-1.1-12 1.39-14.83 8.28-1.3 3.17-13.26 4.45-15.38 1.73-.69-.89-.35-3.14.26-4.4 6.44-13.39 13.23-26.61 19.46-40.1 2.2-4.76 4.35-8.35 10.31-8.2 7.02.17 11.36 3.8 14.55 11.26 4.47 10.43 9.64 20.56 14.38 30.87 1.3 2.82 2.34 5.8 3.1 8.81.18.72-1.07 2.36-1.98 2.68-1.68.58-3.59.49-5.41.69zm-23.59-32.87-1.76.5-2.24 7.22.91 1.41c1.99-.8 3.98-1.61 5.98-2.41-.96-2.24-1.92-4.48-2.88-6.72z"/><path d="m1336.09 309.57c.32-12.78 7.37-21.16 19.84-25.35 9.65-3.24 18.87-3.43 28.21.26 2.14.84 4.19 2.05 6.05 3.41 2.44 1.8 2.57 3.93.42 6.3-5.55 6.13-5.94 6.47-13.78 2.82-6.35-2.96-12-4.14-17.74 1.41-5.22 5.05-7.19 12.3-3.9 17.36 4.43 6.83 12.8 9.83 19.55 6.98 1.22-.51 2.62-.86 3.57-1.7 4.86-4.26 8.36-1.07 11.91 1.99 2.96 2.55 2.86 5.33-.19 7.47-17.82 12.47-42.6 8.49-52.72-12.64-1.16-2.41-.85-5.53-1.22-8.32z"/><path d="m1763.11 173.99c1.63-10.47 3.04-20.41 4.78-30.29 1.12-6.33 5.17-7.65 10.17-3.71 13.23 10.41 19.51 23.97 16.55 40.61-2 11.23-8.38 20.46-18.03 26.93-3.98 2.67-7.51.94-8.58-4.45-1.91-9.68-3.31-19.46-4.9-29.08z"/><path d="m30 174.47c0 5.99.45 12.03-.14 17.97-.49 4.84-1.82 9.71-3.56 14.26-1.2 3.15-4.05 4.3-7.29 1.78-7.52-5.86-14.74-11.86-16.19-22.22-.72-5.17-3.22-10.42-2.69-15.39 1.39-13.09 7.86-23.71 19.34-30.59 1.45-.87 5.8.2 6.54 1.59 1.98 3.69 3.43 7.98 3.79 12.14.6 6.77.16 13.64.16 20.47h.04z"/><path d="m350.3 309.16c0-7 .11-13.99-.04-20.99-.08-4.01 1.63-5.87 5.6-5.85 11.49.04 22.99.02 34.48.07 3.32.02 5.93 1.15 6.35 4.93.4 3.52.2 7.05-4.08 7.84-4.02.75-8.18.84-12.28 1.08-3.66.21-7.36-.04-10.97.44-1.49.2-2.81 1.75-4.21 2.68 1.21 1.36 2.3 3.77 3.64 3.92 5.93.65 11.94.7 17.92.89 5.79.18 6.61 1.13 6.51 6.78-.07 4.08-2.21 5.7-5.92 5.78-5.49.11-10.99.25-16.49.12-4.21-.09-6.25 1.59-6.02 5.89.1 1.99.06 4-.02 5.99-.27 6.55-1.12 7.33-7.77 7.29-6.28-.03-6.65-.39-6.69-6.89-.03-6.66 0-13.33 0-19.99h-.02z"/><path d="m888.38 315.96c0-4.33-.22-8.67.06-12.98.31-4.85-1.85-6.42-6.46-6.52-3.19-.07-6.48-.91-9.5-2.02-3.63-1.32-3.67-5.01-2.54-7.61.88-2.02 3.72-4.45 5.74-4.5 13.47-.29 26.96-.02 40.44.14 3.97.05 6.01 1.91 6.08 6.18.07 4.28-1.13 7.16-5.72 7.79-.33.05-.66.07-.99.1q-9.86 1.05-9.82 11.28c.02 6.82.34 13.68-.26 20.46-.23 2.57-2.15 6.42-4.16 7.09-3.36 1.12-7.46.39-11.16-.13-.73-.1-1.49-2.8-1.55-4.32-.2-4.99-.07-9.98-.07-14.98h-.08z"/><path d="m1422.47 282.41c6.33 0 12.66.02 18.99 0 3.91-.02 6.3 1.43 6.52 5.75.22 4.24-1 7.23-5.55 7.97-1.47.24-2.98.29-4.48.35-6.17.25-6.75.76-6.81 7.11-.09 8.5.04 17-.09 25.49-.08 5.49-1.64 6.95-6.78 7.03-9.05.14-10.03-.4-10.22-6.9-.25-8.49-.12-16.99-.28-25.49-.12-6.43-.78-6.97-7.37-7.16-1.5-.04-3.04.08-4.48-.24-3.64-.82-6.06-3.03-5.83-6.95.22-3.85 2.02-6.81 6.38-6.9 6.66-.12 13.33-.03 19.99-.03v-.03z"/><path d="m650.01 309.71c0 6.33.03 12.67-.01 19-.03 3.73.23 7.41-5.44 7.44-8.4.05-11.23-1.33-11.54-7.39-.32-6.15-.12-12.33-.13-18.49 0-6.5-.12-13 .04-19.5.18-7.26 8.6-11.77 14.48-7.58 1.53 1.09 2.27 3.91 2.52 6.03.41 3.45.12 6.99.13 10.49v10h-.04z"/><path d="m342.78 74.51c3.16 0 6.32-.1 9.47.02 9.36.34 14.93 5.95 14.96 14.98.03 7.57-6.5 14-14.9 14.28-6.64.22-13.29.15-19.93 0-5.07-.11-7.31-2.29-7.51-7.32-.21-5.14-.05-10.3-.09-15.45-.03-4.09 2.1-6.22 6.05-6.38 3.98-.16 7.97-.04 11.96-.04v-.1z"/><path d="m874.63 97.96c.72-15.02 10.13-24.84 25.06-25.8 10.35-.67 19.91.13 28.2 7.88 10.38 9.69 9.85 27.3-1.98 36.64-13.29 10.49-39.68 9.39-48.26-6.95-1.83-3.49-2.06-7.82-3.02-11.76zm30.18 5.58c4.54-.08 9.72-4.15 8.07-6.69-1.91-2.93-5.97-5.88-9.24-6.04-2.33-.11-5.77 3.96-7.09 6.89-1.19 2.64 3.83 5.92 8.26 5.83z"/><path d="m487.57 111.77c-1 0-2 .06-2.99-.01-5.24-.38-6.58-2.03-5.13-6.96 1.29-4.38 2.82-8.72 4.56-12.95 1.34-3.28 5.11-3.64 6.79-.5 2.38 4.46 4.49 9.14 6.05 13.94 1.21 3.71-.87 6.05-4.81 6.39-1.48.13-2.98.02-4.48.02v.07z"/><path d="m1465.14 108.37c4.31 0 8.64-.18 12.94.05 4.69.25 8.05 2.28 9.21 7.36 1.2 5.26-1.32 8.42-5.58 10.26-3.1 1.34-6.58 2.22-9.95 2.4-6.45.36-12.94.11-19.41.06-4.07-.03-6-2.05-5.99-6.2.03-15.58-1.27-13.81 13.3-13.97 1.82-.02 3.65 0 5.48 0z"/><path d="m1459.68 66.33c2.82 0 5.66-.21 8.46.05 4.43.4 8.08 2.16 8.83 7.12.78 5.16-1.67 9.6-6.99 10.34-6.67.92-13.84 1.77-20.22.25-6.58-1.56-2.39-8.47-3.2-12.93-.58-3.16 1.27-4.95 4.66-4.87 2.82.06 5.64.01 8.46.01z"/><path d="m1332.16 111.78c-9.4.02-11.09-2.98-6.73-11.62 1.61-3.2 2.67-6.7 4.43-9.81.36-.64 3.56-.74 4.04-.07 2.3 3.22 4.51 6.62 6.02 10.27 3.2 7.72.64 11.22-7.76 11.23z"/></svg>